<svg width="409" height="214" viewBox="0 0 409 214" fill="none" xmlns="http://www.w3.org/2000/svg">
<path d="M139.892 16.85C139.742 14.3 139.592 11.75 137.942 9.64999C137.042 8.29999 136.292 6.94999 135.242 5.75C132.242 2.3 128.492 0.0499897 123.842 0.499993C118.892 0.949996 113.942 1.84999 109.442 4.09999C105.092 6.19999 100.742 8.14999 96.3924 10.25C95.0424 10.85 93.8424 11.6 92.6424 12.35C91.7424 12.95 90.9924 13.85 90.0924 14.45C88.1424 15.65 86.0424 16.55 84.2424 17.75C83.0424 18.65 82.2924 20.15 80.9424 20.9C78.9924 21.95 77.0424 22.85 75.5424 24.65C74.4924 25.85 72.6924 26.3 71.9424 27.95C71.4924 28.7 70.8924 29.9 70.1424 30.05C68.4924 30.35 67.8924 31.7 66.8424 32.6C66.6924 32.75 66.3924 32.75 66.0924 32.9C65.3424 33.5 64.1424 33.95 63.8424 34.7C62.9424 36.95 61.4424 38.3 59.1924 38.9C58.8924 39.05 58.4424 39.5 58.4424 39.8C58.2924 41.45 57.2424 42.35 55.7424 42.8C55.4424 42.95 55.2924 43.4 54.9924 43.7C54.8424 44 54.6924 44.3 54.3924 44.45C53.3424 45.2 51.8424 45.65 51.8424 47.45C51.8424 47.6 51.5424 47.9 51.3924 48.05C50.1924 48.8 49.8924 50.75 47.9424 50.3C47.3424 51.95 44.9424 52.4 45.3924 54.65C45.3924 54.8 44.9424 55.4 44.6424 55.4C43.1424 55.4 42.3924 56 42.9924 57.5C42.3924 57.5 41.9424 57.5 41.4924 57.5C41.6424 57.95 41.7924 58.4 41.9424 58.7C41.3424 59.75 39.6924 59.9 39.5424 61.4C39.5424 61.55 39.3924 61.7 39.2424 61.7C37.1424 61.7 37.1424 63.05 37.1424 64.55C35.7924 65.3 35.9424 65.45 34.8924 66.95C33.9924 68.3 32.6424 69.5 31.5924 70.85C31.4424 70.7 31.2924 70.55 31.1424 70.4C31.1424 70.55 31.1424 70.7 31.1424 70.85C30.5424 73.1 29.4924 74.9 27.2424 76.1C26.3424 76.55 25.7424 77.9 25.2924 78.95C24.3924 81.05 23.7924 83.3 21.2424 84.2C21.2424 84.2 21.2424 84.35 21.0924 84.5C21.3924 84.8 21.6924 85.1 21.9924 85.55C21.2424 86 20.6424 86.45 20.0424 86.9C19.7424 87.65 19.2924 88.1 18.9924 88.7C17.9424 90.35 17.0424 92.15 15.8424 93.8C14.9424 94.85 13.8924 95.75 14.4924 96.95C13.7424 98 13.1424 98.75 12.6924 99.5C11.9424 100.85 11.1924 102.35 10.4424 103.85C9.99238 104.6 9.54238 105.35 9.24238 106.1C8.04238 108.65 6.84238 111.2 5.64238 113.75C4.89238 115.55 3.84238 117.2 3.24238 119C2.49238 121.4 2.04238 123.95 1.59238 126.5C0.842383 131.45 0.692383 136.4 3.09238 140.9C3.84238 142.25 5.04238 143.45 6.24238 144.35C7.14238 144.95 8.49238 144.8 9.39238 143.75C10.1424 142.85 10.8924 142.1 11.6424 141.35C11.9424 140.9 12.2424 140.45 12.5424 140C11.4924 140.3 10.5924 140.75 9.69238 141.2C8.34238 141.8 7.74238 141.35 7.14238 140C5.19238 135.95 6.24238 131.9 6.84238 127.85C7.14238 125.3 7.89238 122.75 8.64238 120.2C9.99238 115.85 11.3424 111.5 12.9924 107.15C13.8924 104.75 15.0924 102.35 16.5924 100.25C17.7924 98.45 17.9424 95.75 20.3424 94.7C20.6424 94.55 20.7924 94.1 20.9424 93.8C21.8424 92.3 22.7424 90.8 23.6424 89.3C24.3924 88.1 25.2924 87.05 26.0424 85.85C26.9424 84.2 27.5424 82.4 28.7424 81.05C30.0924 79.55 31.8924 78.5 32.6424 76.4C32.9424 75.5 33.8424 74.75 34.5924 74C35.4924 72.95 36.5424 71.9 37.4424 70.7C38.3424 69.5 39.2424 68.15 40.2924 66.65C40.2924 66.5 40.2924 65.9 40.2924 65.3C40.4424 65.45 40.5924 65.6 40.7424 65.75C41.3424 65.3 41.9424 64.85 42.3924 64.25C42.8424 63.65 43.1424 62.9 43.5924 62.3C45.0924 60.65 46.5924 59.15 47.9424 57.5C49.1424 56.15 50.4924 54.8 51.3924 53.15C52.8924 50.75 55.5924 49.55 57.0924 47.15C58.1424 45.5 60.0924 44.45 61.5924 43.1C62.3424 42.5 62.9424 41.75 63.6924 41.15C65.9424 39.35 68.0424 37.55 69.8424 35.3C70.5924 34.25 71.7924 33.5 72.8424 32.6C72.9924 32.75 73.1424 32.9 73.2924 33.05C72.2424 34.25 71.1924 35.45 70.1424 36.65C70.2924 36.8 70.4424 36.95 70.5924 37.1C70.8924 36.8 71.1924 36.5 71.4924 36.2C71.7924 35.9 72.0924 35.6 72.3924 35.45C73.8924 34.85 75.3924 34.25 76.8924 33.65C77.0424 33.65 77.0424 33.5 77.1924 33.35C77.9424 32.6 78.5424 31.7 79.4424 31.25C83.1924 29.45 85.5924 25.85 89.3424 24.05C90.0924 23.75 90.8424 23.6 91.4424 23.45C92.0424 22.85 92.4924 22.1 93.0924 21.65C94.2924 20.75 95.6424 20 96.8424 19.25C99.8424 17.3 102.842 15.35 105.842 13.4L105.992 13.7C107.042 13.55 107.942 13.4 108.842 13.25C109.892 13.1 110.942 12.95 111.842 12.5C112.742 12.05 113.492 11.15 114.392 10.85C116.042 10.25 117.842 9.95 119.492 9.49999C120.092 9.35 120.692 8.89999 121.292 8.6C121.592 8.6 122.042 8.74999 122.342 8.6C125.492 7.39999 128.642 7.69999 131.792 7.85C133.142 7.85 134.192 8.74999 134.042 9.95C133.442 13.1 133.292 16.4 131.792 19.4C131.642 19.85 131.492 20.3 131.342 20.75C130.592 23.6 129.392 26.15 127.142 28.25C126.542 28.85 126.242 29.6 126.992 30.65C128.642 28.25 130.292 26 132.242 23.3C132.092 24.05 132.092 24.35 131.942 24.5C130.442 27.5 129.092 30.65 127.292 33.5C125.342 36.8 123.092 39.8 120.842 42.95C118.742 45.95 116.642 48.95 114.392 51.8C111.392 55.7 108.242 59.6 105.092 63.5C100.592 69.05 96.0924 74.6 91.5924 80.15C91.1424 80.75 90.3924 81.2 89.9424 81.8C89.3424 82.55 88.8924 83.45 88.2924 84.2C86.9424 85.7 85.1424 86.9 84.3924 88.55C83.7924 89.9 82.7424 90.8 81.9924 91.85C80.7924 93.5 79.2924 95 77.7924 96.5C76.5924 97.55 75.2424 98.45 73.8924 99.5C73.7424 99.35 73.5924 99.2 73.4424 99.05C73.7424 98.3 73.8924 97.4 74.3424 96.8C76.5924 93.95 78.8424 91.25 81.0924 88.55C81.5424 87.95 82.2924 87.65 82.7424 87.05C83.7924 85.7 84.8424 84.35 85.8924 83C89.3424 78.8 92.7924 74.6 96.2424 70.4C98.4924 67.7 100.742 65 102.992 62.3C104.042 61.1 105.092 59.9 105.992 58.55C106.442 57.95 106.742 57.2 107.192 56.45C105.842 57.35 104.642 58.25 103.742 59.3C101.792 61.85 100.142 64.55 98.1924 66.95C96.6924 68.75 95.0424 70.4 93.5424 72.2C88.7424 77.75 83.9424 83.45 78.9924 89C78.0924 90.05 76.8924 90.8 75.8424 91.7C76.1424 90.35 76.8924 89.3 77.3424 88.1C77.6424 87.2 77.4924 86.15 77.7924 85.25C78.2424 83.9 78.9924 82.7 79.4424 81.35C79.8924 79.85 80.1924 78.35 80.6424 76.85C81.0924 75.65 81.5424 74.45 81.9924 73.25C82.2924 72.35 82.7424 71.45 83.1924 70.55C83.6424 69.2 84.0924 67.85 84.6924 66.2C85.2924 66.95 85.5924 67.4 86.0424 68C86.6424 66.65 87.5424 65.45 87.5424 64.25C87.3924 61.85 86.9424 59.6 87.5424 57.2C87.6924 56.6 87.5424 55.7 87.2424 55.1C85.2924 51.8 82.5924 49.25 79.1424 47.6C78.5424 47.3 77.7924 47.15 77.0424 47.15C76.7424 47.15 76.1424 47.9 76.1424 48.05C77.1924 50.15 76.2924 52.25 75.8424 54.2C75.0924 57.65 74.0424 61.1 72.9924 64.55C71.6424 69.05 70.2924 73.55 68.9424 78.05C67.8924 81.35 66.8424 84.65 65.7924 87.95C65.1924 90.05 64.5924 92.15 63.9924 94.25C65.7924 95 65.9424 93.95 66.2424 93.2C66.5424 92.3 66.5424 91.4 66.8424 90.5C67.8924 87.65 68.9424 84.8 69.9924 81.95C70.5924 80.45 71.1924 78.95 71.7924 77.45C71.9424 77.45 72.0924 77.45 72.2424 77.45C72.2424 77.75 72.2424 78.05 72.0924 78.35C71.3424 80.75 70.5924 83.15 69.8424 85.55C68.7924 89.3 67.7424 93.05 66.6924 96.8C66.3924 97.85 66.2424 98.9 65.9424 99.95C65.4924 101.45 64.7424 102.95 64.2924 104.45C63.3924 107.75 62.4924 111.05 61.7424 114.35C61.1424 117.2 60.6924 120.05 60.0924 122.9C59.9424 124.1 59.7924 125.3 59.6424 126.5C59.4924 126.5 59.3424 126.5 59.1924 126.5C59.1924 124.4 59.0424 122.3 59.3424 120.2C59.6424 117.65 60.2424 115.1 60.6924 112.55C60.9924 110.75 61.2924 108.95 61.5924 107C60.3924 106.4 59.9424 106.55 59.7924 107.9C59.6424 109.1 59.4924 110.3 59.3424 111.5C59.0424 112.85 58.7424 114.2 58.4424 115.55C57.5424 119.3 57.5424 123.05 57.5424 126.8C57.5424 127.4 57.9924 128 58.2924 128.6C58.4424 128.9 58.7424 129.35 58.5924 129.5C57.3924 131.9 59.0424 133.85 59.7924 135.65C60.8424 137.9 62.6424 139.7 64.2924 141.65C65.7924 143.45 68.0424 143.9 70.1424 144.2C71.0424 144.35 71.9424 143.45 72.8424 143C73.5924 142.55 74.3424 142.1 75.0924 141.65C75.6924 141.35 76.2924 141.05 76.8924 140.75C76.8924 140.6 76.8924 140.45 76.8924 140.3C76.2924 140.45 75.6924 140.45 75.2424 140.6C72.9924 141.35 70.7424 141.95 68.3424 141.35C67.8924 141.2 67.1424 141.05 66.9924 140.75C66.5424 139.55 66.2424 138.35 66.0924 137.15C65.4924 133.7 65.3424 130.25 65.9424 126.8C66.2424 125 66.3924 123.2 66.6924 121.4C67.1424 119.15 67.8924 116.9 68.1924 114.5C68.3424 113.15 68.4924 112.1 69.6924 111.65C70.2924 111.8 71.0424 112.1 71.4924 111.8C75.9924 108.95 80.4924 106.1 84.8424 103.1C87.3924 101.3 89.6424 99.2 92.6424 98.45C93.3924 98.3 94.1424 98 94.7424 97.7C100.142 94.55 105.692 91.7 111.992 90.5C115.592 89.75 119.042 90.05 122.492 89.9C123.242 89.9 124.142 90.35 124.892 90.65C126.092 90.95 126.392 91.85 126.242 92.9C126.092 93.95 125.942 95 125.642 96.05C125.192 98.15 125.342 100.4 124.142 102.35C123.392 103.4 123.092 104.75 122.642 105.95C122.792 106.1 122.942 106.25 123.092 106.4C123.392 105.8 123.692 105.2 123.992 104.6C123.392 107.3 122.642 109.85 121.592 112.25C120.692 114.35 119.342 116.3 118.142 118.25C117.092 119.9 116.042 121.55 114.842 123.05C114.542 123.5 113.792 123.65 113.192 123.95C113.042 123.8 112.892 123.65 112.742 123.5C112.292 124.1 111.842 124.7 111.092 125.6C111.992 125.15 112.442 125 112.892 124.85C113.042 125 113.192 125.15 113.342 125.3C112.442 126.35 111.692 127.4 110.792 128.3C107.042 132.35 103.442 136.7 99.3924 140.6C95.7924 144.05 91.8924 147.2 87.8424 150.05C84.2424 152.6 80.4924 154.85 76.5924 156.95C73.8924 158.3 71.0424 159.5 67.7424 158.45C67.8924 158.15 68.0424 157.85 68.1924 157.85C69.8424 158 70.8924 156.8 72.0924 156.05C75.2424 154.1 78.5424 152.45 81.6924 150.5C84.9924 148.4 88.1424 146 91.2924 143.6C93.6924 141.8 96.0924 139.85 98.3424 137.75C100.892 135.35 103.292 132.8 105.692 130.25C108.692 127.1 111.692 123.95 114.542 120.65C116.342 118.55 117.992 116.15 119.642 113.9C120.392 113 120.992 111.95 121.592 110.9C121.442 110.75 121.292 110.6 121.142 110.45C120.842 110.75 120.542 111.05 120.242 111.35C119.792 111.95 119.492 112.7 119.042 113.3C117.092 115.55 114.842 117.5 113.342 119.9C110.642 123.95 107.192 127.4 103.742 130.7C100.142 134 97.1424 137.9 92.9424 140.45C92.7924 140.6 92.6424 140.75 92.4924 140.9C90.2424 142.7 88.1424 144.65 85.7424 146.3C82.4424 148.55 79.1424 150.65 75.6924 152.45C73.5924 153.65 71.1924 154.4 68.4924 155.45C69.0924 153.65 70.1424 152.3 69.8424 151.4C69.2424 149.75 70.4424 149.15 71.0424 148.25C71.3424 147.65 71.9424 147.2 72.3924 146.75C70.7424 147.8 69.2424 149 67.8924 150.35C66.6924 151.55 65.6424 153.05 64.2924 154.25C63.6924 154.85 63.5424 155.3 63.9924 155.9C64.5924 156.95 65.1924 158 65.9424 158.9C67.4424 160.7 68.9424 162.5 70.5924 164.15C71.1924 164.75 72.3924 164.9 73.2924 164.75C75.3924 164.3 77.4924 163.85 79.4424 162.95C81.9924 161.75 84.3924 159.95 86.9424 158.75C91.2924 156.8 94.8924 153.8 98.6424 150.95C101.642 148.55 104.342 145.85 107.192 143.3C109.292 141.35 111.392 139.25 113.492 137.3C113.942 136.85 114.392 136.4 114.842 135.95C116.492 134.3 118.142 132.65 119.642 131C120.692 129.8 121.592 128.45 122.492 127.1C122.942 126.5 123.242 125.75 123.842 124.7C124.892 124.55 125.342 123.5 125.642 122.15C125.792 121.25 126.542 120.5 126.992 119.75C127.442 119 128.042 118.4 128.342 117.65C128.942 116 129.992 114.65 130.442 112.85C130.892 110.6 132.242 108.5 132.842 106.25C133.442 104 133.742 101.6 133.742 99.35C133.742 97.1 132.992 95 131.342 93.2C129.842 91.55 128.492 89.75 126.992 88.1C124.592 85.55 121.892 83.45 118.442 83C116.342 82.7 114.242 82.55 112.142 82.55C108.392 82.7 104.792 83.45 101.342 84.95C98.9424 85.85 96.3924 86.45 93.9924 87.2C93.8424 87.05 93.6924 86.9 93.5424 86.75C94.1424 85.7 94.5924 84.5 95.4924 83.75C97.5924 82.1 99.3924 80.3 100.742 78.05C101.642 76.7 102.692 75.35 103.742 74.15C105.242 72.35 107.192 70.85 108.092 68.45C108.392 67.85 108.842 67.1 109.442 66.8C110.942 65.9 111.242 64.85 110.792 63.35C110.792 63.2 110.942 63.05 111.092 62.9C111.542 63.2 111.842 63.5 112.142 63.65C113.042 62.6 113.792 61.7 114.542 60.8C116.192 58.55 116.192 58.55 115.892 57.8C115.442 57.95 114.992 58.1 114.542 58.25C114.542 58.1 114.542 57.95 114.542 57.8C114.992 57.2 115.442 56.6 116.042 55.85C116.642 56.45 117.392 57.5 118.142 56.15C119.042 54.65 119.942 53.3 120.992 51.95C123.092 49.4 124.892 46.55 126.842 43.85C128.042 42.2 129.392 40.55 130.592 38.9C131.042 38.3 131.342 37.55 131.792 36.95C133.292 34.7 134.792 32.6 136.292 30.5C137.042 29.3 138.242 28.25 138.692 26.9C139.592 24.2 140.042 21.35 140.492 18.5C140.642 17.6 140.192 16.7 140.192 15.8L139.892 16.85ZM30.6924 74C31.1424 73.25 31.5924 72.5 32.0424 71.6C34.1424 73.1 34.2924 70.1 36.2424 69.95C34.5924 71.9 33.8424 74.45 30.6924 74ZM41.1924 61.25C41.0424 61.1 40.8924 60.95 40.7424 60.8C41.4924 59.75 42.2424 58.7 42.9924 57.65C43.1424 57.8 43.2924 57.95 43.4424 58.1C42.6924 59.15 41.9424 60.2 41.1924 61.25ZM44.3424 59.75C44.1924 58.1 45.6924 56.6 47.3424 56.6C46.2924 57.8 45.3924 58.7 44.3424 59.75ZM49.4424 50.75C50.7924 49.1 51.8424 47.75 52.8924 46.4C53.0424 46.55 53.1924 46.7 53.3424 46.85C52.5924 47.9 51.8424 48.95 50.9424 50.3C51.8424 49.85 52.2924 49.55 52.7424 49.25C52.1424 50.75 50.7924 50.45 49.1424 50.6L49.4424 50.75ZM52.8924 49.25C53.3424 48.05 54.0924 47 55.4424 46.7C55.5924 46.85 55.7424 47 55.8924 47.15C54.8424 47.75 53.7924 48.35 52.7424 48.95L52.8924 49.25ZM57.6924 42.2C57.5424 42.05 57.3924 41.9 57.2424 41.75C57.8424 41 58.4424 40.25 59.0424 39.5C59.1924 39.65 59.3424 39.8 59.4924 39.95C58.8924 40.7 58.2924 41.45 57.6924 42.2ZM64.4424 36.05C63.6924 36.5 62.9424 36.95 61.7424 37.7C62.6424 36.65 63.2424 35.9 63.8424 35.3C63.9924 35.15 64.2924 35 64.5924 35C64.7424 35 65.0424 35.3 65.0424 35.45C65.0424 35.75 64.8924 36.05 64.7424 36.2L64.4424 36.05ZM68.9424 34.1C68.1924 34.55 67.5924 34.85 66.9924 35.15C66.8424 32.9 67.5924 31.55 69.2424 30.8C69.3924 30.95 69.5424 31.1 69.6924 31.25C69.2424 32 68.7924 32.75 68.1924 33.5C68.1924 33.5 68.4924 33.8 68.9424 34.1ZM75.6924 27.8C75.5424 26.9 75.3924 26.3 75.2424 25.4C75.8424 25.7 76.2924 25.85 76.8924 26.15C77.1924 25.7 77.3424 25.25 77.4924 24.8C77.9424 24.95 78.3924 25.1 79.2924 25.4C77.9424 26.3 76.8924 27.05 75.5424 27.95L75.6924 27.8ZM78.9924 27.05C80.0424 26.15 80.9424 25.55 81.9924 24.8C82.1424 25.4 82.2924 25.85 82.2924 26.15C81.2424 26.45 80.3424 26.75 78.9924 27.2V27.05ZM91.8924 16.55C88.8924 18.65 85.7424 20.6 82.7424 22.7C81.8424 23.3 81.2424 23.45 80.7924 22.4C80.7924 23.6 80.4924 24.65 78.6924 24.5C79.4424 23.6 78.8424 21.65 80.9424 22.1C80.7924 20.45 81.8424 20.45 83.0424 20.6C82.5924 18.35 84.0924 19.55 84.9924 19.7C85.1424 19.25 85.2924 18.8 85.4424 18.35C86.0424 18.2 86.6424 18.05 87.0924 18.05C87.3924 17.15 87.6924 16.55 87.9924 15.95C88.1424 15.95 88.2924 15.95 88.4424 15.95C88.4424 16.4 88.4424 16.85 88.4424 17.3C88.8924 17.3 89.3424 17.3 89.6424 17.15C90.2424 16.85 90.6924 16.25 91.2924 15.95C91.7424 15.65 92.3424 15.5 92.7924 15.35C92.7924 15.5 92.7924 15.65 92.7924 15.8C92.4924 16.1 92.1924 16.4 91.8924 16.55ZM95.0424 17.6C96.0924 16.25 96.9924 15.05 97.8924 13.85C97.8924 15.95 96.8424 17.15 95.0424 17.45V17.6ZM100.442 11.15C99.0924 11.75 97.8924 12.65 96.5424 13.4C95.7924 13.7 95.0424 13.85 94.2924 14.15C94.2924 14 94.2924 13.85 94.2924 13.7C95.9424 12.5 97.5924 11.3 99.2424 10.1C99.9924 9.64999 100.742 9.2 101.492 8.74999C101.642 8.6 101.792 8.45 101.942 8.45C103.142 8.45 104.342 8.45 105.542 8.45C105.542 8.6 105.542 8.74999 105.542 8.89999C103.892 9.64999 102.242 10.25 100.592 11L100.442 11.15ZM110.792 6.19999C110.642 6.04999 110.492 5.89999 110.342 5.75C110.792 5.15 111.242 4.54999 111.392 4.24999C113.192 3.94999 114.692 3.65 116.192 3.34999C116.192 3.49999 116.192 3.65 116.192 3.8C114.392 4.54999 112.592 5.29999 110.792 6.04999V6.19999ZM86.1924 90.8C86.0424 90.65 85.8924 90.5 85.7424 90.35C87.0924 88.85 88.4424 87.35 89.7924 85.85C89.9424 86 90.0924 86.15 90.2424 86.3C88.8924 87.8 87.5424 89.3 86.1924 90.8ZM123.242 115.1C123.092 114.95 122.942 114.8 122.792 114.65C123.992 112.4 125.192 110.15 126.392 107.9C126.542 107.9 126.692 107.9 126.842 107.9C125.792 110.15 124.742 112.4 123.692 114.65L123.242 115.1ZM93.5424 80.3C93.3924 80.3 93.2424 80.3 93.0924 80.3C93.0924 80.15 93.0924 80 93.2424 79.85C94.2924 78.5 95.3424 77.15 96.3924 75.8C96.5424 75.95 96.6924 76.1 96.8424 76.25C95.7924 77.75 94.7424 79.25 93.6924 80.75L93.5424 80.3ZM110.942 61.7C110.792 60.2 113.942 56 116.342 54.65C114.542 56.9 112.742 59.15 110.942 61.55V61.7ZM117.092 53.45C116.942 53.3 116.792 53.15 116.642 53C117.392 52.1 118.142 51.2 118.892 50.3C119.042 50.45 119.192 50.6 119.342 50.75C118.592 51.65 117.842 52.55 117.092 53.45ZM118.442 49.1C116.042 52.25 113.642 55.25 111.242 58.4C108.992 61.4 106.742 64.4 104.492 67.4C104.642 67.55 104.792 67.7 104.942 67.85C106.592 66.05 108.242 64.25 109.892 62.45C110.042 62.6 110.192 62.75 110.342 62.9C105.842 68.6 101.342 74.3 96.8424 80C96.6924 79.85 96.5424 79.7 96.3924 79.55C96.8424 78.8 97.2924 78.05 97.8924 77.3C98.4924 76.55 99.0924 75.8 99.6924 75.05C100.292 74.3 100.892 73.55 99.3924 73.25C107.942 61.85 116.492 50.6 125.042 39.35C125.192 39.5 125.342 39.65 125.492 39.8C123.242 42.95 121.142 46.1 118.892 49.1H118.442ZM126.242 41.45C126.092 41.3 125.942 41.15 125.792 41C126.092 40.55 126.392 40.1 126.692 39.65C125.642 38.15 126.392 36.35 128.642 35.6C128.342 35.9 128.042 36.2 127.742 36.65C127.442 37.1 127.292 37.55 127.142 38C127.292 38.15 127.442 38.3 127.592 38.45C128.642 37.1 129.692 35.75 130.742 34.4C130.892 34.55 131.042 34.7 131.192 34.85C129.542 37.1 127.892 39.35 126.242 41.6V41.45ZM129.092 34.85C128.942 34.7 128.792 34.55 128.642 34.4C129.542 33.05 130.442 31.7 131.342 30.35C131.492 30.5 131.642 30.65 131.792 30.8C130.892 32.15 129.992 33.5 129.092 34.85ZM63.0924 106.55C61.7424 102.35 64.7424 99.95 65.7924 97.25C65.3424 96.5 65.0424 96.05 64.2924 95C63.0924 98.75 62.0424 102.05 60.9924 105.5C61.5924 105.8 62.0424 106.1 62.9424 106.55H63.0924ZM69.6924 37.55C69.3924 37.85 69.0924 38.15 68.7924 38.45C66.8424 40.25 64.8924 42.05 62.9424 43.85C63.0924 44 63.2424 44.15 63.3924 44.3C64.1424 43.7 64.8924 43.25 65.4924 42.65C67.1424 41.15 68.7924 39.65 70.4424 38.15C70.5924 38 70.4424 37.4 70.4424 36.95C70.1424 37.1 69.8424 37.25 69.5424 37.4L69.6924 37.55ZM119.642 39.5C119.042 40.7 118.892 42.2 117.242 42.8C116.792 42.95 116.642 43.85 116.342 44.45C116.492 44.6 116.642 44.75 116.792 44.9C118.442 42.8 120.092 40.7 121.892 38.45C120.392 37.85 120.092 38.75 119.642 39.5ZM111.242 51.95C112.592 50.45 113.942 48.95 115.592 47.15C113.492 47.45 111.242 50 111.242 52.25V51.95ZM122.642 37.7C122.642 37.25 122.792 36.8 122.642 36.5C122.492 36.2 121.892 35.9 121.742 36.05C121.292 36.35 120.992 36.8 120.542 37.25C120.692 37.4 120.842 37.55 120.992 37.7C121.442 37.4 121.892 37.1 122.492 36.8C122.492 37.25 122.492 37.55 122.492 37.85C122.642 37.85 122.792 37.85 122.942 37.85L122.642 37.7ZM110.342 52.55C110.042 53.15 109.742 53.75 109.442 54.35C109.742 54.5 110.042 54.65 110.342 54.8C110.642 54.2 110.942 53.6 111.242 53C111.242 53 110.792 52.7 110.492 52.55H110.342ZM104.492 68.3C103.592 69.5 102.692 70.7 101.642 72.05C102.992 71.9 104.492 70.1 104.492 68.3ZM185.171 117.95C184.571 118.4 183.971 119 183.371 119.45C182.171 120.35 180.971 121.25 179.771 122.15C178.721 122.9 177.521 123.5 176.471 124.1C176.321 123.95 176.171 123.8 176.021 123.65C177.221 122.75 178.421 121.85 179.921 120.8C179.321 120.8 179.021 120.65 178.871 120.8C177.371 121.7 175.871 122.6 174.371 123.5C171.821 125.15 169.271 126.8 166.721 128.6C165.521 129.5 164.471 130.55 163.121 131.3C162.221 131.75 160.571 131.15 160.721 133.1C160.721 133.1 160.421 133.25 160.271 133.4C158.771 134.15 157.271 134.75 155.921 135.5C152.921 137.3 149.771 138.8 146.321 139.1C145.121 139.25 143.621 139.7 142.871 138.05C141.371 134.75 141.971 131.45 142.871 128.15C143.321 126.2 143.771 124.25 144.371 122.3C144.521 121.55 144.821 120.8 145.121 120.05C145.721 120.65 146.471 121.1 147.071 121.7C148.421 123.35 151.121 123.8 152.621 122.45C156.071 119.3 159.671 116.15 162.821 112.7C164.621 110.75 167.021 108.95 167.321 105.8C167.321 105.65 167.471 105.5 167.621 105.35C169.721 104.3 169.721 101.9 170.321 100.25C171.071 98.45 170.621 95.9 170.171 93.8C169.421 90.35 166.571 88.25 164.021 86.15C162.521 84.95 160.721 84.65 159.071 85.55C156.521 86.75 153.971 87.95 151.721 89.6C149.771 90.95 147.971 92.6 146.471 94.55C144.521 96.95 142.871 99.65 141.221 102.35C140.321 103.7 139.721 105.2 138.971 106.7C137.621 109.4 136.121 112.1 134.921 114.8C134.171 116.45 134.021 118.4 133.421 120.2C132.071 124.1 132.521 128.15 134.021 131.75C135.821 136.1 137.771 140.75 141.671 143.9C144.371 146.15 147.221 148.4 150.971 148.25C152.471 148.1 154.121 147.8 155.621 147.35C156.971 146.9 158.321 146.15 159.521 145.4C160.121 145.1 160.571 144.5 161.171 144.05C163.721 142.25 166.271 140.6 168.821 138.8C170.021 137.9 171.671 137 171.971 135.8C172.421 134 173.921 133.55 174.821 132.35C175.271 131.75 175.871 131.3 176.321 130.7C177.971 128.6 179.471 126.5 180.971 124.4C181.271 124.1 181.571 123.8 181.871 123.5C182.921 122.45 184.121 121.55 185.171 120.35C186.071 119.45 186.671 118.25 187.421 117.2C187.271 117.05 187.121 116.9 186.971 116.75C186.371 117.05 185.771 117.35 185.171 117.8V117.95ZM147.371 113.15C147.971 111.8 148.721 110.45 149.471 109.1C149.621 108.8 149.771 108.35 150.071 108.05C151.121 107 152.171 105.95 151.421 104.75C152.621 103.7 153.971 103.1 154.271 102.05C155.321 99.35 157.571 97.85 159.671 96.2C161.021 95.15 162.521 94.25 164.021 93.35C164.921 92.75 165.371 93.05 165.371 94.1C165.221 97.25 164.021 99.95 161.921 102.35C161.021 103.4 160.271 104.75 159.371 105.8C158.771 106.4 157.871 106.7 157.121 107.3C155.321 108.8 153.521 110.45 151.721 111.95C150.221 113.15 148.721 114.35 147.221 115.55C147.071 115.4 146.921 115.25 146.771 115.1C147.071 114.35 147.221 113.6 147.521 112.85L147.371 113.15ZM171.821 125.6C172.571 125.45 173.321 125.3 174.071 125.15C174.071 125.3 174.071 125.45 174.071 125.6C173.471 126.5 172.721 126.35 171.821 125.45V125.6ZM186.671 113.3C188.471 113.15 189.371 112.1 189.671 110.6C188.621 111.5 187.571 112.4 186.521 113.3H186.671ZM226.598 132.35C225.398 132.8 224.198 132.2 224.198 131.15C224.348 129.95 224.198 128.75 224.348 127.55C224.498 126.65 225.098 125.9 225.248 125C225.398 123.5 225.248 122 225.548 120.65C225.998 118.4 226.598 116.15 227.348 114.05C227.798 112.7 228.548 111.5 227.948 110C227.798 109.7 228.098 109.1 228.248 108.65C228.548 107.6 228.998 106.55 228.998 105.5C228.998 104.45 228.548 103.25 228.698 102.2C229.448 98.3 229.148 94.85 225.998 92C225.698 91.7 225.848 90.95 225.698 90.35C225.548 89.9 225.398 89.3 225.098 89.15C224.048 88.55 222.848 88.1 221.648 87.65C221.348 87.5 220.748 87.35 220.598 87.05C219.998 85.25 218.348 85.4 216.998 85.25C213.548 84.65 211.898 87.5 209.648 89.3C209.348 89.45 209.348 89.9 209.198 90.35C210.848 89.9 211.298 87.8 213.548 88.25C210.548 91.1 207.848 93.65 205.148 96.2C205.298 96.2 205.448 96.2 205.598 96.2C205.448 96.8 205.448 97.55 205.148 98C204.548 99.05 203.648 99.95 202.898 100.85C202.598 101.15 202.298 101.45 201.998 101.75H201.848C202.148 101 202.448 100.25 202.748 99.5C202.598 99.5 202.448 99.5 202.298 99.5C202.298 100.7 200.198 101.15 201.248 102.95C197.198 105.5 195.098 109.85 192.398 113.75C192.248 113.75 192.098 113.75 191.948 113.75C192.098 113.3 192.248 112.85 192.398 112.4C192.998 110.6 193.748 108.8 194.348 107C195.848 101.9 197.498 96.8 198.698 91.55C199.148 89.75 198.398 87.8 198.098 85.85C198.098 85.7 197.948 85.55 197.798 85.55C197.048 84.8 196.298 84.05 195.398 83.3C194.048 82.25 192.998 82.4 192.248 83.9C191.348 85.7 190.598 87.5 189.848 89.45C189.098 91.7 188.348 93.95 187.598 96.2C186.548 99.5 185.498 102.8 184.448 106.1C182.648 111.65 180.998 117.35 179.048 122.9C177.398 127.7 175.748 132.5 175.598 137.6C175.598 138.2 175.298 138.95 175.448 139.4C176.648 141.5 177.248 144.05 179.198 145.7C179.948 146.45 180.998 146.9 182.048 147.35C183.548 148.1 184.148 147.05 184.748 145.85C184.898 145.4 185.498 145.1 185.798 144.65C186.248 144.05 186.548 143.3 186.848 142.55C188.348 139.55 189.398 136.25 191.348 133.7C192.998 131.6 194.348 129.35 195.698 127.1C197.648 123.65 199.298 120.05 201.398 116.75C203.648 113.3 206.198 110 208.598 106.7C209.648 105.35 211.148 104.3 212.048 102.8C213.698 99.95 216.398 98.45 218.798 96.65C219.248 96.35 219.698 96.2 220.148 96.05C220.148 96.5 220.148 96.95 220.148 97.4C220.148 98.45 220.148 99.5 220.148 100.55C220.148 101.15 220.298 101.9 220.148 102.5C219.548 105.35 218.798 108.2 218.198 111.05C217.898 112.1 218.048 113.15 217.748 114.2C216.548 118.7 215.648 123.2 216.098 127.85C216.548 131.9 218.498 135.05 221.198 137.9C222.698 139.4 224.048 139.25 225.548 137.9C226.298 137.15 227.048 136.55 227.798 135.95C227.948 135.8 228.398 135.65 228.398 135.5C227.948 133.4 229.898 132.8 230.648 131.45C230.948 131 231.248 130.7 231.548 130.25C229.748 130.7 228.248 131.3 226.748 131.9L226.598 132.35ZM205.148 104.15C201.398 109.1 198.098 114.35 194.498 119.45C194.348 119.3 194.198 119.15 194.048 119C195.398 117.05 196.748 115.1 197.948 113.15C199.148 111.2 200.348 109.1 201.698 107.15C202.148 106.4 202.898 105.8 203.498 105.2C203.798 104.75 204.098 104.3 204.248 103.85C204.848 102.5 205.448 101.15 206.048 99.8C206.198 99.5 206.498 99.05 206.798 98.9C208.598 98.15 209.798 96.8 210.698 95C210.848 94.85 211.298 94.85 211.598 94.7C212.048 94.4 212.648 94.25 212.798 93.8C213.548 91.55 215.948 91.25 217.598 89.9C213.548 94.55 209.198 99.05 205.448 104L205.148 104.15ZM282.437 117.95C281.837 118.4 281.237 119 280.637 119.45C279.437 120.35 278.237 121.25 277.037 122.15C275.987 122.9 274.787 123.5 273.737 124.1C273.587 123.95 273.437 123.8 273.287 123.65C274.487 122.75 275.687 121.85 277.187 120.8C276.587 120.8 276.287 120.65 276.137 120.8C274.637 121.7 273.137 122.6 271.637 123.5C269.087 125.15 266.537 126.8 263.987 128.6C262.787 129.5 261.737 130.55 260.387 131.3C259.487 131.75 257.837 131.15 257.987 133.1C257.987 133.1 257.687 133.25 257.537 133.4C256.037 134.15 254.537 134.75 253.187 135.5C250.187 137.3 247.037 138.8 243.587 139.1C242.387 139.25 240.887 139.7 240.137 138.05C238.637 134.75 239.237 131.45 240.137 128.15C240.587 126.2 241.037 124.25 241.637 122.3C241.787 121.55 242.087 120.8 242.387 120.05C242.987 120.65 243.737 121.1 244.337 121.7C245.687 123.35 248.387 123.8 249.887 122.45C253.337 119.3 256.937 116.15 260.087 112.7C261.887 110.75 264.287 108.95 264.587 105.8C264.587 105.65 264.737 105.5 264.887 105.35C266.987 104.3 266.987 101.9 267.587 100.25C268.337 98.45 267.887 95.9 267.437 93.8C266.687 90.35 263.837 88.25 261.287 86.15C259.787 84.95 257.987 84.65 256.337 85.55C253.787 86.75 251.237 87.95 248.987 89.6C247.037 90.95 245.237 92.6 243.737 94.55C241.787 96.95 240.137 99.65 238.487 102.35C237.587 103.7 236.987 105.2 236.237 106.7C234.887 109.4 233.387 112.1 232.187 114.8C231.437 116.45 231.287 118.4 230.687 120.2C229.337 124.1 229.787 128.15 231.287 131.75C233.087 136.1 235.037 140.75 238.937 143.9C241.637 146.15 244.487 148.4 248.237 148.25C249.737 148.1 251.387 147.8 252.887 147.35C254.237 146.9 255.587 146.15 256.787 145.4C257.387 145.1 257.837 144.5 258.437 144.05C260.987 142.25 263.537 140.6 266.087 138.8C267.287 137.9 268.937 137 269.237 135.8C269.687 134 271.187 133.55 272.087 132.35C272.537 131.75 273.137 131.3 273.587 130.7C275.237 128.6 276.737 126.5 278.237 124.4C278.537 124.1 278.837 123.8 279.137 123.5C280.187 122.45 281.387 121.55 282.437 120.35C283.337 119.45 283.937 118.25 284.687 117.2C284.537 117.05 284.387 116.9 284.237 116.75C283.637 117.05 283.037 117.35 282.437 117.8V117.95ZM244.637 113.15C245.237 111.8 245.987 110.45 246.737 109.1C246.887 108.8 247.037 108.35 247.337 108.05C248.387 107 249.437 105.95 248.687 104.75C249.887 103.7 251.237 103.1 251.537 102.05C252.587 99.35 254.837 97.85 256.937 96.2C258.287 95.15 259.787 94.25 261.287 93.35C262.187 92.75 262.637 93.05 262.637 94.1C262.487 97.25 261.287 99.95 259.187 102.35C258.287 103.4 257.537 104.75 256.637 105.8C256.037 106.4 255.137 106.7 254.387 107.3C252.587 108.8 250.787 110.45 248.987 111.95C247.487 113.15 245.987 114.35 244.487 115.55C244.337 115.4 244.187 115.25 244.037 115.1C244.337 114.35 244.487 113.6 244.787 112.85L244.637 113.15ZM269.087 125.6C269.837 125.45 270.587 125.3 271.337 125.15C271.337 125.3 271.337 125.45 271.337 125.6C270.737 126.5 269.987 126.35 269.087 125.45V125.6ZM283.937 113.3C285.737 113.15 286.637 112.1 286.937 110.6C285.887 111.5 284.837 112.4 283.787 113.3H283.937ZM316.585 108.35C312.685 110.6 308.335 112.1 304.735 115.1C304.735 114.95 304.735 114.65 304.735 114.35C303.385 115.1 302.035 115.85 300.835 116.75C300.385 117.05 300.085 117.65 299.635 118.1C298.585 118.55 297.235 118.85 296.185 119.45C294.235 120.65 292.435 122 290.485 123.5C290.335 122.9 290.185 122.6 290.335 122.45C291.535 120.05 292.885 117.65 294.085 115.1C296.185 110.75 298.135 106.25 300.085 101.75C300.835 99.95 301.435 98.15 302.035 96.35C302.635 94.25 303.235 92.15 303.835 90.2C304.885 87.2 306.085 84.2 306.985 81.2C307.735 78.65 308.185 75.95 308.635 73.25C308.785 72.2 308.935 71.15 308.935 70.1C308.935 66.8 308.935 63.5 308.635 60.2C308.485 58.7 307.585 57.2 307.285 55.7C306.535 51.5 303.535 49.25 300.085 47.45C299.935 47.3 299.335 47.45 299.185 47.6C298.435 49.4 297.685 51.2 297.085 53C296.185 56.3 295.435 59.6 294.535 62.9C293.635 65.9 292.585 68.9 291.685 71.9C291.535 72.5 291.685 73.25 291.685 73.85C291.835 73.85 291.985 73.85 292.135 73.85C292.585 73.1 293.035 72.35 293.485 71.6C293.635 71.6 293.785 71.6 293.935 71.6C293.785 72.05 293.785 72.5 293.635 72.95C293.335 73.7 292.885 74.45 292.735 75.2C291.985 77.9 291.385 80.6 290.635 83.15C288.685 89.75 286.585 96.35 284.635 102.95C283.585 106.25 282.835 109.7 281.935 113C281.185 115.55 280.285 118.1 279.535 120.65C278.335 125.15 277.285 129.65 276.085 134.15C275.785 135.5 275.185 136.85 274.735 138.2C274.585 138.2 274.435 138.2 274.285 138.2C274.285 137.75 274.285 137.3 274.285 136.85C274.135 136.85 273.985 136.85 273.835 136.85C273.385 138.35 272.935 139.85 272.335 141.65C273.985 141.2 274.585 141.8 274.435 143C274.285 143.9 273.985 144.8 273.835 145.7C273.085 148.7 272.335 151.7 271.735 154.7C271.285 157.1 270.985 159.5 270.535 161.9C269.785 165.35 269.035 168.8 268.435 172.25C267.835 175.25 267.385 178.25 266.935 181.25C266.635 183.65 266.335 186.2 266.035 188.75C265.885 189.95 265.735 191.15 265.585 192.35C265.435 192.35 265.285 192.35 265.135 192.35C264.685 186.8 265.735 181.4 266.485 175.85C266.035 176 265.585 176.3 265.435 176.6C265.135 178.1 264.835 179.6 264.685 181.1C264.385 184.25 264.385 187.4 264.085 190.4C263.635 194.3 264.235 198.2 265.135 201.95C265.735 204.65 266.635 207.35 268.435 209.75C269.785 211.55 271.135 213.05 273.685 213.95C275.935 210.95 278.185 207.95 280.435 204.95C280.285 204.8 280.135 204.65 279.985 204.5C277.135 205.55 275.035 208.1 271.585 208.4C271.735 206.6 270.385 205.25 270.535 203.3C270.685 200.75 269.635 198.2 270.535 195.65C270.685 195.35 270.535 195.05 270.535 194.75C270.535 192.95 270.385 191.15 270.535 189.35C270.685 187.25 270.985 185.15 271.285 183.05C271.435 181.55 271.735 180.05 272.035 178.55C272.335 177.05 272.485 175.55 272.635 174.05C272.485 174.05 272.335 174.05 272.185 174.05C272.635 173.75 273.085 173.45 273.235 173.3C273.535 171.65 273.835 170.3 273.985 168.95C274.135 167.45 274.285 165.95 274.435 164.45C274.435 164 274.585 163.7 274.735 163.4C275.335 161.45 275.935 159.5 276.385 157.55C276.535 156.8 276.385 156.05 276.535 155.45C276.835 154.55 277.435 153.8 277.585 152.9C278.035 151.1 278.185 149.15 278.785 147.35C279.535 144.95 279.985 142.25 281.485 140.45C284.635 136.7 288.235 133.25 291.985 129.95C295.135 127.25 298.735 125 302.035 122.6C304.135 121.1 306.235 119.6 308.335 118.1C308.485 117.95 308.785 117.65 308.785 117.5C308.335 115.85 309.685 115.25 310.585 114.65C312.685 113.15 314.935 111.95 317.035 110.6C317.485 110.3 317.785 109.85 318.085 109.4C317.935 109.25 317.785 109.1 317.635 108.95L316.585 108.35ZM268.585 185.6C268.435 185.6 268.285 185.6 268.135 185.6C268.585 182.75 269.035 179.9 269.485 177.05C269.635 177.05 269.785 177.05 269.935 177.05C269.485 179.75 269.035 182.45 268.585 185.15V185.6ZM273.235 165.2C273.085 164.9 272.935 164.6 272.485 163.85C272.035 164.75 271.735 165.35 271.435 165.95C271.585 165.05 271.735 164.15 271.885 163.1C272.635 163.1 273.085 163.1 273.835 163.1C273.685 163.7 273.535 164.3 273.385 164.9L273.235 165.2ZM273.235 158.75C273.085 158.75 272.935 158.75 272.785 158.75C272.935 157.1 273.085 155.45 273.235 153.8C273.385 153.8 273.535 153.8 273.685 153.8C273.385 155.3 273.085 156.95 272.785 158.45L273.235 158.75ZM303.085 86.3C303.385 84.95 303.685 83.6 303.985 82.25C304.135 81.5 304.285 80.75 304.735 80.15C303.835 82.1 304.735 84.65 302.935 86.3H303.085ZM286.885 117.05C286.885 116.75 286.885 116.45 286.885 116.15C287.035 115.25 287.185 114.35 287.335 113.45C287.335 113.15 287.335 112.7 287.485 112.4C287.785 111.65 288.385 110.9 288.385 110.15C288.535 109.1 288.235 108.05 288.085 106.7C288.385 106.7 288.985 106.7 289.435 106.7C289.885 105.5 290.785 104.3 290.785 103.1C290.785 101.45 291.385 99.95 291.835 98.45C292.435 96.5 293.335 94.7 294.085 92.75C294.085 92.6 294.235 92.45 294.235 92.3C293.785 89.6 295.435 87.5 295.885 85.1C296.335 82.85 297.535 80.75 298.285 78.65C298.885 77 299.185 75.2 299.785 73.55C300.535 71.6 301.435 69.65 302.335 67.7C303.235 65.75 304.135 63.95 303.835 61.55C303.685 59.75 304.435 57.8 305.035 56C306.535 58.55 306.535 61.4 306.535 64.1C306.385 69.95 305.335 75.65 303.535 81.2C302.785 83.6 302.185 86 301.735 88.55C302.185 87.8 302.635 87.05 303.085 86.3C302.785 87.5 302.485 88.7 302.185 90.2C301.735 89.6 301.435 89.3 301.135 89C296.635 98.3 292.135 107.6 287.635 116.9C287.485 116.9 287.335 116.9 287.185 116.9L286.885 117.05ZM278.485 124.1C278.935 122.6 279.235 121.1 279.535 119.6C279.985 117.65 280.435 115.7 280.885 113.75C281.185 112.4 281.485 111.05 281.785 109.7C281.635 109.7 281.485 109.7 281.335 109.7C281.185 110 280.885 110.3 280.735 110.75C279.535 115.1 278.485 119.45 277.435 123.8C277.285 124.1 277.585 124.55 277.735 124.85C278.035 124.55 278.485 124.4 278.635 124.1H278.485ZM287.485 92.15C285.835 93.05 282.985 101.9 283.585 104C285.835 100.55 286.135 96.5 287.485 92.45V92.15ZM267.685 173.3C268.285 170 268.885 166.7 269.485 163.25C269.335 163.1 269.185 162.8 269.035 162.5C268.735 162.8 268.285 162.95 268.285 163.25C267.985 164.75 267.835 166.25 267.535 167.75C267.235 169.55 266.785 171.35 266.485 173.15C266.485 173.45 266.785 173.9 266.935 174.35C267.235 174.05 267.835 173.75 267.835 173.45L267.685 173.3ZM270.385 158C270.235 158 270.085 158 269.935 158C268.735 159.35 268.585 160.25 269.785 162.05C270.085 160.55 270.235 159.35 270.385 158.15V158ZM272.935 144.95C272.785 144.95 272.635 144.95 272.485 144.95C272.035 146 271.285 147.05 272.635 148.4C272.785 147.35 272.935 146.3 273.085 145.25L272.935 144.95ZM292.585 75.35C292.135 76.7 291.685 78.05 291.235 79.7C293.185 77.15 293.635 76.55 292.435 75.5L292.585 75.35ZM271.435 150.5C271.135 151.55 270.835 152.3 270.535 153.05C272.485 152.6 272.635 152.15 271.435 150.65V150.5ZM334.236 119.75C334.386 119.45 334.536 119.15 334.686 118.85C334.986 119 335.286 119.15 335.286 119.15C336.786 116.75 338.286 114.5 339.786 112.25C339.186 112.4 338.736 112.7 338.436 113C335.586 116 332.736 119.15 329.886 122.15C327.636 124.55 325.386 126.95 323.136 129.2C321.336 131 319.386 132.8 317.436 134.6C315.936 135.95 314.136 137 311.886 137.15C312.036 136.1 312.036 135.05 312.036 134C312.186 132.35 312.036 130.7 312.486 129.2C313.236 126.65 314.286 124.25 315.186 121.7C315.936 119.6 316.386 117.2 317.436 115.25C319.086 112.25 319.386 108.8 321.036 105.8C321.786 104.45 322.086 102.95 322.536 101.45C323.136 99.95 323.736 98.45 322.686 96.8C322.386 96.2 321.936 95.6 321.786 95C321.186 92.6 319.536 91.1 317.436 90.2C316.686 89.9 315.486 89.6 315.036 90.95C314.286 93.65 313.686 96.35 312.786 98.9C312.036 101 310.986 103.1 310.236 105.2C309.486 107.3 308.736 109.4 307.986 111.5C306.936 114.8 305.886 118.1 304.836 121.4C303.786 124.85 303.186 128.6 303.636 132.2C304.086 135.05 304.386 138.5 307.836 140.3C309.636 141.2 310.986 143 312.786 144.05C314.136 144.8 316.086 145.4 317.436 144.95C319.836 144.2 321.636 142.4 323.286 140.45C324.036 139.55 323.886 137.6 326.136 138.2C325.686 137.6 325.536 137.3 325.536 137.3C326.286 136.25 326.886 135.35 327.636 134.15C327.786 134 328.386 133.7 328.986 133.4C328.836 132.95 328.536 132.35 328.686 132.2C329.586 131 330.186 129.65 330.786 128.15C331.236 127.25 332.286 126.5 332.886 125.6C333.786 124.4 334.686 123.05 335.586 121.85C336.936 120.05 338.286 118.25 339.486 116.45C339.786 116.15 339.936 115.7 340.086 115.4C339.486 115.4 339.186 115.7 338.886 116C336.936 118.4 334.986 120.8 332.886 123.2C332.586 123.5 331.986 123.65 331.536 123.8C332.586 122.6 333.636 121.4 334.536 120.2C334.836 119.9 334.836 119.3 334.986 118.85L334.236 119.75ZM330.786 126.05C329.886 126.95 328.836 127.7 327.786 128.6C327.636 128.45 327.486 128.3 327.336 128.15C328.686 126.8 330.036 125.45 331.386 124.1C331.086 124.85 330.936 125.75 330.486 126.2L330.786 126.05ZM340.836 54.65C338.586 52.25 335.886 50.6 332.736 49.85C332.136 49.7 331.386 50.3 330.786 50.6C331.536 52.25 330.186 53.6 329.886 55.1C329.436 57.35 328.836 59.6 328.086 61.7C327.036 64.85 325.686 68 324.636 71.15C324.186 72.65 324.036 74.3 323.736 76.25C323.886 76.85 324.036 77.9 324.486 78.8C324.786 79.55 325.536 80.15 326.136 79.1C327.186 77.45 327.936 75.65 328.836 74C329.286 73.1 329.886 71.75 330.636 71.6C332.586 71.15 333.786 69.5 334.386 68.3C335.436 66.2 336.486 64.25 337.986 62.45C339.336 60.8 340.236 58.85 341.436 57.05C342.036 56 341.886 55.1 341.136 54.35L340.836 54.65ZM408.17 60.95C408.02 60.8 407.87 60.65 407.87 60.5C408.02 58.1 406.07 57.8 404.42 57.5C402.47 57.05 400.52 56.9 398.57 56.6C398.57 56.45 398.57 56.15 398.72 55.85C397.07 56.75 395.87 56.6 395.27 55.55C394.67 55.7 394.07 56 393.47 56C389.12 55.85 384.77 55.55 380.42 55.4C379.97 55.4 379.37 55.85 379.07 56.3C378.47 57.05 377.72 57.2 376.82 56.45C377.27 56.3 377.72 56.15 378.17 56C378.17 55.85 378.17 55.7 378.17 55.55C376.97 55.55 375.77 55.55 374.57 55.55C374.57 55.7 374.57 55.85 374.57 56C375.02 56.15 375.47 56.3 375.92 56.45C375.92 56.6 375.92 56.75 375.92 56.9C373.97 56.9 372.02 56.9 370.07 56.9C370.37 56.75 370.82 56.6 371.27 56.45C371.27 56.3 371.27 56.15 371.27 56C369.62 56 367.97 56 366.32 56C366.32 56.15 366.32 56.3 366.32 56.45C367.07 56.6 367.82 56.75 368.57 56.9C368.57 57.05 368.57 57.2 368.57 57.35C367.52 57.35 366.47 57.35 365.27 57.35C365.57 57.05 365.72 56.75 365.87 56.45C365.12 56.3 364.52 56.15 363.92 56C364.07 55.25 364.22 54.5 364.52 53.75C366.47 48.2 368.57 42.65 370.52 37.1C371.12 35.6 371.87 33.95 371.72 32.45C371.57 30.8 371.12 28.85 369.02 28.1C367.97 27.8 367.07 27.2 366.17 26.75C364.22 25.7 363.02 26.3 362.87 28.55C362.87 29.15 362.72 29.75 362.57 30.35C361.67 32.9 360.92 35.6 359.87 38.15C359.12 39.95 359.87 42.35 357.77 43.7C357.62 43.85 357.47 44.45 357.62 44.6C358.67 46.25 357.17 47.45 356.87 48.8C356.12 51.65 354.92 54.35 353.87 57.05C353.57 57.8 353.12 58.7 352.52 59.15C351.77 59.6 350.72 59.6 349.82 59.75C348.77 59.9 347.72 59.9 346.67 59.9C346.67 59.9 346.67 59.6 346.67 59.45C345.62 60.05 344.57 60.95 343.52 61.1C342.47 61.25 341.27 60.65 339.92 60.35C340.22 62.3 339.17 62.9 336.47 62.3C337.52 62 338.42 61.7 339.47 61.4C337.97 60.65 333.77 61.4 332.57 62.3C332.12 62.6 331.37 62.6 330.77 62.75C330.47 62.9 330.17 63.05 329.57 63.2C330.32 63.35 330.62 63.5 330.92 63.65C330.92 63.8 330.92 63.95 330.92 64.1C330.17 64.1 329.42 64.1 328.52 63.95C328.37 64.1 328.07 64.4 327.92 64.55C326.57 64.4 325.52 64.25 324.47 64.1C324.17 64.25 323.72 64.85 323.27 64.85C321.17 64.85 319.52 66.05 317.27 66.05C314.87 66.05 312.47 67.25 310.22 68.15C307.97 69.05 305.87 70.25 303.77 71.3C302.12 72.05 300.32 72.65 298.67 73.55C298.22 73.85 297.62 74.75 297.77 75.2C298.07 76.55 298.67 77.9 299.27 79.25C299.72 80.15 300.32 80.3 301.22 79.7C303.32 78.35 305.42 77 307.52 75.95C309.47 75.05 311.57 74.45 313.52 73.7C317.27 72.2 321.02 70.7 324.92 69.5C327.62 68.6 330.62 68.3 333.47 67.7C334.97 67.4 336.47 66.8 337.97 66.65C339.17 66.65 339.77 66.35 339.92 65.75C343.67 65.45 347.27 65.15 351.17 64.85C350.57 65.45 350.12 65.6 350.12 65.9C349.97 66.95 350.12 68.15 349.82 69.2C348.02 74.3 346.07 79.4 344.42 84.5C342.32 90.65 340.37 96.8 338.42 102.95C336.62 108.35 334.82 113.9 333.32 119.45C332.12 123.65 331.07 127.85 330.17 132.05C329.57 134.9 329.12 137.75 328.67 140.6C328.37 142.7 328.37 144.8 328.22 146.9C327.62 151.7 328.22 156.2 331.97 159.8C332.72 160.55 333.62 161.3 334.52 162.05C335.87 163.1 337.07 164.45 338.57 165.05C340.97 165.95 343.67 166.4 346.07 164.45C347.57 163.1 349.67 162.35 349.97 159.95C349.97 159.8 350.27 159.65 350.42 159.5C351.32 158.3 352.37 157.1 353.12 155.75C354.62 153.2 355.97 150.65 357.47 148.1C357.62 147.95 357.62 147.65 357.62 147.35C357.77 146 357.62 144.5 358.07 143.3C358.82 141.5 359.87 139.85 360.92 138.2C362.12 136.4 363.32 134.6 364.52 132.8C364.37 132.65 364.22 132.5 364.07 132.35C363.62 132.95 363.17 133.55 362.72 134.15C361.67 135.5 360.62 137 359.57 138.35C357.77 140.6 355.97 143 354.17 145.25C352.67 147.05 351.62 149.45 348.47 150.35C349.22 148.85 349.82 147.65 350.42 146.45C350.27 146.45 350.12 146.45 349.97 146.45C348.77 147.95 347.57 149.45 346.07 151.25C346.97 151.1 347.27 151.1 348.02 150.95C346.37 152.9 345.02 154.55 343.67 156.2C343.52 156.05 343.37 155.9 343.22 155.75C344.12 154.7 345.02 153.65 345.92 152.6C345.77 152.45 345.62 152.3 345.47 152.15C343.52 154.25 341.57 156.35 339.62 158.45C338.87 159.35 336.92 159.2 336.77 158.15C336.32 155.75 335.72 153.35 335.72 150.95C335.87 147.8 336.32 144.65 336.92 141.65C337.82 136.7 338.87 131.75 339.92 126.8C340.22 125.3 340.67 123.95 341.12 122.6C341.42 121.55 341.72 120.5 342.02 119.6C342.32 118.55 342.92 117.65 343.22 116.6C343.37 116 342.92 115.25 343.22 114.8C344.42 112.55 344.87 110.15 345.62 107.75C346.52 104.6 347.57 101.6 348.62 98.6C348.77 98 349.22 97.55 349.37 96.95C350.12 94.4 350.87 91.85 351.77 89.3C352.52 86.9 353.57 84.65 354.17 82.25C354.77 79.55 356.57 77.15 356.42 74.15C357.77 73.1 357.62 71.45 358.07 70.1C358.37 69.35 358.97 68.75 359.27 68C359.72 66.8 360.02 65.45 360.47 64.25C360.62 63.95 360.92 63.65 361.22 63.5C363.02 62.45 365.27 64.1 367.07 62.6C367.07 62.6 367.22 62.9 367.37 62.9C368.87 63.35 370.07 62.9 370.22 61.55C367.37 61.55 364.52 61.55 361.67 61.55C361.67 61.4 361.67 61.25 361.67 61.1C363.17 60.95 364.37 59.6 366.17 60.2C367.07 60.5 368.12 60.35 369.02 60.2C370.07 59.9 370.97 59.3 372.02 60.2C372.17 60.35 372.62 60.2 372.92 60.2C374.87 60.2 376.82 60.05 378.77 60.05C379.52 60.05 380.27 60.2 381.02 60.2C382.97 60.2 384.92 60.2 386.87 60.35C387.17 60.35 387.47 60.95 387.92 61.4C381.92 61.4 376.22 61.4 370.52 61.4C370.82 62 371.27 62.45 371.72 62.45C375.77 62.6 379.82 62.6 383.87 62.75C386.87 62.9 389.87 63.2 392.87 63.65C395.42 63.95 397.97 65 400.52 65C403.22 65 405.17 66.65 407.57 67.25C408.77 65.9 408.77 64.4 407.57 62.9L408.17 60.95ZM327.92 66.95C328.22 66.05 330.62 65.15 331.82 65C333.32 64.85 334.82 64.25 336.62 63.8C335.72 65.15 331.07 66.5 327.77 66.65L327.92 66.95ZM339.17 64.1C338.57 64.1 337.97 63.95 337.37 63.8C337.37 63.65 337.37 63.5 337.37 63.35C337.82 63.35 338.27 63.5 338.72 63.35C339.17 63.2 339.47 62.75 340.22 62.15C340.52 62.9 340.67 63.35 340.82 63.8C340.37 63.95 339.92 64.1 339.47 64.1H339.17ZM347.27 62.9C345.92 63.2 344.57 63.5 343.22 63.65C342.77 63.65 342.32 63.35 341.87 63.2C341.87 62.9 341.87 62.6 341.87 62.3C344.42 62 346.97 61.85 349.52 61.4C350.12 61.25 350.57 60.65 351.17 60.2C351.32 60.35 351.47 60.5 351.62 60.65C351.32 61.1 351.17 61.85 350.72 62C349.67 62.45 348.47 62.6 347.27 62.75V62.9ZM337.82 104.45C338.57 102.65 338.72 100.85 339.32 99.05C341.42 93.35 343.22 87.5 345.17 81.8C346.67 77.75 348.32 73.7 349.82 69.65C350.42 68.15 350.87 66.65 351.47 65.15C351.77 64.55 352.22 63.95 352.52 63.35C352.67 63.35 352.82 63.35 352.97 63.35C352.52 65.15 352.07 66.95 351.47 68.75C351.17 69.95 350.42 71 350.12 72.2C349.07 75.35 348.62 78.65 347.12 81.5C345.77 84.05 345.62 86.9 344.57 89.6C343.22 93.05 342.32 96.65 341.12 100.1C340.97 100.55 340.37 101 340.37 101.3C340.52 102.05 339.62 103.25 341.12 103.55C341.12 103.55 341.12 104.15 341.12 104.45C340.52 104.15 339.92 103.85 339.62 103.7C339.32 104.75 339.17 105.65 338.87 106.55C338.42 108.5 337.22 110.6 337.52 112.4C337.82 113.9 337.52 114.95 337.22 116.15C337.22 116.3 337.07 116.45 336.77 116.75C336.77 115.25 336.77 114.05 336.77 112.85C336.62 112.85 336.47 112.85 336.32 112.85C336.32 113.15 336.32 113.45 336.17 114.05C335.87 114.05 335.42 114.05 334.97 114.05C336.02 110.75 336.92 107.45 338.27 104.3L337.82 104.45ZM331.67 128.45C332.57 124.85 333.47 121.25 334.37 117.65C334.67 116.45 334.82 115.25 334.97 114.05C336.17 114.8 335.87 116.15 335.72 117.05C335.42 119 334.67 120.8 334.22 122.75C334.07 123.5 334.22 124.25 334.22 125.15C334.22 125.15 333.92 125.15 333.62 125.15C333.32 126.65 333.02 128.15 332.72 129.65C332.57 129.65 332.42 129.65 332.27 129.65C331.97 129.2 331.52 128.6 331.67 128.15V128.45ZM330.17 141.95C329.87 143.75 329.57 145.55 328.97 147.35C329.27 144.2 329.57 141.05 329.87 137.9C330.92 139.1 330.62 140.45 330.47 141.8L330.17 141.95ZM332.57 131.45C331.82 132.95 331.67 134.75 331.22 136.4C331.07 136.85 330.47 137.15 330.02 137.6C330.47 134.9 330.92 132.2 331.37 129.35C332.72 129.65 333.32 129.8 332.72 131.15L332.57 131.45ZM337.22 132.65C337.07 132.65 336.92 132.65 336.77 132.65C337.07 131.45 337.37 130.25 337.67 129.05C337.82 129.05 337.97 129.05 338.12 129.05C337.82 130.25 337.52 131.45 337.22 132.65ZM342.47 113C341.57 115.55 340.97 118.25 340.22 120.8C339.77 122.15 339.32 123.5 338.72 124.7C339.32 119.75 340.97 115.1 342.62 110.45C343.07 111.35 342.77 112.1 342.47 113ZM345.32 100.1C345.77 99.5 346.37 98.9 346.67 98.15C348.02 94.1 349.37 89.9 350.72 85.7C351.77 82.55 352.82 79.4 353.87 76.25C354.02 75.95 354.32 75.65 354.77 75.5C354.47 76.55 354.32 77.6 354.02 78.65C353.27 80.75 352.52 82.85 351.77 84.95C350.87 87.5 349.97 90.05 349.07 92.6C348.02 95.6 346.97 98.6 345.92 101.6C345.17 104.15 344.42 106.7 343.52 109.25C343.37 109.7 342.92 110 342.62 110.3C342.77 109.4 343.07 108.5 343.37 107.3C342.02 108.2 339.62 115.55 338.87 119C337.97 123.05 336.62 126.95 335.72 131C334.82 135.05 334.07 139.1 333.32 143.15C333.17 143.15 333.02 143.15 332.87 143.15C333.02 141.95 333.02 140.75 333.32 139.55C334.37 134.3 335.42 128.9 336.77 123.65C337.82 119.15 339.32 114.8 340.67 110.45C342.47 104.3 344.27 98.15 346.22 92C347.27 88.7 348.62 85.55 349.82 82.4C350.87 79.4 351.77 76.25 352.82 73.25C353.57 71 354.47 68.9 355.52 66.8C354.32 72.5 351.92 77.9 350.12 83.45C348.32 89.15 346.37 94.7 344.42 100.4C344.57 100.4 344.72 100.55 344.87 100.7L345.32 100.1ZM355.67 57.35C355.52 57.35 355.37 57.35 355.22 57.35C355.82 55.4 356.42 53.45 357.02 51.5C357.02 53.75 357.02 56 355.52 57.8L355.67 57.35ZM357.32 68.15C357.17 68.15 357.02 68.15 356.87 68.15C357.32 66.95 357.77 65.75 358.22 64.55C358.37 64.7 358.52 64.85 358.67 65C358.22 66.2 357.77 67.4 357.32 68.6V68.15ZM384.47 59C384.47 58.85 384.47 58.7 384.47 58.55C385.82 58.55 387.17 58.55 388.52 58.55C388.52 58.7 388.52 58.85 388.52 59C387.17 59 385.82 59 384.47 59ZM393.77 62.15C392.42 62 391.07 62 389.72 61.85C389.42 61.85 389.12 61.55 388.67 61.4C390.32 60.5 393.77 60.95 395.12 62.3C394.67 62.3 394.37 62.3 394.07 62.3L393.77 62.15ZM342.32 108.2C342.47 108.2 342.62 108.2 342.77 108.2C343.37 106.25 345.02 104.6 344.57 102.35C344.42 102.35 344.27 102.35 344.12 102.35C343.52 104.3 342.92 106.25 342.32 108.2ZM393.729 114.05C397.179 110.45 402.279 109.7 406.179 107C398.979 109.7 392.079 113.15 385.029 117.05C385.929 117.5 386.379 117.65 386.679 117.8C385.929 118.4 385.179 119 384.429 119.6C383.529 120.35 383.229 120.2 382.929 118.85C384.579 118.7 384.579 118.7 384.579 117.05C382.179 118.55 379.929 120.05 377.679 121.4C377.229 121.7 376.329 122 376.029 121.7C373.479 119.9 370.929 117.95 368.529 115.85C367.779 115.25 367.329 114.2 367.179 113.3C366.429 109.1 368.529 105.8 370.779 102.8C373.029 99.8 375.729 96.95 378.279 94.1C379.779 92.45 381.429 90.95 383.229 89.75C385.629 87.95 388.179 86.3 390.879 84.8C392.079 84.2 393.579 83.9 394.929 83.6C395.529 83.45 396.279 83.9 397.179 84.2C397.179 83.6 397.329 83 397.179 82.55C396.279 79.25 394.479 76.55 391.329 75.2C389.979 74.6 388.329 74.3 386.529 75.05C383.829 76.25 382.029 78.35 379.779 80.15C376.179 83 372.729 86 369.729 89.6C366.279 93.95 362.979 98.15 362.229 104C361.329 111.05 362.979 117.2 367.629 122.6C368.379 123.35 368.979 123.95 367.929 125C369.429 124.25 370.179 125.15 370.929 126.2C370.329 126.8 369.729 127.4 369.129 128C367.929 127.4 367.929 127.4 367.629 128.75C367.479 129.05 366.879 129.35 366.429 129.5C365.979 129.65 365.529 129.5 365.079 129.5C365.079 129.65 365.079 129.8 365.079 129.95C364.479 130.7 363.879 131.45 363.129 132.35C363.879 132.35 364.329 132.35 364.779 132.35C364.779 132.5 364.779 132.65 364.779 132.8C364.329 133.1 363.879 133.4 363.429 133.7C362.829 132.5 361.629 132.95 360.729 132.65C360.729 134 359.679 134.3 358.779 134.75C357.579 135.35 356.379 135.95 355.479 136.85C353.829 138.35 352.329 140.15 350.829 141.8C352.779 137.9 356.529 135.5 358.629 131.6C358.179 131.9 357.579 132.2 357.129 132.65C356.079 133.55 355.179 134.45 354.279 135.35C351.279 138.35 348.129 141.35 349.479 146.3C349.479 146.45 349.479 146.6 349.479 146.75C348.579 149.3 349.629 151.7 350.229 154.1C350.529 155.75 351.279 157.25 351.429 158.9C351.729 161 353.079 162.35 354.429 163.7C357.729 167.15 362.229 167.15 366.579 167C371.079 166.85 374.979 164.6 379.029 162.95C382.479 161.45 385.479 159.2 388.329 156.65C391.479 153.95 392.979 150.95 391.929 146.75C391.779 146.15 391.629 145.4 391.629 144.8C391.929 142.4 391.179 140.15 390.129 138.05C387.579 132.95 384.129 128.6 379.929 124.7C379.629 124.4 379.329 124.1 378.879 123.5C385.629 118.25 393.279 114.95 401.079 110.9C397.929 110.6 396.129 112.7 393.729 113.3V114.05ZM380.079 132.8C382.479 134.9 384.579 137.3 386.679 139.7C387.579 140.75 387.579 142.1 386.529 143.15C384.429 145.25 382.479 147.5 380.079 149.3C378.279 150.65 376.029 151.4 374.079 152.45C372.129 153.35 370.329 154.4 368.379 155.3C367.029 155.9 365.529 156.35 364.029 156.5C361.479 156.8 358.929 156.8 356.679 155.15C353.529 152.9 352.779 150.2 354.879 146.75C355.629 145.4 356.529 144.05 357.579 142.7C358.479 141.5 359.529 140.3 360.579 139.1C359.529 138.95 359.829 138.2 360.579 137.6C364.179 134.6 367.179 130.85 371.529 128.75C371.679 128.75 371.679 128.6 371.829 128.3C371.379 128.3 371.079 128.3 370.779 128.3C370.479 128.3 370.179 128.45 369.729 128.15C370.479 127.7 371.229 127.25 371.829 126.95C374.679 129.05 377.529 130.85 380.079 133.1V132.8Z" fill="#D9D9D9" fill-opacity="0.5"/>
</svg>
