<svg width="255" height="85" viewBox="0 0 255 85" fill="none" xmlns="http://www.w3.org/2000/svg">
<path d="M85.52 23.82C85.28 21.9 84.64 20.06 84.16 18.22C84 17.5 83.76 16.78 83.52 16.06C83.6 16.06 83.68 16.06 83.76 16.06C84.16 16.86 84.56 17.66 84.96 18.46C85.04 18.46 85.12 18.46 85.2 18.46C84.88 17.74 84.72 16.94 84.32 16.22C83.52 14.78 82.64 13.34 81.68 11.98C80.4 10.22 79.04 8.54 77.68 6.86C77.28 6.38 76.64 6.06 76.16 5.58C74.88 4.3 72.96 4.46 71.6 3.5C70.8 2.94 69.68 3.1 69.12 2.14C68.96 1.89999 68.56 1.82 68.32 1.74C67.84 1.58 67.36 1.42 66.88 1.34C66.64 1.34 66.4 1.5 66.16 1.58C66.16 1.66 66.16 1.74 66.16 1.82C66.4 1.82 66.64 1.82 67.12 1.89999C65.92 2.38 65.36 2.29999 63.36 1.5C64.24 1.5 64.96 1.5 65.68 1.5C65.68 1.42 65.68 1.34 65.68 1.26C65.36 1.17999 65.04 1.1 64.72 1.1C63.2 1.02 61.68 0.939998 60.16 0.939998C59.28 0.939998 58.4 1.02 57.52 1.17999C55.68 1.5 53.84 1.89999 52 2.29999C51.12 2.46 50.88 2.7 50.72 3.26C51.36 3.1 52 2.94 52.64 2.78C52.72 2.94 52.8 3.1 52.88 3.26C47.36 4.7 42.16 7.09999 37.12 9.74C38.56 8.3 40.48 7.66 42.08 6.46C38.32 7.98 34.88 10.06 31.6 12.38C31.6 12.46 31.6 12.54 31.6 12.62C33.2 11.66 34.8 10.7 36.4 9.74C36.48 9.82 36.56 9.9 36.64 9.98C34.88 11.42 32.64 12.3 31.2 14.14C32.32 13.42 33.44 12.7 34.64 11.98C35.44 12.38 36.96 11.9 37.36 11.02C36.64 11.18 36.24 12.06 35.12 11.82C36.08 11.1 36.8 10.46 37.6 9.98C39.2 9.1 40.88 8.3 42.56 7.58C44.24 6.86 45.92 6.22 47.6 5.58C48.72 5.18 49.76 4.7 50.88 4.38C52.96 3.82 55.12 3.42 57.28 3.01999C58.16 2.86 59.04 2.62 59.92 2.7C60.56 2.7 61.12 2.78 61.76 2.54C62.24 2.38 62.8 2.62 62.72 3.34C62.88 3.74 63.04 4.13999 63.2 4.54C62.88 4.62 62.4 4.7 61.92 4.78C60.56 5.02 59.12 4.54 57.76 5.1C56.64 5.5 55.44 5.82 54.32 6.14C54.08 6.22 53.84 6.3 53.6 6.3C53.12 6.3 52.64 6.22 52.24 6.14C52.24 6.38 52.24 6.62 52.16 6.62C51.36 6.78 50.56 6.94 49.76 7.09999C49.6 7.26 49.36 7.42 49.12 7.58C48.8 6.94 48.24 7.34 47.76 7.26C47.84 7.5 47.92 7.74 48 7.98C47.92 7.98 47.84 7.98 47.76 7.98C47.52 7.81999 47.28 7.66 47.12 7.58C46.64 8.14 46.24 8.62 45.84 9.1C45.76 9.02 45.68 8.93999 45.6 8.86C45.68 8.62 45.76 8.38 46 7.9C45.52 8.22 44.96 8.38 44.96 8.54C44.96 9.5 44.08 9.26 43.6 9.58C43.2 9.82 42.8 9.5 42.64 8.86C43.76 9.5 43.92 8.3 44.64 8.06C44.32 7.66 44.08 7.42 43.76 7.02C43.76 7.34 43.76 7.5 43.76 7.66C43.68 7.58 43.6 7.5 43.52 7.42C43.2 7.66 42.88 7.9 42.56 8.06C42.24 8.22 41.92 8.38 41.6 8.54C41.12 8.7 40.64 8.86 40 9.02C40.72 9.26 41.12 9.42 41.68 9.66C41.28 9.98 41.12 10.14 40.72 10.46C41.36 10.3 41.76 10.22 42.4 10.06C41.92 10.78 41.52 10.94 40.96 10.78C40.72 10.7 40.4 10.7 40.16 10.78C39.28 11.18 38.32 11.58 37.84 12.62C37.76 12.86 37.28 13.02 36.96 13.1C36.56 13.26 35.92 13.1 35.68 13.34C35.12 13.98 34.4 14.3 33.76 14.78C33.36 15.1 33.12 15.1 32.56 14.7C32.88 14.54 33.2 14.38 33.52 14.22C33.44 14.14 33.36 14.06 33.28 13.98C32.72 14.14 32.16 14.3 31.52 14.54C31.92 14.94 32.32 15.34 32.64 15.74C32.24 16.06 31.92 16.22 31.84 16.46C31.6 17.02 31.36 16.94 31.04 16.54C30.96 16.38 30.72 16.38 30.56 16.3C30.56 16.38 30.56 16.46 30.56 16.54C30.72 16.7 30.88 16.86 31.04 17.1C30.4 17.42 29.84 17.66 29.28 17.9C29.2 17.82 29.12 17.74 29.04 17.66C29.2 17.42 29.36 17.18 29.52 16.94C28.72 15.98 28.48 15.9 27.6 16.62C26.32 17.66 25.04 18.7 23.84 19.82C22.4 21.1 20.96 22.38 19.52 23.66C19.36 23.82 19.2 23.98 19.04 24.14C18.96 24.06 18.88 23.98 18.8 23.9C20 22.7 21.2 21.42 22.48 20.22C23.76 19.1 25.12 18.06 26.48 17.02C27.84 15.98 29.28 14.94 30.64 13.9C30.56 13.82 30.48 13.74 30.4 13.66C30 13.82 29.6 13.98 29.2 14.14C29.6 13.74 30 13.34 30.4 12.94C30.4 12.86 30.4 12.78 30.4 12.7C28.64 13.18 27.44 14.62 26 15.58C24.56 16.62 23.2 17.82 21.84 19.02C20.48 20.22 19.2 21.5 17.92 22.7C17.68 22.62 17.52 22.54 17.36 22.46C17.36 22.78 17.36 23.1 17.36 23.42C17.12 23.42 16.8 23.34 16.64 23.5C16.24 23.74 15.84 24.06 15.6 24.46C15.44 24.7 15.52 25.18 15.28 25.42C15.04 25.66 14.56 25.58 14.24 25.74C13.76 26.06 13.36 26.46 13.04 26.78C13.12 27.18 13.2 27.42 13.28 27.66C13.12 27.66 12.88 27.58 12.72 27.66C12.48 27.74 12.32 27.98 12.16 28.14C12.24 28.22 12.32 28.3 12.4 28.38C12.56 28.38 12.72 28.38 12.96 28.3C12.32 29.1 11.84 29.9 11.2 30.54C10.56 31.1 9.76 31.5 9.04 31.98C9.04 32.06 9.04 32.14 9.04 32.22C9.2 32.22 9.36 32.22 9.52 32.22C9.36 32.54 9.12 32.7 8.88 32.86C8.56 33.02 8.24 33.1 8 33.34C7.76 33.5 7.68 33.82 7.52 34.06C6.32 35.66 5.04 37.26 3.92 38.94C2.88 40.46 2.08 42.14 1.2 43.74C0.48 45.02 0 46.3 0.4 47.74C0.88 49.42 1.68 50.86 3.44 51.42C4 51.58 4.48 51.5 4.48 50.86C5.44 50.54 6.48 50.46 7.04 49.34C6.24 49.26 5.52 49.18 4.56 49.02C5.28 47.5 5.84 46.14 6.56 44.86C7.44 43.34 8.48 41.9 9.52 40.46C9.92 39.9 10.32 39.26 10.88 39.02C11.68 38.7 11.84 38.22 11.76 37.5C12.24 37.02 12.8 36.7 13.2 36.22C13.84 35.42 14.32 34.54 15.2 33.98C15.36 33.9 15.44 33.66 15.6 33.5C16.72 32.3 17.68 31.02 18.88 29.9C21.44 27.5 24.16 25.26 26.72 22.86C28.8 20.86 31.28 19.42 33.6 17.74C34.8 16.86 36.08 16.06 37.36 15.26C37.84 14.94 38.4 14.7 39.12 14.3C38.8 15.82 38.56 17.1 38.32 18.38C37.92 20.14 37.52 21.9 37.12 23.66C36.8 24.94 36.56 26.22 36.24 27.5C36.08 28.22 35.76 28.94 35.6 29.66C35.44 30.22 35.68 30.86 35.04 31.34C34.72 31.58 34.8 32.3 34.72 32.78C34.64 33.02 34.56 33.26 34.48 33.5C34.16 34.46 33.6 35.42 33.6 36.38C33.6 37.42 33.28 38.3 32.96 39.26C32.64 40.14 32.16 40.94 31.76 41.82C31.2 43.26 31.04 44.78 30.48 46.22C29.84 48.06 29.52 49.98 29.04 51.9C28.64 53.66 28.24 55.42 27.84 57.18C27.52 58.7 27.2 60.22 26.96 61.74C26.72 63.1 26.56 64.46 26.4 65.82C26.16 67.82 25.92 69.82 25.84 71.82C25.84 72.54 25.6 72.86 25.04 73.1C24.08 73.5 23.12 73.9 22.16 74.22C20.48 74.7 18.88 75.5 16.88 75.34C17.04 75.1 17.12 74.86 17.2 74.7C17.44 74.22 17.68 73.74 18 73.26C18.08 73.1 18.16 73.02 18.24 72.94C19.28 71.82 20.32 70.7 21.44 69.58C21.84 69.18 21.76 68.86 21.28 68.54C20.8 68.86 20.32 69.18 19.84 69.5C19.76 69.42 19.68 69.34 19.6 69.26C21.68 67.58 23.76 65.98 25.52 63.98C23.92 65.02 22.4 66.22 20.88 67.42C19.6 68.38 18.32 69.34 17.04 70.3C16.56 70.7 16.08 71.1 15.6 71.42C15.44 71.58 15.12 71.58 14.88 71.66C14.88 71.58 14.88 71.5 14.88 71.42C15.52 70.86 16.16 70.3 16.72 69.74C17.28 69.18 17.84 68.54 18.4 67.98C18.16 68.06 17.92 68.14 17.76 68.3C15.92 69.98 14.08 71.66 12.24 73.42C12.08 73.58 11.92 73.98 12 74.22C12.32 75.66 12.56 77.18 13.12 78.54C13.44 79.34 14.32 80.06 15.12 80.46C16.88 81.26 18.88 80.94 20.64 80.54C23.12 79.98 25.52 78.94 28.08 78.06C27.76 77.82 27.6 77.66 27.44 77.5C27.92 77.34 28.32 77.42 28.72 77.42C29.12 77.42 29.52 77.26 29.92 77.1C30.24 76.94 30.48 76.7 30.8 76.54C31.52 76.14 32.24 75.74 32.96 75.42C33.76 75.1 34.56 74.7 35.36 74.38C36.48 73.9 37.68 73.58 38.8 73.1C39.92 72.62 40.96 72.06 41.92 71.1C42.72 70.3 43.6 69.42 44.8 69.1C44.96 69.1 45.12 69.1 45.2 69.02C46.48 67.58 48.32 67.02 49.76 65.9C50.56 65.34 51.28 64.7 52.08 64.06V63.98C53.04 63.18 54.16 62.54 55.36 62.3C56.08 62.14 56.64 61.82 57.12 61.42C57.76 60.86 58.24 60.06 58.8 59.42C58.96 59.18 59.2 58.94 59.44 58.94C60.8 58.78 61.92 57.98 62.72 57.1C63.92 55.9 65.68 55.42 66.56 53.9C67.52 53.9 67.76 52.94 68.4 52.46C69.68 51.5 70.72 50.3 72 49.34C72.8 48.78 73.44 47.98 74.16 47.26C75.2 46.22 76.32 45.18 77.36 44.06C77.92 43.5 78.32 42.78 78.8 42.06C78.48 42.06 78.24 42.06 78 42.06C78.64 41.58 79.92 41.74 79.36 40.38C79.84 40.14 80.24 39.9 80.64 39.66C80.56 39.58 80.48 39.5 80.4 39.42C80.16 39.5 79.92 39.58 79.68 39.66C80 39.18 80 38.38 81.12 38.78C79.76 37.34 81.68 37.98 81.68 37.34C81.44 37.18 81.28 37.1 81.12 37.02C81.84 35.66 82.16 34.06 83.92 33.34C83.44 33.26 83.2 33.26 82.96 33.26C83.12 32.54 84.88 32.54 83.84 31.42C84 31.1 84.24 30.86 84.32 30.54C84.56 29.74 84.72 28.94 84.8 28.14C84.96 26.62 85.36 25.1 85.2 23.66L85.52 23.82ZM53.12 2.54C53.12 2.46 53.12 2.38 53.12 2.29999C54.96 1.89999 56.8 1.42 58.64 1.26C58.64 1.42 58.64 1.58 58.64 1.74C56.8 2.06 54.96 2.38 53.12 2.7V2.54ZM28.72 14.78C28.16 15.26 27.6 15.74 26.88 16.3C27.12 15.42 27.84 14.94 28.8 14.78H28.72ZM16 77.26C16 77.18 16 77.1 16 77.02C16.24 76.94 16.48 76.86 16.72 76.78C17.68 76.46 18.64 76.22 19.6 75.9C19.68 75.9 19.76 75.82 19.84 75.82C20.96 75.5 22.08 75.18 23.2 74.78C23.92 74.54 24.64 74.14 25.36 73.74C26 73.42 26.32 73.82 26.48 74.22C26.8 74.86 26.16 74.78 25.84 74.94C24.88 75.34 23.92 75.82 22.96 76.14C21.6 76.54 20.16 76.86 18.72 77.18C18 77.34 17.28 77.34 16.56 77.42C16.32 77.42 16.08 77.34 15.84 77.34L16 77.26ZM16.96 78.86C16.96 78.78 16.96 78.7 16.96 78.62C17.44 78.54 17.92 78.46 18.4 78.38C18.56 78.38 18.72 78.46 18.88 78.46C18.88 78.62 18.88 78.78 18.88 78.94C18.24 79.02 17.6 79.1 16.96 79.18V78.86ZM26.56 76.38C26 76.7 25.44 77.02 24.8 77.26C23.2 77.82 21.6 78.3 20 78.78C19.84 78.86 19.6 78.78 19.44 78.78C19.44 78.7 19.44 78.62 19.44 78.54C20.16 78.38 20.88 78.22 21.6 77.98C23.2 77.42 24.8 76.78 26.4 76.22C26.64 76.14 26.96 76.22 27.2 76.22C27.04 76.38 26.88 76.54 26.64 76.62L26.56 76.38ZM69.28 5.74C69.28 5.82 69.28 5.9 69.28 5.97999C67.36 5.66 65.44 5.34 63.52 5.02C63.52 4.85999 63.52 4.7 63.52 4.54C65.44 4.85999 67.44 4.94 69.28 5.66V5.74ZM65.12 3.5C65.68 3.58 66.24 3.66 66.8 3.74C66.8 3.82 66.8 3.9 66.8 3.98C66.24 3.9 65.68 3.82 65.12 3.74C65.12 3.58 65.12 3.42 65.12 3.26V3.5ZM62.4 3.5C62.8 2.46 63.6 3.26 64.24 3.1C64 3.9 63.84 3.9 62.48 3.42L62.4 3.5ZM35.68 73.98C34.8 74.3 33.92 74.62 33.04 74.94C32.96 74.86 32.88 74.78 32.8 74.7C33.28 74.46 33.76 74.22 34.24 73.98C34.64 73.82 35.04 73.66 35.44 73.58C35.52 73.58 35.68 73.66 35.76 73.74C35.84 73.82 35.76 74.06 35.68 74.06V73.98ZM46.64 67.5C44.8 68.62 42.96 69.74 41.12 70.86C39.68 71.74 38.16 72.54 36.64 73.34C36.48 73.42 36.24 73.42 36 73.42C35.92 73.42 35.84 73.18 35.84 73.18C36 73.02 36.16 72.78 36.4 72.7C37.92 72.22 39.36 71.58 40.72 70.7C42.72 69.34 44.8 68.14 46.8 66.86C46.88 66.78 47.04 66.78 47.2 66.78C46.96 67.02 46.72 67.34 46.4 67.5H46.64ZM47.36 66.62C48.16 65.98 48.88 65.34 49.68 64.78C50.08 64.46 50.48 64.22 50.88 63.98C50.96 64.06 51.04 64.14 51.12 64.22C49.92 65.02 48.72 65.82 47.52 66.62H47.36ZM51.68 63.74C57.84 59.5 63.68 54.86 69.36 50.06C64 55.26 58.24 59.9 51.84 63.74H51.68ZM70.56 49.26C70.48 49.18 70.4 49.1 70.32 49.02C70.72 48.54 71.12 48.06 71.52 47.58C71.6 47.66 71.68 47.74 71.76 47.82C71.28 48.22 70.8 48.62 70.32 49.02L70.56 49.26ZM70.64 46.54C70 47.42 68.96 48.06 68.16 48.78C66.64 50.14 65.2 51.58 63.6 52.78C62.32 53.82 61.36 55.26 59.76 55.9C59.28 56.06 58.96 56.54 58.56 56.86C57.28 57.82 55.92 58.78 54.64 59.74C53.68 60.46 52.8 61.18 51.84 61.82C50.32 62.86 48.8 63.82 47.28 64.78C45.28 66.06 43.36 67.42 41.36 68.7C40 69.58 38.56 70.3 37.12 71.1C36.24 71.58 35.44 72.14 34.56 72.62C34.48 72.7 34.4 72.78 34.32 72.78C33.12 73.18 31.92 73.58 30.72 73.98C30.64 73.9 30.56 73.82 30.48 73.74C30.64 73.5 30.72 73.26 30.96 73.18C32.24 72.46 33.52 71.74 34.8 71.1C35.6 70.7 36.48 70.46 37.28 70.06C38.32 69.5 39.36 68.86 40.4 68.3C40.88 67.98 41.36 67.74 41.84 67.42C42.08 67.26 42.32 67.02 42.56 66.86C42.48 66.78 42.4 66.7 42.32 66.62C38.48 68.62 34.64 70.62 30.8 72.62C30.72 72.54 30.64 72.46 30.56 72.38C30.88 71.9 31.04 71.34 31.44 71.02C32.08 70.54 32.8 70.22 33.52 69.9C37.12 68.3 40.48 66.22 43.84 64.14C46.8 62.3 49.6 60.22 52.4 58.22C54.88 56.46 57.36 54.62 59.76 52.7C62.4 50.62 65.04 48.54 67.52 46.22C69.84 44.06 72 41.74 74.24 39.5C74.48 39.26 74.72 38.94 74.96 38.62C75.04 38.7 75.12 38.78 75.2 38.86C74.08 40.14 72.96 41.42 71.84 42.7C71.6 42.94 71.44 43.26 71.28 43.5C70.64 44.38 70 45.26 69.36 46.14C69.28 46.3 69.2 46.46 69.12 46.62C69.2 46.7 69.28 46.78 69.36 46.86C70.24 45.98 71.12 45.1 72 44.22C72.16 44.06 72.32 43.9 72.48 43.9C72.64 43.9 72.88 43.98 73.04 44.14C73.12 44.22 72.96 44.54 72.8 44.62C71.84 45.1 71.28 45.9 70.64 46.78V46.54ZM76.88 37.82C76.96 37.9 77.04 37.98 77.12 38.06C76.08 39.82 74.72 41.34 72.96 42.46C74.24 40.94 75.52 39.42 76.8 37.9L76.88 37.82ZM72 47.5C71.92 47.42 71.84 47.34 71.76 47.26C73.04 45.98 74.32 44.7 75.6 43.42C75.6 43.34 75.68 43.34 75.76 43.34C75.36 43.9 75.04 44.46 74.56 44.94C73.76 45.82 72.88 46.62 72 47.5ZM75.76 43.34C75.76 42.94 75.68 42.62 75.04 43.18C75.04 43.1 75.04 43.02 75.04 42.94C75.28 42.78 75.52 42.46 75.76 42.46C76.08 42.46 76.4 42.7 76.8 42.94C76.32 43.18 76.08 43.34 75.84 43.5L75.76 43.34ZM76.72 42.22C76.24 41.02 76.8 40.3 77.68 39.58C77.92 40.7 77.52 41.66 76.64 42.22H76.72ZM77.28 37.74C77.2 37.66 77.12 37.58 77.04 37.5C77.6 36.78 78.16 36.06 78.72 35.34C78.8 35.42 78.88 35.5 78.96 35.58C78.4 36.3 77.84 37.02 77.28 37.74ZM79.44 36.94C79.36 36.86 79.28 36.78 79.2 36.7C79.84 36.22 80.48 35.74 81.2 35.18C81.2 35.18 81.36 35.26 81.6 35.42C80.8 35.98 80.08 36.46 79.36 36.94H79.44ZM81.84 20.22C81.76 22.54 81.36 24.78 80.8 27.02C80.08 29.98 78.8 32.7 76.96 35.1C75.52 37.02 74.08 38.94 72.48 40.78C71.28 42.22 69.92 43.5 68.56 44.78C66.96 46.3 65.36 47.82 63.68 49.26C62.16 50.62 60.48 51.82 58.88 53.1C58.48 53.42 58.08 53.74 57.68 54.06C55.84 55.5 54 56.94 52.16 58.3C51.28 58.94 50.32 59.5 49.44 60.14C48.4 60.86 47.44 61.66 46.4 62.3C44.48 63.5 42.56 64.62 40.64 65.74C39.84 66.22 39.12 66.78 38.32 67.18C35.84 68.46 33.36 69.74 30.88 71.02C30.8 70.94 30.72 70.86 30.64 70.78C30.64 70.3 30.64 69.82 30.72 69.34C30.8 68.22 31.04 67.1 31.12 65.98C31.12 65.02 31.44 64.06 31.52 63.1C31.68 61.5 32.32 59.98 32.72 58.38C32.96 57.34 33.2 56.3 33.44 55.26C33.6 54.62 33.76 53.9 34.08 53.34C34.64 52.46 35.12 51.58 34.96 50.46C34.96 50.3 35.2 50.06 35.36 49.82C34.8 49.26 35.2 48.62 35.36 48.06C35.6 47.18 36.4 46.46 36.32 45.42C36.32 45.26 36.64 45.1 36.8 44.94C37.04 44.62 37.2 44.38 36.96 43.9C36.8 43.5 37.04 42.86 37.2 42.3C37.52 41.18 37.84 40.06 38.16 38.94C38.24 38.54 38.32 38.14 38.4 37.74C38.64 36.78 38.8 35.82 39.12 34.94C39.92 32.86 40.64 30.86 40.96 28.62C41.2 26.7 42 24.94 42.4 23.1C42.72 21.74 42.8 20.3 42.96 18.86C42.96 18.62 42.8 18.38 42.64 18.22C41.76 17.1 40.88 15.98 40 14.86C39.84 14.7 39.68 14.54 39.44 14.14C40.24 13.82 40.96 13.58 41.6 13.26C42.64 12.7 43.68 12.14 44.72 11.58C44.88 11.5 44.96 11.34 45.12 11.26C47.68 10.3 50.24 9.26 52.88 8.38C54.16 7.98 55.52 7.98 56.72 7.34C57.04 7.18 57.52 7.34 57.92 7.26C58.4 7.18 58.88 7.02 59.36 6.94C59.84 6.94 60.32 7.09999 60.8 7.09999C61.84 7.09999 62.88 6.86 63.84 6.94C65.92 7.18 68 7.09999 69.92 7.98C70.64 8.3 71.44 8.38 72.16 8.7C73.76 9.34 75.36 10.14 76.64 11.42C77.76 12.54 78.96 13.58 79.84 14.86C80.96 16.46 81.28 18.38 81.2 20.46L81.84 20.22ZM83.6 29.42C83.28 29.1 83.36 25.42 83.68 24.22C84.08 24.7 84 28.14 83.52 29.42H83.6ZM41.04 6.94C43.6 5.97999 46 5.02 48.48 4.06C47.68 3.66 41.76 5.9 41.04 6.94ZM50.88 5.18C50.56 5.34 50.4 5.34 50.24 5.42C49.68 5.82 49.12 6.14 48.4 5.97999C48.16 5.9 47.84 6.38 47.6 6.62C47.68 6.7 47.76 6.78 47.84 6.86C48.72 6.22 50.24 6.62 50.8 5.02L50.88 5.18ZM21.04 66.22C21.04 66.14 21.04 66.06 21.04 65.98C20.88 66.06 20.64 66.06 20.48 66.14C19.68 66.78 18.88 67.42 18.08 68.06C17.92 68.22 17.84 68.46 17.76 68.62C18.16 68.38 18.64 68.14 19.04 67.82C19.84 67.26 20.56 66.7 21.28 66.14L21.04 66.22ZM60.16 3.82C59.68 3.66 59.28 3.5 58.8 3.26C58.72 3.58 58.64 3.82 58.56 4.13999C59.2 4.38 59.76 4.7 60.16 3.9V3.82ZM23.92 63.82C23.12 64.38 22.32 64.94 21.52 65.5C21.6 65.58 21.68 65.66 21.76 65.74C22.56 65.1 23.36 64.46 24.16 63.82C24.08 63.74 24 63.66 23.92 63.58V63.82ZM53.12 5.25999C53.04 5.02 53.04 4.62 52.88 4.54C52.64 4.46 52.32 4.54 52 4.54C52 4.62 52 4.7 52 4.78C52.24 4.94 52.48 5.1 52.72 5.25999C52.8 5.18 52.88 5.1 52.96 5.02L53.12 5.25999ZM47.04 6.38C46.48 6.54 45.92 6.7 45.36 6.86C45.36 6.94 45.36 7.02 45.36 7.09999C45.52 7.02 45.68 6.94 45.84 6.94C46 6.94 46.16 7.02 46.32 7.09999C46.48 6.86 46.64 6.62 46.8 6.38C46.8 6.3 46.8 6.22 46.8 6.14L47.04 6.38ZM50.32 60.54C51.2 60.46 51.92 60.06 52.64 59.5C53.84 58.46 55.04 57.42 56.32 56.46C58.16 55.02 60.16 53.74 62 52.3C63.28 51.26 64.4 49.98 65.6 48.86C65.84 48.62 66.08 48.38 66.32 48.14C66.24 48.06 66.16 47.98 66.08 47.9C60.8 52.06 55.52 56.22 50.24 60.38L50.32 60.54ZM41.44 65.98C41.52 66.06 41.6 66.14 41.68 66.22C44.16 64.62 46.64 63.02 49.12 61.42C49.04 61.34 48.96 61.26 48.88 61.18C46.4 62.78 43.92 64.38 41.44 65.98ZM101.179 58.14C100.859 58.38 100.539 58.7 100.219 58.94C99.5794 59.42 98.9394 59.9 98.2994 60.38C97.7394 60.78 97.0994 61.1 96.5394 61.42C96.4594 61.34 96.3794 61.26 96.2994 61.18C96.9394 60.7 97.5794 60.22 98.3794 59.66C98.0594 59.66 97.8994 59.58 97.8194 59.66C97.0194 60.14 96.2194 60.62 95.4194 61.1C94.0594 61.98 92.6994 62.86 91.3394 63.82C90.6994 64.3 90.1394 64.86 89.4194 65.26C88.9394 65.5 88.0594 65.18 88.1394 66.22C88.1394 66.22 87.9794 66.3 87.8994 66.38C87.0994 66.78 86.2994 67.1 85.5794 67.5C83.9794 68.46 82.2994 69.26 80.4594 69.42C79.8194 69.5 79.0194 69.74 78.6194 68.86C77.8194 67.1 78.1394 65.34 78.6194 63.58C78.8594 62.54 79.0994 61.5 79.4194 60.46C79.4994 60.06 79.6594 59.66 79.8194 59.26C80.1394 59.58 80.5394 59.82 80.8594 60.14C81.5794 61.02 83.0194 61.26 83.8194 60.54C85.6594 58.86 87.5794 57.18 89.2594 55.34C90.2194 54.3 91.4994 53.34 91.6594 51.66C91.6594 51.58 91.7394 51.5 91.8194 51.42C92.9394 50.86 92.9394 49.58 93.2594 48.7C93.6594 47.74 93.4194 46.38 93.1794 45.26C92.7794 43.42 91.2594 42.3 89.8994 41.18C89.0994 40.54 88.1394 40.38 87.2594 40.86C85.8994 41.5 84.5394 42.14 83.3394 43.02C82.2994 43.74 81.3394 44.62 80.5394 45.66C79.4994 46.94 78.6194 48.38 77.7394 49.82C77.2594 50.54 76.9394 51.34 76.5394 52.14C75.8194 53.58 75.0194 55.02 74.3794 56.46C73.9794 57.34 73.8994 58.38 73.5794 59.34C72.8594 61.42 73.0994 63.58 73.8994 65.5C74.8594 67.82 75.8994 70.3 77.9794 71.98C79.4194 73.18 80.9394 74.38 82.9394 74.3C83.7394 74.22 84.6194 74.06 85.4194 73.82C86.1394 73.58 86.8594 73.18 87.4994 72.78C87.8194 72.62 88.0594 72.3 88.3794 72.06C89.7394 71.1 91.0994 70.22 92.4594 69.26C93.0994 68.78 93.9794 68.3 94.1394 67.66C94.3794 66.7 95.1794 66.46 95.6594 65.82C95.8994 65.5 96.2194 65.26 96.4594 64.94C97.3394 63.82 98.1394 62.7 98.9394 61.58C99.0994 61.42 99.2594 61.26 99.4194 61.1C99.9794 60.54 100.619 60.06 101.179 59.42C101.659 58.94 101.979 58.3 102.379 57.74C102.299 57.66 102.219 57.58 102.139 57.5C101.819 57.66 101.499 57.82 101.179 58.06V58.14ZM81.0194 55.58C81.3394 54.86 81.7394 54.14 82.1394 53.42C82.2194 53.26 82.2994 53.02 82.4594 52.86C83.0194 52.3 83.5794 51.74 83.1794 51.1C83.8194 50.54 84.5394 50.22 84.6994 49.66C85.2594 48.22 86.4594 47.42 87.5794 46.54C88.2994 45.98 89.0994 45.5 89.8994 45.02C90.3794 44.7 90.6194 44.86 90.6194 45.42C90.5394 47.1 89.8994 48.54 88.7794 49.82C88.2994 50.38 87.8994 51.1 87.4194 51.66C87.0994 51.98 86.6194 52.14 86.2194 52.46C85.2594 53.26 84.2994 54.14 83.3394 54.94C82.5394 55.58 81.7394 56.22 80.9394 56.86C80.8594 56.78 80.7794 56.7 80.6994 56.62C80.8594 56.22 80.9394 55.82 81.0994 55.42L81.0194 55.58ZM94.0594 62.22C94.4594 62.14 94.8594 62.06 95.2594 61.98C95.2594 62.06 95.2594 62.14 95.2594 62.22C94.9394 62.7 94.5394 62.62 94.0594 62.14V62.22ZM101.979 55.66C102.939 55.58 103.419 55.02 103.579 54.22C103.019 54.7 102.459 55.18 101.899 55.66H101.979ZM122.535 14.3C122.455 13.98 122.295 13.66 122.375 13.34C122.615 11.82 121.575 9.42 120.295 8.62C119.335 8.06 118.375 7.58 117.495 6.94C116.855 6.46 116.615 6.78 116.455 7.26C115.575 9.34 114.775 11.5 113.895 13.58C113.415 14.78 113.495 16.22 112.375 17.1C112.295 17.18 112.295 17.26 112.295 17.34C112.215 17.82 112.215 18.3 112.135 18.78C112.055 19.34 111.895 19.9 111.575 20.46C111.015 21.42 110.935 22.62 110.615 23.66C109.815 26.22 108.935 28.78 108.135 31.34C107.335 34.06 106.615 36.86 105.815 39.66C105.255 41.58 104.695 43.5 104.135 45.42C103.495 47.74 102.855 50.14 102.215 52.46C101.895 53.58 101.575 54.7 101.255 55.98C101.175 55.42 101.095 55.1 101.015 54.78C100.935 54.78 100.855 54.78 100.775 54.78C100.775 55.18 100.775 55.58 100.855 55.98C100.935 56.3 101.175 56.62 101.175 56.94C101.175 57.42 101.015 57.82 100.935 58.3C100.695 59.5 100.455 60.7 100.215 61.9C100.215 61.98 100.135 61.98 100.055 62.06C99.975 61.9 99.895 61.74 99.655 61.34C99.575 61.98 99.415 62.38 99.575 62.62C99.895 63.1 100.215 63.5 99.335 63.74C99.255 63.74 99.175 63.9 99.175 63.98C99.175 65.34 99.015 66.7 99.255 68.06C99.735 70.62 101.175 72.62 103.095 74.46C104.535 75.82 105.975 75.98 107.735 75.34C107.975 75.26 108.215 75.1 108.375 74.94C109.255 73.9 110.055 72.78 110.935 71.74C111.335 71.26 111.495 70.94 111.015 70.54C112.535 68.46 114.055 66.46 115.575 64.46C115.495 64.38 115.415 64.3 115.335 64.22C115.095 64.38 114.855 64.54 114.615 64.78C113.655 65.66 113.015 67.02 111.415 66.78C111.655 66.3 111.895 65.82 112.135 65.34C111.975 65.42 111.735 65.5 111.575 65.66C110.375 67.02 109.255 68.46 107.975 69.74C107.095 70.62 105.975 71.34 104.935 72.06C104.375 72.46 103.895 72.3 103.815 71.58C103.655 70.62 103.335 69.58 103.415 68.62C103.495 67.5 102.695 66.54 103.095 65.34C103.175 65.02 102.935 64.38 103.255 63.98C103.735 63.34 103.735 62.78 103.015 62.3C103.255 61.98 103.895 61.9 103.415 61.34C104.375 60.7 103.735 59.74 103.895 58.94C103.975 58.62 104.215 58.3 104.135 57.98C104.055 57.34 104.295 57.18 104.775 57.02C105.175 56.94 105.575 56.78 105.895 56.54C106.615 56.06 106.775 55.26 107.095 54.54C107.975 52.46 109.015 50.46 109.975 48.46C110.855 46.78 111.735 45.1 112.615 43.42C112.775 43.1 112.855 42.7 113.015 42.38C113.975 40.7 115.015 39.02 115.975 37.26C116.295 36.62 116.455 35.9 116.695 35.26C117.015 34.38 117.495 33.5 117.655 32.62C117.895 31.5 118.775 30.78 118.855 29.58C118.855 28.78 119.415 27.98 119.735 27.18C119.895 26.78 119.975 26.38 120.135 25.98C120.295 25.5 120.455 25.02 120.615 24.54C120.775 23.9 120.455 23.02 121.495 22.86C121.575 22.86 121.655 22.7 121.655 22.62C121.655 22.06 121.655 21.5 121.655 20.86C122.215 20.78 122.295 20.14 122.375 19.66C122.535 18.3 122.615 16.94 122.695 15.58C122.695 15.42 122.535 15.26 122.455 15.1L122.535 14.3ZM102.215 60.3C102.055 60.3 101.895 60.3 101.735 60.3C101.815 59.66 101.895 59.02 101.975 58.38C102.055 58.38 102.135 58.38 102.215 58.38C102.135 59.02 102.055 59.66 101.975 60.3H102.215ZM103.255 53.66C103.175 53.58 103.095 53.5 103.015 53.42C103.335 52.78 103.655 52.14 103.975 51.5C104.055 51.5 104.135 51.5 104.215 51.5C103.975 52.22 103.735 52.94 103.495 53.66H103.255ZM104.455 50.22C104.375 50.22 104.295 50.22 104.215 50.22C104.295 49.58 104.375 48.94 104.455 48.3C104.615 48.3 104.775 48.3 104.935 48.3C104.775 48.94 104.615 49.58 104.455 50.22ZM108.135 36.46C108.295 36.86 108.375 37.18 108.455 37.42C108.215 37.82 107.975 38.22 107.735 38.62C107.655 38.62 107.575 38.62 107.495 38.62C107.655 37.98 107.815 37.34 108.055 36.54L108.135 36.46ZM109.575 43.74C110.215 42.62 110.855 41.5 111.495 40.38C111.415 40.78 111.415 41.26 111.255 41.58C110.855 42.38 110.295 43.1 109.655 43.74H109.575ZM120.135 21.34C120.295 22.14 119.335 22.78 119.895 23.66C119.975 23.74 119.735 24.06 119.655 24.3C119.335 25.1 118.935 25.82 118.615 26.62C118.535 26.86 118.695 27.26 118.775 27.58C118.295 27.74 118.055 27.82 118.135 28.62C118.215 29.42 117.655 30.3 117.335 31.1C117.335 31.18 116.935 31.1 116.615 31.1C117.095 31.82 116.775 32.38 116.455 32.94C116.375 33.02 116.295 33.18 116.215 33.18C114.775 33.5 114.855 34.94 114.295 35.9C114.135 36.14 114.295 36.62 114.295 37.02C114.295 37.18 114.215 37.34 114.135 37.58C113.575 37.18 113.415 37.42 113.095 37.9C112.615 38.78 111.895 39.5 111.255 40.3C110.295 40.62 110.135 41.58 109.655 42.3C108.775 43.66 107.975 45.1 107.175 46.54C107.095 46.62 107.015 46.7 107.015 46.7C106.855 46.22 106.535 45.74 106.615 45.34C106.695 44.86 107.095 44.46 107.415 43.9C107.415 43.9 107.335 43.66 107.175 43.34C107.415 43.26 107.655 43.18 107.895 43.1C107.975 43.02 108.055 42.94 108.135 42.86C107.895 42.78 107.655 42.7 107.415 42.62C107.975 42.06 108.455 41.58 108.935 41.1C109.015 41.02 109.095 40.94 109.095 40.86C108.855 38.94 109.735 37.34 110.295 35.66C110.375 35.5 110.215 35.26 110.295 35.18C110.455 34.54 110.615 33.9 110.855 33.26C110.935 32.94 111.015 32.54 111.255 32.38C111.895 31.9 112.215 31.5 111.815 30.7C111.735 30.46 112.215 29.98 112.535 29.66C112.535 29.42 112.535 29.1 112.615 28.86C113.175 27.58 113.815 26.3 114.375 25.02C114.935 23.74 115.415 22.38 115.895 21.1C116.455 19.66 117.015 18.22 117.495 16.78C117.655 16.22 117.655 15.58 117.895 15.02C118.215 14.14 118.695 13.34 119.175 12.3C120.215 15.66 119.415 18.78 118.935 21.9C119.095 21.9 119.255 21.9 119.415 21.9C119.575 21.1 119.735 20.3 119.895 19.5C119.975 19.5 120.055 19.5 120.135 19.5C120.135 19.98 120.055 20.46 120.135 20.94V21.34ZM114.535 63.1C114.455 63.02 114.375 62.94 114.295 62.86C113.655 63.82 113.015 64.78 112.375 65.74C113.415 65.1 114.055 64.14 114.695 63.18L114.535 63.1ZM102.855 49.02C103.015 48.38 103.175 47.74 103.335 47.1C103.255 47.1 103.175 47.1 103.095 47.1C102.935 47.66 102.775 48.22 102.615 48.78C102.615 48.86 102.695 48.94 102.695 49.02C102.775 49.02 102.855 49.02 102.935 49.02H102.855ZM102.215 52.22C102.295 51.66 102.375 51.1 102.455 50.54C101.655 51.34 101.575 51.82 102.055 52.14L102.215 52.22ZM105.735 38.62C105.655 38.62 105.575 38.62 105.495 38.62C105.335 39.18 105.175 39.74 105.015 40.3C105.095 40.3 105.175 40.3 105.255 40.3C105.495 39.74 105.735 39.18 105.975 38.62H105.735ZM116.535 30.06C116.615 30.06 116.695 30.06 116.775 30.06C117.175 29.18 117.575 28.3 117.975 27.42C117.895 27.42 117.815 27.42 117.735 27.42C117.415 28.3 117.095 29.18 116.775 30.06H116.535ZM131.027 59.1C131.107 58.94 131.187 58.78 131.267 58.62C131.427 58.7 131.587 58.78 131.587 58.78C132.387 57.5 133.187 56.3 133.987 55.1C133.667 55.18 133.427 55.34 133.267 55.5C131.747 57.1 130.227 58.78 128.707 60.38C127.507 61.66 126.307 62.94 125.107 64.14C124.147 65.1 123.107 66.06 122.067 67.02C121.267 67.74 120.307 68.3 119.107 68.38C119.187 67.82 119.187 67.26 119.187 66.7C119.267 65.82 119.187 64.94 119.427 64.14C119.827 62.78 120.387 61.5 120.867 60.14C121.267 59.02 121.507 57.74 122.067 56.7C122.947 55.1 123.107 53.26 123.987 51.66C124.387 50.94 124.547 50.14 124.787 49.34C125.107 48.54 125.427 47.74 124.867 46.86C124.707 46.54 124.467 46.22 124.387 45.9C124.067 44.62 123.187 43.82 122.067 43.34C121.667 43.18 121.027 43.02 120.787 43.74C120.387 45.18 120.067 46.62 119.587 47.98C119.187 49.1 118.627 50.22 118.227 51.34C117.827 52.46 117.427 53.58 117.027 54.7C116.467 56.46 115.907 58.22 115.347 59.98C114.787 61.82 114.467 63.82 114.707 65.74C114.947 67.26 115.107 69.1 116.947 70.06C117.907 70.54 118.627 71.5 119.587 72.06C120.307 72.46 121.347 72.78 122.067 72.54C123.347 72.14 124.307 71.18 125.187 70.14C125.587 69.66 125.507 68.62 126.707 68.94C126.467 68.62 126.387 68.46 126.387 68.46C126.787 67.9 127.107 67.42 127.507 66.78C127.587 66.7 127.907 66.54 128.227 66.38C128.147 66.14 127.987 65.82 128.067 65.74C128.547 65.1 128.867 64.38 129.187 63.58C129.427 63.1 129.987 62.7 130.307 62.22C130.787 61.58 131.267 60.86 131.747 60.22C132.467 59.26 133.187 58.3 133.827 57.34C133.987 57.18 134.067 56.94 134.147 56.78C133.827 56.78 133.667 56.94 133.507 57.1C132.467 58.38 131.427 59.66 130.307 60.94C130.147 61.1 129.827 61.18 129.587 61.26C130.147 60.62 130.707 59.98 131.187 59.34C131.347 59.18 131.347 58.86 131.427 58.62L131.027 59.1ZM129.187 62.46C128.707 62.94 128.147 63.34 127.587 63.82C127.507 63.74 127.427 63.66 127.347 63.58C128.067 62.86 128.787 62.14 129.507 61.42C129.347 61.82 129.267 62.3 129.027 62.54L129.187 62.46ZM134.547 24.38C133.347 23.1 131.907 22.22 130.227 21.82C129.907 21.74 129.507 22.06 129.187 22.22C129.587 23.1 128.867 23.82 128.707 24.62C128.467 25.82 128.147 27.02 127.747 28.14C127.187 29.82 126.467 31.5 125.907 33.18C125.667 33.98 125.587 34.86 125.427 35.9C125.507 36.22 125.587 36.78 125.827 37.26C125.987 37.66 126.387 37.98 126.707 37.42C127.267 36.54 127.667 35.58 128.147 34.7C128.387 34.22 128.707 33.5 129.107 33.42C130.147 33.18 130.787 32.3 131.107 31.66C131.667 30.54 132.227 29.5 133.027 28.54C133.747 27.66 134.227 26.62 134.867 25.66C135.187 25.1 135.107 24.62 134.707 24.22L134.547 24.38ZM158.835 58.06C158.115 58.38 157.555 58.86 156.995 59.34C156.835 59.42 156.595 59.58 156.595 59.58C155.955 59.1 155.475 59.66 154.995 59.9C154.355 60.14 153.715 60.3 153.155 60.62C151.875 61.34 150.675 62.22 149.395 62.94C148.195 63.58 146.915 64.06 145.715 64.7C143.955 65.58 142.275 66.62 140.355 67.26C138.915 67.74 137.475 68.14 136.035 68.54C135.475 68.7 135.075 68.3 135.155 67.74C135.315 66.14 135.955 64.7 136.675 63.34C136.995 62.7 137.475 62.14 137.635 61.5C138.115 59.66 139.315 58.3 140.355 56.78C140.915 55.98 141.555 55.34 141.955 54.54C142.595 53.34 143.075 52.14 144.115 51.26C144.595 50.86 144.995 50.38 145.395 49.9C145.555 50.62 145.475 51.26 145.475 51.9C145.395 52.94 145.555 53.9 146.355 54.62C146.675 54.86 146.995 55.1 147.235 54.54C147.635 53.58 147.955 52.54 148.355 51.42C148.995 51.58 149.395 51.5 149.235 50.62C149.155 50.46 149.315 50.22 149.395 49.98C149.635 48.86 149.795 47.74 148.835 46.78C147.795 45.74 146.835 44.62 145.795 43.58C144.595 42.46 143.315 42.46 142.435 43.58C140.995 45.26 139.635 47.02 138.355 48.86C137.555 49.98 136.995 51.26 136.275 52.46C135.395 53.98 134.355 55.42 133.555 57.02C132.755 58.62 132.275 60.38 131.635 62.06C130.755 64.38 131.395 66.46 132.755 68.38C133.715 69.74 134.755 71.18 136.355 71.98C136.995 72.3 137.635 72.7 138.275 72.7C139.315 72.7 140.355 72.54 141.315 72.22C142.515 71.82 143.635 71.18 144.755 70.62C145.315 70.38 145.875 70.14 146.355 69.82C146.675 69.66 146.835 69.26 147.155 69.1C148.035 68.46 148.915 67.9 149.795 67.34C149.955 67.26 150.195 67.26 150.435 67.18C150.435 66.94 150.435 66.62 150.515 66.22C150.755 66.54 150.835 66.78 150.995 66.94C150.995 66.94 151.315 66.78 151.315 66.7C151.395 65.98 152.035 65.9 152.515 65.66C152.755 65.5 153.155 65.26 153.155 65.1C153.155 64.3 153.875 64.14 154.275 63.66C154.675 63.1 154.915 62.46 155.155 61.98C155.555 61.9 155.875 61.82 156.195 61.74V61.5C155.955 61.5 155.715 61.5 155.315 61.5C156.195 60.14 157.235 59.1 158.435 58.14L158.835 58.06ZM173.093 59.1C173.173 58.94 173.253 58.78 173.333 58.62C173.493 58.7 173.653 58.78 173.653 58.78C174.453 57.5 175.253 56.3 176.053 55.1C175.733 55.18 175.493 55.34 175.333 55.5C173.813 57.1 172.293 58.78 170.773 60.38C169.573 61.66 168.373 62.94 167.173 64.14C166.213 65.1 165.173 66.06 164.133 67.02C163.333 67.74 162.373 68.3 161.173 68.38C161.253 67.82 161.253 67.26 161.253 66.7C161.333 65.82 161.253 64.94 161.493 64.14C161.893 62.78 162.453 61.5 162.933 60.14C163.333 59.02 163.573 57.74 164.133 56.7C165.013 55.1 165.173 53.26 166.053 51.66C166.453 50.94 166.613 50.14 166.853 49.34C167.173 48.54 167.493 47.74 166.933 46.86C166.773 46.54 166.533 46.22 166.453 45.9C166.133 44.62 165.253 43.82 164.133 43.34C163.733 43.18 163.093 43.02 162.853 43.74C162.453 45.18 162.133 46.62 161.653 47.98C161.253 49.1 160.693 50.22 160.293 51.34C159.893 52.46 159.493 53.58 159.093 54.7C158.533 56.46 157.973 58.22 157.413 59.98C156.853 61.82 156.533 63.82 156.773 65.74C157.013 67.26 157.173 69.1 159.013 70.06C159.973 70.54 160.693 71.5 161.653 72.06C162.373 72.46 163.413 72.78 164.133 72.54C165.413 72.14 166.373 71.18 167.253 70.14C167.653 69.66 167.573 68.62 168.773 68.94C168.533 68.62 168.453 68.46 168.453 68.46C168.853 67.9 169.173 67.42 169.573 66.78C169.653 66.7 169.973 66.54 170.293 66.38C170.213 66.14 170.053 65.82 170.133 65.74C170.613 65.1 170.933 64.38 171.253 63.58C171.493 63.1 172.053 62.7 172.373 62.22C172.853 61.58 173.333 60.86 173.813 60.22C174.533 59.26 175.253 58.3 175.893 57.34C176.053 57.18 176.133 56.94 176.213 56.78C175.893 56.78 175.733 56.94 175.573 57.1C174.533 58.38 173.493 59.66 172.373 60.94C172.213 61.1 171.893 61.18 171.653 61.26C172.213 60.62 172.773 59.98 173.253 59.34C173.413 59.18 173.413 58.86 173.493 58.62L173.093 59.1ZM171.253 62.46C170.773 62.94 170.213 63.34 169.653 63.82C169.573 63.74 169.493 63.66 169.413 63.58C170.133 62.86 170.853 62.14 171.573 61.42C171.413 61.82 171.333 62.3 171.093 62.54L171.253 62.46ZM176.613 24.38C175.413 23.1 173.973 22.22 172.293 21.82C171.973 21.74 171.573 22.06 171.253 22.22C171.653 23.1 170.933 23.82 170.773 24.62C170.533 25.82 170.213 27.02 169.813 28.14C169.253 29.82 168.533 31.5 167.973 33.18C167.733 33.98 167.653 34.86 167.493 35.9C167.573 36.22 167.653 36.78 167.893 37.26C168.053 37.66 168.453 37.98 168.773 37.42C169.333 36.54 169.733 35.58 170.213 34.7C170.453 34.22 170.773 33.5 171.173 33.42C172.213 33.18 172.853 32.3 173.173 31.66C173.733 30.54 174.293 29.5 175.093 28.54C175.813 27.66 176.293 26.62 176.933 25.66C177.253 25.1 177.173 24.62 176.773 24.22L176.613 24.38ZM198.531 55.1C197.571 56.06 196.211 55.26 195.251 56.14C195.011 56.14 194.691 56.06 194.451 56.14C193.731 56.38 193.011 56.7 192.291 57.02C192.051 57.1 191.811 57.18 191.651 57.26C192.131 54.78 192.611 52.38 193.011 49.98C193.171 48.86 192.851 47.66 193.491 46.54C193.571 46.46 193.491 46.3 193.411 46.22C192.851 45.1 192.451 43.82 191.651 42.94C190.451 41.58 189.011 40.46 187.571 39.34C186.931 38.86 186.051 38.62 185.251 38.3C184.131 39.98 183.091 41.42 182.211 42.94C181.091 44.78 180.051 46.62 179.011 48.46C177.011 52.06 176.211 56.14 174.851 59.98C174.291 61.5 173.891 63.1 173.251 64.62C172.611 66.14 172.371 67.74 172.531 69.42C172.611 70.22 172.771 71.1 173.251 71.66C174.371 72.94 175.571 74.22 176.931 75.26C178.531 76.54 179.731 76.3 181.171 74.86C181.731 74.22 182.291 73.58 182.771 72.86C184.051 70.94 185.491 69.1 186.851 67.18C187.251 66.62 187.891 66.14 187.651 65.26C187.651 65.18 187.891 64.94 188.051 64.78C188.131 64.7 188.291 64.62 188.291 64.54C188.291 63.42 189.091 62.78 189.891 62.22C191.411 61.1 193.251 60.38 194.611 58.94C194.691 58.86 194.771 58.78 194.851 58.78C195.571 59.02 195.891 58.54 196.371 58.14C197.251 57.26 198.211 56.46 199.171 55.66C199.091 55.5 199.011 55.34 198.931 55.18L198.531 55.1ZM184.051 42.46C184.131 42.46 184.211 42.46 184.291 42.46C182.691 45.34 181.091 48.22 179.491 51.1C179.411 51.02 179.331 50.94 179.251 50.86C180.771 47.9 182.131 44.86 184.131 42.22L184.051 42.46ZM176.611 71.66C176.291 67.74 178.131 64.54 179.011 61.1C180.531 61.98 181.971 62.78 183.491 63.66C181.411 66.38 179.571 69.42 176.691 71.82L176.611 71.66ZM188.291 54.78C187.811 55.9 187.491 57.1 186.931 58.14C186.691 58.54 186.131 58.94 185.651 59.1C184.371 59.42 183.091 59.58 181.811 59.82C181.171 59.9 180.851 59.66 180.931 59.02C181.011 58.38 181.011 57.66 181.251 57.02C181.971 55.1 183.011 53.26 183.411 51.26C183.651 50.14 184.451 49.34 184.531 48.22C184.611 47.82 185.091 47.42 185.331 47.02C186.131 45.82 186.851 44.62 187.651 43.42C187.971 42.94 188.451 42.54 189.011 41.98C190.211 44.54 189.971 47.02 189.891 49.66C190.051 49.5 190.131 49.42 190.131 49.34C190.131 49.26 190.131 49.18 190.131 49.1C190.211 49.1 190.291 49.1 190.371 49.1C190.371 49.58 190.451 50.06 190.371 50.54C190.291 51.1 190.211 51.66 189.971 52.06C189.731 52.46 189.251 52.7 188.851 53.02C188.931 53.1 189.011 53.18 189.091 53.26C189.251 53.26 189.411 53.26 189.651 53.26C189.571 53.5 189.491 53.74 189.411 53.74C188.531 53.74 188.531 54.54 188.291 55.02V54.78ZM191.651 53.18C191.011 53.66 191.491 54.3 191.331 54.86C191.011 55.9 190.691 56.94 190.211 57.9C190.051 58.22 189.411 58.3 189.011 58.46C188.931 58.38 188.851 58.3 188.771 58.22C189.171 57.18 189.651 56.14 190.051 55.02C190.211 54.62 190.211 54.22 190.371 53.82C190.531 53.5 190.771 53.18 190.931 52.86C191.011 52.7 191.091 52.54 191.091 52.38C191.011 52.06 190.851 51.74 190.851 51.42C191.011 49.42 191.171 47.42 191.331 45.34C191.971 46.46 192.211 47.5 191.251 48.7C191.731 48.62 191.891 48.62 192.211 48.62C191.971 50.14 191.731 51.58 191.491 53.02C191.491 53.1 191.491 53.26 191.411 53.26L191.651 53.18ZM189.651 50.54C189.491 50.54 189.331 50.54 189.171 50.54C189.011 51.1 188.851 51.66 188.691 52.22C188.771 52.22 188.851 52.22 188.931 52.22C189.091 51.66 189.251 51.1 189.411 50.54H189.651ZM232.091 57.26C231.531 57.9 231.051 58.38 230.571 58.86C230.251 59.18 229.851 59.42 229.531 59.66C227.611 61.1 225.771 62.62 223.851 63.98C222.651 64.86 221.371 65.58 220.091 66.22C218.891 66.86 217.771 67.66 216.331 67.66C215.531 67.66 215.051 67.34 215.131 66.7C215.291 65.66 215.451 64.62 215.611 63.58C216.091 60.54 217.291 57.74 218.251 54.86C218.411 54.38 218.811 53.9 218.811 53.42C218.811 52.38 219.451 51.98 220.171 51.5C220.411 51.34 220.731 50.78 220.651 50.62C220.171 49.82 219.611 49.1 218.971 48.46C218.571 48.06 218.011 47.82 217.531 47.42C216.891 46.86 216.411 46.78 216.091 47.34C215.371 48.78 214.731 50.3 214.011 51.74C213.771 52.22 213.451 52.7 213.051 53.1C211.691 54.54 210.171 55.9 208.811 57.34C206.731 59.58 204.731 61.9 202.651 64.14C202.091 64.78 201.371 65.26 200.731 65.82C200.651 65.26 200.731 64.86 200.811 64.46C200.971 63.82 201.051 63.1 201.211 62.46C201.531 61.34 201.931 60.22 202.331 59.18C202.971 57.58 203.451 55.9 204.331 54.46C205.291 52.78 205.291 51.02 205.211 49.26C205.131 48.14 204.251 47.42 203.371 46.78C202.651 46.22 202.491 46.3 202.011 47.02C200.731 49.26 199.851 51.66 199.051 54.14C198.171 56.78 197.291 59.42 196.491 62.14C195.531 65.5 196.411 68.54 198.331 71.26C198.731 71.9 199.371 72.46 200.011 72.78C201.211 73.34 203.531 71.82 204.091 70.3C204.251 69.82 204.571 69.34 204.891 68.94C205.451 68.3 206.251 67.82 206.171 66.78C206.171 66.62 206.331 66.46 206.411 66.3C206.651 65.82 206.891 65.34 207.211 64.86C207.451 64.54 207.771 64.22 208.091 63.9C208.331 63.66 208.651 63.42 208.811 63.1C209.371 62.22 209.931 61.26 210.491 60.3C210.571 60.3 210.651 60.3 210.731 60.3C210.731 60.86 210.731 61.42 210.731 61.98C210.731 62.62 210.651 63.34 210.811 63.98C211.371 65.74 211.771 67.58 212.891 69.1C213.771 70.3 214.571 71.42 216.011 72.14C217.371 72.78 218.571 72.78 219.851 72.22C220.331 71.98 220.971 71.9 221.371 71.58C221.851 71.18 222.011 70.46 222.411 69.98C222.971 69.42 223.611 69.02 224.011 68.22C224.411 67.42 225.371 66.94 226.011 66.3C226.251 66.06 226.331 65.66 226.571 65.34C226.811 65.02 227.051 64.7 227.371 64.46C228.251 63.82 228.971 63.1 228.971 61.9C228.971 61.74 229.211 61.58 229.371 61.42C229.531 61.18 229.771 61.02 229.931 60.78C230.411 59.74 230.891 58.7 231.371 57.66C231.451 57.5 231.371 57.26 231.371 56.94L232.091 57.26ZM205.051 63.34C204.971 63.26 204.891 63.18 204.811 63.1C205.051 62.78 205.291 62.46 205.531 62.14C205.691 61.98 205.931 61.82 205.931 61.66C205.851 60.7 206.491 60.86 207.131 60.94C206.411 61.66 206.251 62.86 205.131 63.26L205.051 63.34ZM209.211 59.26C208.971 59.58 208.651 59.9 208.331 60.22C208.171 60.38 208.011 60.54 207.851 60.7C207.691 60.46 207.531 60.22 207.371 59.98C207.211 60.06 207.051 60.14 206.891 60.22C206.811 60.14 206.731 60.06 206.651 59.98C206.971 59.66 207.371 59.02 207.611 59.1C208.411 59.26 208.811 58.7 209.291 58.38C209.371 58.46 209.451 58.54 209.531 58.62C209.451 58.86 209.371 59.1 209.211 59.26ZM223.211 66.14C222.731 66.46 222.251 66.86 221.771 67.18C221.531 67.34 221.291 67.34 221.051 67.42C221.131 67.18 221.131 66.78 221.291 66.62C221.771 66.22 222.331 65.74 222.891 65.66C223.531 65.58 223.691 65.26 223.851 64.78C223.851 64.7 223.931 64.62 224.091 64.46C224.331 65.34 223.931 65.82 223.291 66.22L223.211 66.14ZM225.051 64.14C225.131 64.38 225.211 64.62 225.291 64.86C225.211 64.94 225.131 65.02 225.051 65.1C224.891 64.94 224.651 64.78 224.571 64.62C224.491 64.46 224.571 64.06 224.731 63.9C225.851 63.02 227.051 62.14 228.251 61.26C228.251 61.26 228.331 61.26 228.651 61.34C227.371 62.38 226.251 63.34 225.051 64.3V64.14ZM247.569 56.06C249.409 54.14 252.129 53.74 254.209 52.3C250.369 53.74 246.689 55.58 242.929 57.66C243.409 57.9 243.649 57.98 243.809 58.06C243.409 58.38 243.009 58.7 242.609 59.02C242.129 59.42 241.969 59.34 241.809 58.62C242.689 58.54 242.689 58.54 242.689 57.66C241.409 58.46 240.209 59.26 239.009 59.98C238.769 60.14 238.289 60.3 238.129 60.14C236.769 59.18 235.409 58.14 234.129 57.02C233.729 56.7 233.489 56.14 233.409 55.66C233.009 53.42 234.129 51.66 235.329 50.06C236.529 48.46 237.969 46.94 239.329 45.42C240.129 44.54 241.009 43.74 241.969 43.1C243.249 42.14 244.609 41.26 246.049 40.46C246.689 40.14 247.489 39.98 248.209 39.82C248.529 39.74 248.929 39.98 249.409 40.14C249.409 39.82 249.489 39.5 249.409 39.26C248.929 37.5 247.969 36.06 246.289 35.34C245.569 35.02 244.689 34.86 243.729 35.26C242.289 35.9 241.329 37.02 240.129 37.98C238.209 39.5 236.369 41.1 234.769 43.02C232.929 45.34 231.169 47.58 230.769 50.7C230.289 54.46 231.169 57.74 233.649 60.62C234.049 61.02 234.369 61.34 233.809 61.9C234.609 61.5 235.009 61.98 235.409 62.54C235.089 62.86 234.769 63.18 234.449 63.5C233.809 63.18 233.809 63.18 233.649 63.9C233.569 64.06 233.249 64.22 233.009 64.3C232.769 64.38 232.529 64.3 232.289 64.3C232.289 64.38 232.289 64.46 232.289 64.54C231.969 64.94 231.649 65.34 231.249 65.82C231.649 65.82 231.889 65.82 232.129 65.82C232.129 65.9 232.129 65.98 232.129 66.06C231.889 66.22 231.649 66.38 231.409 66.54C231.089 65.9 230.449 66.14 229.969 65.98C229.969 66.7 229.409 66.86 228.929 67.1C228.289 67.42 227.649 67.74 227.169 68.22C226.289 69.02 225.489 69.98 224.689 70.86C225.729 68.78 227.729 67.5 228.849 65.42C228.609 65.58 228.289 65.74 228.049 65.98C227.489 66.46 227.009 66.94 226.529 67.42C224.929 69.02 223.249 70.62 223.969 73.26C223.969 73.34 223.969 73.42 223.969 73.5C223.489 74.86 224.049 76.14 224.369 77.42C224.529 78.3 224.929 79.1 225.009 79.98C225.169 81.1 225.889 81.82 226.609 82.54C228.369 84.38 230.769 84.38 233.089 84.3C235.489 84.22 237.569 83.02 239.729 82.14C241.569 81.34 243.169 80.14 244.689 78.78C246.369 77.34 247.169 75.74 246.609 73.5C246.529 73.18 246.449 72.78 246.449 72.46C246.609 71.18 246.209 69.98 245.649 68.86C244.289 66.14 242.449 63.82 240.209 61.74C240.049 61.58 239.889 61.42 239.649 61.1C243.249 58.3 247.329 56.54 251.489 54.38C249.809 54.22 248.849 55.34 247.569 55.66V56.06ZM240.289 66.06C241.569 67.18 242.689 68.46 243.809 69.74C244.289 70.3 244.289 71.02 243.729 71.58C242.609 72.7 241.569 73.9 240.289 74.86C239.329 75.58 238.129 75.98 237.089 76.54C236.049 77.02 235.089 77.58 234.049 78.06C233.329 78.38 232.529 78.62 231.729 78.7C230.369 78.86 229.009 78.86 227.809 77.98C226.129 76.78 225.729 75.34 226.849 73.5C227.249 72.78 227.729 72.06 228.289 71.34C228.769 70.7 229.329 70.06 229.889 69.42C229.329 69.34 229.489 68.94 229.889 68.62C231.809 67.02 233.409 65.02 235.729 63.9C235.809 63.9 235.809 63.82 235.889 63.66C235.649 63.66 235.489 63.66 235.329 63.66C235.169 63.66 235.009 63.74 234.769 63.58C235.169 63.34 235.569 63.1 235.889 62.94C237.409 64.06 238.929 65.02 240.289 66.22V66.06Z" fill="url(#paint0_linear_5_39)" fill-opacity="0.9"/>
<defs>
<linearGradient id="paint0_linear_5_39" x1="0" y1="-10.5" x2="263.616" y2="24.3806" gradientUnits="userSpaceOnUse">
<stop stop-color="#F5D37A"/>
<stop offset="1" stop-color="#CFAA4C"/>
</linearGradient>
</defs>
</svg>
