<svg width="18" height="19" viewBox="0 0 18 19" fill="none" xmlns="http://www.w3.org/2000/svg">
<path d="M9 0.75C4.16797 0.75 0.25 4.66797 0.25 9.5C0.25 14.332 4.16797 18.25 9 18.25C13.832 18.25 17.75 14.332 17.75 9.5C17.75 4.66797 13.832 0.75 9 0.75ZM9 16.7656C4.98828 16.7656 1.73438 13.5117 1.73438 9.5C1.73438 5.48828 4.98828 2.23438 9 2.23438C13.0117 2.23438 16.2656 5.48828 16.2656 9.5C16.2656 13.5117 13.0117 16.7656 9 16.7656ZM9.10938 6.36133C10.1445 6.36133 10.8477 7.02148 10.9258 7.99023C10.9316 8.07227 11 8.13477 11.082 8.13477H12.1895C12.2402 8.13477 12.2812 8.09375 12.2812 8.04297C12.2812 6.34961 10.9453 5.16406 9.10352 5.16406C6.95703 5.16406 5.71875 6.61328 5.71875 9.00781V10.0293C5.71875 12.4062 6.95703 13.8359 9.10352 13.8359C10.9395 13.8359 12.2812 12.6875 12.2812 11.0742C12.2812 11.0234 12.2402 10.9824 12.1895 10.9824H11.0801C10.998 10.9824 10.9316 11.0449 10.9238 11.125C10.8418 12.0254 10.1406 12.6445 9.10742 12.6445C7.83203 12.6445 7.11328 11.709 7.11328 10.0352V9.00781C7.11523 7.30859 7.83594 6.36133 9.10938 6.36133Z" fill="#C7C7C7"/>
</svg>
