<svg width="387" height="169" viewBox="0 0 387 169" fill="none" xmlns="http://www.w3.org/2000/svg">
<path d="M183.746 5.69999C183.896 5.4 183.446 4.8 183.146 4.49999C182.246 3.74999 181.046 3.3 180.446 2.39999C179.546 0.899992 178.346 0.149992 176.546 0.149992C169.046 0.149992 161.546 -5.72205e-06 154.046 -5.72205e-06C151.796 -5.72205e-06 149.546 0.29999 147.296 0.599995C144.296 0.899992 141.296 1.34999 138.296 1.79999C136.496 2.09999 134.696 2.39999 132.896 2.7C131.396 2.99999 129.896 3.3 128.396 3.59999C128.246 3.59999 128.096 3.44999 127.946 3.44999C128.096 3.14999 128.246 2.84999 128.396 2.55C128.246 2.39999 128.096 2.24999 127.946 2.09999C126.746 2.84999 125.546 3.59999 124.046 4.49999C124.946 4.94999 125.546 5.4 126.146 5.4C127.196 5.54999 128.246 5.4 129.296 5.24999C131.546 4.94999 133.646 4.49999 135.896 4.19999C138.446 3.74999 140.996 3.3 143.546 2.99999C147.146 2.7 150.746 2.55 154.346 2.39999C160.046 2.09999 165.746 1.95 171.446 1.79999C172.796 1.79999 174.146 1.95 175.496 2.09999C175.496 2.24999 175.496 2.39999 175.496 2.55C174.896 2.55 174.296 2.55 173.696 2.55C169.796 2.84999 165.896 3.14999 161.996 3.44999C161.696 3.44999 161.246 3.59999 161.096 3.9C160.196 4.94999 159.146 4.65 158.246 4.34999C156.596 3.74999 155.096 2.55 153.296 3.9C153.146 4.05 152.846 3.9 152.696 3.9C152.096 4.05 151.496 4.19999 151.046 4.49999C150.446 4.8 149.996 5.54999 149.396 5.54999C147.146 5.54999 145.046 5.4 143.096 6.59999C142.646 6.89999 141.896 6.59999 141.296 6.59999C140.546 6.59999 139.796 6.44999 139.046 6.59999C137.396 6.75 135.746 7.19999 134.096 7.34999C133.046 7.5 131.996 7.34999 130.946 7.34999C129.746 7.5 128.546 7.64999 127.346 7.79999C125.996 7.94999 124.646 8.25 123.296 8.54999C123.296 8.69999 123.296 8.85 123.296 8.99999C125.996 8.85 128.996 7.34999 131.246 10.2C130.796 10.35 130.496 10.5 130.196 10.5C125.396 11.25 120.596 12 115.796 12.9C112.796 13.35 109.796 13.65 106.946 14.55C103.796 15.6 100.346 15.3 97.3463 16.95C92.2463 17.1 87.4463 18.6 82.6463 20.25C81.7463 20.55 80.8463 20.85 79.9463 21C79.6463 21 78.8963 20.25 78.8963 19.95C79.0463 19.05 79.4963 18.15 79.7963 17.25C82.0463 17.4 87.7463 15.3 88.1963 14.1C87.7463 14.25 87.2963 14.25 86.8463 14.4C84.7463 15 82.6463 15.75 80.5463 16.35C80.0963 16.5 79.4963 16.05 79.0463 15.9C79.3463 15.6 79.6463 15.15 80.0963 15C81.5963 14.55 83.0963 14.25 84.5963 13.8C86.6963 13.2 88.7963 12.3 91.0463 11.7C95.0963 10.65 99.1463 9.74999 103.196 8.69999C103.796 8.54999 104.396 8.25 104.996 7.94999C102.296 8.54999 99.5963 8.99999 96.8963 9.6C91.1963 10.95 85.4963 12.45 79.7963 13.95C79.3463 14.1 78.8963 14.25 78.2963 14.4C78.8963 11.7 77.3963 10.35 75.5963 9.14999C74.2463 8.25 72.8963 8.85 72.2963 10.35C71.6963 12.15 71.0963 13.95 70.3463 15.75C70.1963 16.2 69.7463 16.8 69.2963 16.95C68.0963 17.4 66.8963 17.7 65.6963 18C64.9463 18.15 64.0463 18.15 63.2963 18.45C61.6463 19.05 59.9963 19.65 58.3463 20.25C55.6463 21.3 52.7963 22.2 50.0963 23.25C48.4463 24 46.9463 25.05 45.2963 25.8C41.9963 27.15 38.5463 28.35 35.2463 29.7C31.0463 31.35 26.9963 33.15 22.9463 34.95C20.5463 36 18.1463 37.35 15.7463 38.55C11.6963 40.65 7.64629 42.75 3.74629 45.15C0.596289 47.1 0.746289 47.25 2.39629 50.4C3.14629 51.9 4.79629 52.65 6.29629 52.05C9.29629 50.85 12.1463 49.35 14.9963 48C16.0463 47.55 17.3963 47.4 18.4463 46.95C22.3463 45.3 26.2463 43.5 30.1463 41.85C32.8463 40.65 35.5463 39.75 38.2463 38.7C40.4963 37.8 42.7463 36.6 44.9963 35.7C48.7463 34.2 52.4963 32.85 56.2463 31.5C58.0463 30.75 59.8463 30 61.6463 29.4C62.8463 28.95 64.0463 28.65 65.5463 28.2C65.3963 29.1 65.3963 29.7 65.2463 30.3C64.6463 32.4 63.8963 34.5 63.1463 36.6C62.5463 38.4 61.9463 40.2 61.4963 42C60.4463 45.45 59.3963 48.9 58.3463 52.35C57.2963 55.95 56.0963 59.55 55.1963 63.15C54.7463 64.65 53.8463 65.25 52.4963 65.7C46.7963 67.8 41.0963 69.9 35.3963 72.3C32.9963 73.35 30.7463 75 28.4963 76.35C27.5963 76.95 27.4463 78.6 28.3463 79.05C29.5463 79.65 31.1963 80.25 32.2463 79.8C35.3963 78.45 38.5463 78 41.8463 77.85C43.6463 77.85 45.4463 77.25 47.2463 76.8C48.5963 76.5 49.7963 76.05 51.4463 75.6C50.3963 79.35 49.4963 82.8 48.4463 86.25C47.6963 88.95 46.7963 91.5 46.0463 94.2C44.9963 98.1 44.0963 102.15 43.0463 106.05C42.1463 109.65 41.0963 113.25 40.3463 116.85C39.4463 121.05 38.9963 125.25 38.2463 129.45C37.3463 134.1 36.4463 138.75 36.7463 143.55C36.8963 144.9 36.7463 146.4 37.1963 147.75C38.6963 152.55 40.9463 157.05 44.6963 160.5C46.7963 162.45 47.9963 162.75 50.5463 161.25C52.3463 160.2 53.2463 158.7 54.2963 157.2C55.0463 156.15 55.7963 155.1 56.5463 154.05C56.8463 153.6 56.9963 153 57.1463 152.55C56.9963 152.4 56.8463 152.25 56.6963 152.1C56.2463 152.85 55.7963 153.6 55.3463 154.35C55.1963 154.2 55.0463 154.05 54.8963 153.9C55.7963 152.4 56.6963 150.9 57.5963 149.4C56.9963 150 56.3963 150.6 55.7963 151.2C56.3963 150.15 56.9963 149.1 57.5963 148.05C55.6463 149.55 53.8463 151.2 52.1963 153C50.5463 154.8 48.5963 156.3 46.1963 156.9C45.8963 156.3 45.7463 155.85 45.5963 155.4C45.2963 154.35 44.6963 153.3 44.6963 152.25C44.8463 150.3 43.9463 148.35 44.3963 146.25C44.5463 145.65 44.3963 144.9 44.3963 144.45C44.5463 143.55 44.3963 142.8 44.6963 142.5C46.0463 141.3 45.7463 139.35 45.1463 138.6C43.9463 136.95 44.9963 136.2 45.7463 135.3C45.4463 134.85 44.8463 134.25 44.9963 133.95C45.5963 132.6 44.8463 130.8 46.6463 129.9C46.7963 129.75 46.9463 129.15 46.7963 128.85C46.1963 127.35 46.3463 126 47.6963 125.1C47.3963 124.5 46.7963 123.9 46.9463 123.45C47.3963 121.8 47.6963 119.85 48.7463 118.8C49.7963 117.75 49.4963 117.45 48.7463 116.85C49.3463 115.8 49.9463 114.9 50.5463 113.85C50.2463 113.7 49.9463 113.55 49.6463 113.4C49.7963 113.1 49.9463 112.8 49.9463 112.5C50.3963 110.55 50.2463 108.45 51.8963 106.95C52.0463 106.8 52.0463 106.35 51.8963 106.2C51.1463 105.3 51.7463 104.85 52.3463 104.25C52.7963 103.8 53.3963 103.35 52.4963 102.6C52.1963 102.3 52.4963 101.25 52.4963 100.5C52.7963 100.8 52.9463 100.95 53.0963 101.1C53.0963 100.05 52.9463 98.85 53.2463 97.8C53.5463 96.9 54.2963 96 54.8963 95.25C55.6463 94.5 55.4963 93.9 54.7463 93.3C54.5963 93.15 54.5963 93 54.5963 92.7C54.8963 92.55 55.1963 92.4 55.4963 92.25C55.1963 91.65 55.0463 91.35 54.8963 91.05C56.5463 90.15 56.9963 89.1 56.3963 87.9C56.6963 87.3 57.1463 86.85 57.2963 86.4C57.5963 85.35 57.5963 84.3 57.4463 83.1C57.2963 81.15 58.0463 79.05 59.9963 77.7C60.2963 77.4 60.2963 76.65 60.4463 76.2C60.5963 75.45 60.5963 74.55 60.8963 73.95C61.7963 72.45 63.2963 72 64.9463 71.7C68.5463 70.95 72.1463 70.05 75.7463 69.45C78.4463 69 81.1463 68.7 83.8463 68.4C85.3463 68.25 86.8463 67.95 88.3463 67.8C90.2963 67.65 92.2463 67.5 94.1963 67.5C96.7463 67.35 99.2963 66.3 101.996 67.05C103.046 67.35 105.296 67.95 105.446 65.4C104.246 63.45 103.046 61.5 101.696 59.55C101.396 59.1 100.796 58.65 100.346 58.65C98.3963 58.65 96.4463 58.65 94.4963 58.8C90.7463 59.25 86.9963 59.7 83.2463 60.15C79.7963 60.6 76.3463 61.05 72.8963 61.5C70.4963 61.8 68.0963 62.1 65.6963 62.4C65.2463 62.4 64.7963 62.1 64.6463 62.1C65.5463 59.1 66.2963 56.25 67.0463 53.4C66.7463 53.1 66.4463 52.8 66.1463 52.5C66.7463 51.9 67.4963 51.6 67.6463 51.15C68.6963 48.3 69.5963 45.45 70.4963 42.6C70.9463 41.4 71.2463 40.05 71.6963 38.85C73.1963 34.65 74.8463 30.45 76.1963 26.1C76.6463 24.9 77.2463 24.45 78.2963 24.15C84.7463 22.35 91.1963 20.55 97.6463 18.75C101.696 17.7 105.746 16.35 109.796 15.45C112.646 14.85 115.646 14.7 118.646 14.1C121.496 13.65 124.196 12.75 127.046 12.3C129.446 11.85 131.996 12.45 134.396 11.1C134.996 10.8 135.746 10.65 136.346 10.5C139.046 10.05 141.746 9.6 144.446 9.29999C145.796 9.14999 147.296 9.6 148.646 9.29999C152.696 8.25 156.896 9.45 161.096 8.25C163.346 7.5 166.046 8.1 168.746 8.1C168.446 9.45 169.046 9.29999 170.246 9.14999C173.246 8.85 176.246 7.94999 179.096 9.45C179.696 9.74999 180.446 10.05 181.196 10.2C181.496 10.35 181.946 10.35 182.096 10.2C182.546 9.74999 182.996 9.29999 183.596 8.69999C182.696 7.79999 182.096 6.75 182.696 5.24999L183.746 5.69999ZM40.4963 137.55C40.3463 137.55 40.1963 137.55 40.0463 137.55C40.1963 135.75 40.3463 133.95 40.4963 132.15C40.6463 132.15 40.7963 132.15 40.9463 132.15C40.6463 133.95 40.3463 135.75 40.0463 137.55H40.4963ZM42.5963 122.1C42.4463 122.1 42.2963 122.1 42.1463 122.1C42.5963 120.15 43.0463 118.2 43.4963 116.25C43.6463 116.25 43.7963 116.25 43.9463 116.25C43.4963 118.2 43.0463 120.15 42.5963 122.1ZM46.0463 99.6C45.8963 99.6 45.7463 99.6 45.5963 99.6C46.3463 98.55 45.1463 97.05 46.4963 96.15C46.6463 96.15 46.7963 96.15 46.9463 96.15C46.4963 97.35 46.0463 98.55 45.5963 99.75L46.0463 99.6ZM46.6463 103.65C46.4963 103.65 46.3463 103.65 46.1963 103.65C46.7963 101.4 47.3963 99.15 47.9963 96.9C48.1463 96.9 48.2963 96.9 48.4463 96.9C47.8463 99.15 47.2463 101.4 46.6463 103.65ZM51.1463 79.65C50.9963 79.65 50.8463 79.65 50.6963 79.65C51.1463 78.3 51.5963 76.95 52.0463 75.6C52.1963 75.6 52.3463 75.6 52.4963 75.6C52.0463 76.95 51.5963 78.3 51.1463 79.65ZM56.3963 62.55C56.2463 62.55 56.0963 62.55 55.9463 62.55C56.5463 60.6 57.1463 58.65 57.7463 56.7C58.0463 56.85 58.3463 57 58.6463 57.15C58.0463 58.95 57.4463 60.75 56.8463 62.55H56.3963ZM62.6963 24.9C60.7463 25.05 58.9463 25.5 57.2963 26.7C56.8463 27 55.9463 26.85 55.1963 27C55.1963 26.4 55.1963 26.1 55.1963 25.5C54.1463 26.25 53.8463 28.5 52.0463 26.7C52.0463 28.2 51.7463 28.5 50.2463 28.05C49.1963 27.75 47.6963 28.35 46.4963 28.65C45.8963 28.8 45.4463 29.55 44.8463 29.55C42.8963 29.85 41.2463 30.6 39.7463 31.8C39.4463 31.95 38.9963 31.95 38.5463 31.8C38.8463 31.5 39.1463 31.2 39.7463 30.6C38.8463 30.75 38.0963 30.9 37.3463 31.05C37.3463 30.9 37.3463 30.75 37.3463 30.6C41.8463 28.8 46.3463 27 50.8463 25.2C50.6963 24.9 50.5463 24.6 50.3963 24.3C48.5963 24.9 46.7963 25.35 45.1463 26.1C42.1463 27.45 39.1463 28.8 36.1463 30.3C34.9463 30.9 34.1963 32.1 33.1463 32.85C32.3963 33.45 31.4963 33.75 30.5963 33.9C32.0963 31.5 34.3463 30.15 36.7463 29.1C40.3463 27.45 43.9463 25.95 47.6963 24.6C52.4963 22.8 57.2963 21.3 62.0963 19.65C62.2463 19.65 62.5463 19.8 63.1463 19.8C62.0963 20.55 61.3463 21.15 60.5963 21.75C60.7463 21.9 60.8963 22.05 61.0463 22.2C63.1463 21.75 65.2463 21.3 67.4963 20.85C66.5963 24 65.5463 24.9 62.5463 25.05L62.6963 24.9ZM87.5963 14.1C88.6463 14.25 89.6963 14.4 90.7463 14.55C91.0463 14.25 91.3463 13.5 91.7963 13.35C94.1963 12.75 96.5963 12.3 98.9963 11.85C100.196 11.7 101.396 11.7 102.596 11.85C103.796 12 104.096 10.8 104.996 10.65C107.246 10.2 109.646 9.6 112.046 9.6C114.896 9.6 117.746 9.74999 120.746 8.25C109.046 8.1 98.2463 11.25 87.4463 13.65C87.4463 13.8 87.4463 13.95 87.4463 14.1H87.5963ZM107.096 7.5C108.596 8.25 109.646 6.89999 110.846 6.75C111.446 6.59999 112.196 6.75 112.946 6.75C113.396 6.75 113.846 6.89999 114.146 6.75C114.896 6.29999 115.646 5.69999 116.396 5.09999C116.246 5.09999 115.946 5.09999 115.646 5.09999C112.046 5.69999 108.446 6.29999 104.846 6.89999C104.696 6.89999 104.546 7.19999 104.396 7.34999C105.146 7.5 105.896 7.64999 106.946 7.94999C106.946 7.94999 107.396 7.5 107.546 7.5H107.096ZM122.396 5.4C120.746 4.05 120.146 3.9 118.796 4.8C119.996 5.09999 121.196 5.4 122.396 5.69999C122.396 5.54999 122.396 5.4 122.396 5.24999V5.4ZM52.0463 24.15C52.0463 24.3 52.0463 24.45 52.0463 24.6C54.2963 24 56.5463 23.4 58.7963 22.8C58.7963 22.65 58.7963 22.5 58.7963 22.35C56.5463 23.1 54.2963 23.85 52.0463 24.6V24.15ZM123.876 118.95C123.276 119.4 122.676 120 122.076 120.45C120.876 121.35 119.676 122.25 118.476 123.15C117.426 123.9 116.226 124.5 115.176 125.1C115.026 124.95 114.876 124.8 114.726 124.65C115.926 123.75 117.126 122.85 118.626 121.8C118.026 121.8 117.726 121.65 117.576 121.8C116.076 122.7 114.576 123.6 113.076 124.5C110.526 126.15 107.976 127.8 105.426 129.6C104.226 130.5 103.176 131.55 101.826 132.3C100.926 132.75 99.2764 132.15 99.4264 134.1C99.4264 134.1 99.1264 134.25 98.9764 134.4C97.4764 135.15 95.9764 135.75 94.6264 136.5C91.6264 138.3 88.4764 139.8 85.0264 140.1C83.8264 140.25 82.3264 140.7 81.5764 139.05C80.0764 135.75 80.6764 132.45 81.5764 129.15C82.0264 127.2 82.4764 125.25 83.0764 123.3C83.2264 122.55 83.5264 121.8 83.8264 121.05C84.4264 121.65 85.1764 122.1 85.7764 122.7C87.1264 124.35 89.8264 124.8 91.3264 123.45C94.7764 120.3 98.3764 117.15 101.526 113.7C103.326 111.75 105.726 109.95 106.026 106.8C106.026 106.65 106.176 106.5 106.326 106.35C108.426 105.3 108.426 102.9 109.026 101.25C109.776 99.45 109.326 96.9 108.876 94.8C108.126 91.35 105.276 89.25 102.726 87.15C101.226 85.95 99.4264 85.65 97.7764 86.55C95.2264 87.75 92.6764 88.95 90.4264 90.6C88.4764 91.95 86.6764 93.6 85.1764 95.55C83.2264 97.95 81.5764 100.65 79.9264 103.35C79.0264 104.7 78.4264 106.2 77.6764 107.7C76.3264 110.4 74.8264 113.1 73.6264 115.8C72.8764 117.45 72.7264 119.4 72.1264 121.2C70.7764 125.1 71.2264 129.15 72.7264 132.75C74.5264 137.1 76.4764 141.75 80.3764 144.9C83.0764 147.15 85.9264 149.4 89.6764 149.25C91.1764 149.1 92.8264 148.8 94.3264 148.35C95.6764 147.9 97.0264 147.15 98.2264 146.4C98.8264 146.1 99.2764 145.5 99.8764 145.05C102.426 143.25 104.976 141.6 107.526 139.8C108.726 138.9 110.376 138 110.676 136.8C111.126 135 112.626 134.55 113.526 133.35C113.976 132.75 114.576 132.3 115.026 131.7C116.676 129.6 118.176 127.5 119.676 125.4C119.976 125.1 120.276 124.8 120.576 124.5C121.626 123.45 122.826 122.55 123.876 121.35C124.776 120.45 125.376 119.25 126.126 118.2C125.976 118.05 125.826 117.9 125.676 117.75C125.076 118.05 124.476 118.35 123.876 118.8V118.95ZM86.0764 114.15C86.6764 112.8 87.4264 111.45 88.1764 110.1C88.3264 109.8 88.4764 109.35 88.7764 109.05C89.8264 108 90.8764 106.95 90.1264 105.75C91.3264 104.7 92.6764 104.1 92.9764 103.05C94.0264 100.35 96.2764 98.85 98.3764 97.2C99.7264 96.15 101.226 95.25 102.726 94.35C103.626 93.75 104.076 94.05 104.076 95.1C103.926 98.25 102.726 100.95 100.626 103.35C99.7264 104.4 98.9764 105.75 98.0764 106.8C97.4764 107.4 96.5764 107.7 95.8264 108.3C94.0264 109.8 92.2264 111.45 90.4264 112.95C88.9264 114.15 87.4264 115.35 85.9264 116.55C85.7764 116.4 85.6264 116.25 85.4764 116.1C85.7764 115.35 85.9264 114.6 86.2264 113.85L86.0764 114.15ZM110.526 126.6C111.276 126.45 112.026 126.3 112.776 126.15C112.776 126.3 112.776 126.45 112.776 126.6C112.176 127.5 111.426 127.35 110.526 126.45V126.6ZM125.376 114.3C127.176 114.15 128.076 113.1 128.376 111.6C127.326 112.5 126.276 113.4 125.226 114.3H125.376ZM172.821 118.5C173.271 117.75 174.021 117 174.021 116.25C174.171 114.6 172.371 115.05 171.621 114.15C169.071 117.6 166.671 120.9 163.971 124.5C163.821 123.6 163.821 123.15 163.671 122.4C163.221 123.15 162.921 123.6 162.621 124.05C163.521 124.5 163.971 124.95 163.071 125.7C162.621 126 162.471 126.6 162.021 127.05C161.571 127.5 160.821 128.25 160.521 128.1C159.471 127.65 159.171 128.4 158.721 129C157.371 130.65 156.021 132.3 154.671 133.95C154.371 134.25 154.071 134.4 153.771 134.7C153.621 134.7 153.471 134.7 153.321 134.7C153.471 131.4 153.471 128.1 153.921 124.8C154.221 122.1 154.971 119.4 155.571 116.7C156.471 113.1 157.671 109.65 158.271 106.05C158.871 102.75 159.471 99.15 156.621 96.45C154.971 94.95 153.321 93.45 151.671 91.95C151.071 93 150.621 93.9 150.171 94.8C150.321 94.95 150.471 95.1 150.621 95.25C150.471 95.85 150.471 96.6 150.171 97.05C149.121 98.55 147.921 100.05 146.871 101.55C146.121 102.6 145.521 102.45 144.921 101.4C144.021 99.6 143.571 97.65 141.771 96.3C139.521 94.65 137.721 92.7 135.621 90.9C135.321 90.75 134.421 90.75 134.271 91.05C133.221 92.25 132.171 93.45 131.421 94.8C128.571 99.9 125.721 105 123.021 110.1C120.471 115.05 118.071 120.15 115.821 125.25C114.771 127.8 114.021 130.5 113.421 133.2C112.821 135.75 113.271 138.3 114.771 140.55C115.521 141.75 115.971 142.95 116.571 144.15C118.071 147.45 121.971 149.25 124.821 146.1C125.571 145.2 126.471 144.45 127.221 143.55C128.871 141.6 130.521 139.65 132.171 137.7C133.071 136.5 133.821 135.15 134.721 133.95C135.171 133.35 135.771 132.75 136.221 132.15C138.171 129 140.121 125.85 142.071 122.55C142.521 121.8 142.671 120.9 142.971 119.85C142.971 119.85 143.271 120 143.721 120.15C144.471 118.8 145.221 117.45 146.271 115.65C146.421 116.55 146.571 117.15 146.571 117.75C146.571 118.65 146.271 119.55 146.271 120.45C146.271 121.35 146.721 122.25 146.571 123C145.671 126.6 146.871 130.05 147.471 133.5C148.071 137.25 150.171 140.4 152.271 143.55C153.471 145.35 156.321 146.85 158.121 145.5C159.621 144.3 161.121 142.95 162.321 141.45C163.521 139.95 164.421 138.15 165.471 136.5C166.971 133.95 169.071 131.55 169.821 128.85C170.421 126.6 171.621 124.95 172.971 123.3C173.121 123.15 173.121 123 173.271 122.7C172.971 122.7 172.671 122.7 172.221 122.85C172.371 121.35 172.521 120 172.671 118.65C172.521 118.65 172.371 118.65 172.221 118.65C170.571 120.9 168.921 123.15 167.121 125.85C166.821 124.95 166.521 124.5 166.671 124.35C168.621 121.35 170.571 118.35 172.521 115.35C172.671 115.35 172.821 115.35 172.971 115.35C172.671 116.1 172.371 116.85 172.071 117.6C172.221 117.75 172.371 117.9 172.521 118.05L172.821 118.5ZM132.921 121.65C132.171 122.7 131.271 123.75 130.371 124.8C129.921 125.25 129.321 125.55 128.721 125.85C129.021 127.2 126.171 131.25 123.621 132.45C123.621 131.4 123.321 130.35 123.621 129.6C124.821 127.2 126.321 124.8 127.671 122.4C127.971 121.95 128.421 121.5 128.421 121.05C128.721 117.45 131.271 115.2 133.071 112.5C134.121 111 134.871 109.35 135.921 107.85C137.121 106.35 138.471 104.85 139.671 103.35C139.821 103.5 139.971 103.65 140.121 103.8C140.421 106.8 141.771 109.95 139.671 112.95C137.571 115.95 135.471 118.95 133.371 121.95L132.921 121.65ZM147.321 108.75C147.171 108.9 146.871 109.05 146.871 109.2C146.121 112.05 143.871 114.15 142.671 116.7C142.371 117.45 141.471 117.9 141.021 118.5C139.821 120 138.771 121.65 137.571 123.15C137.271 123.6 136.821 124.05 136.071 124.35C136.221 123.75 136.221 123.15 136.521 122.7C137.721 120.9 138.921 119.1 140.121 117.3C140.871 116.25 141.621 115.35 142.371 114.45C143.271 113.25 144.321 112.05 145.071 110.7C145.971 109.2 146.721 107.55 147.621 105.9C148.221 104.7 148.971 103.65 149.721 102.45C149.871 102.6 150.021 102.75 150.171 102.9C149.421 105 149.271 107.4 147.321 109.05V108.75ZM170.121 114.6C169.971 114.45 169.821 114.3 169.671 114.15C168.771 115.35 167.871 116.55 166.971 117.75C167.121 117.9 167.271 118.05 167.421 118.2C168.321 116.85 169.221 115.65 170.121 114.45V114.6ZM245.215 61.95C245.065 61.8 244.915 61.65 244.915 61.5C245.065 59.1 243.115 58.8 241.465 58.5C239.515 58.05 237.565 57.9 235.615 57.6C235.615 57.45 235.615 57.15 235.765 56.85C234.115 57.75 232.915 57.6 232.315 56.55C231.715 56.7 231.115 57 230.515 57C226.165 56.85 221.815 56.55 217.465 56.4C217.015 56.4 216.415 56.85 216.115 57.3C215.515 58.05 214.765 58.2 213.865 57.45C214.315 57.3 214.765 57.15 215.215 57C215.215 56.85 215.215 56.7 215.215 56.55C214.015 56.55 212.815 56.55 211.615 56.55C211.615 56.7 211.615 56.85 211.615 57C212.065 57.15 212.515 57.3 212.965 57.45C212.965 57.6 212.965 57.75 212.965 57.9C211.015 57.9 209.065 57.9 207.115 57.9C207.415 57.75 207.865 57.6 208.315 57.45C208.315 57.3 208.315 57.15 208.315 57C206.665 57 205.015 57 203.365 57C203.365 57.15 203.365 57.3 203.365 57.45C204.115 57.6 204.865 57.75 205.615 57.9C205.615 58.05 205.615 58.2 205.615 58.35C204.565 58.35 203.515 58.35 202.315 58.35C202.615 58.05 202.765 57.75 202.915 57.45C202.165 57.3 201.565 57.15 200.965 57C201.115 56.25 201.265 55.5 201.565 54.75C203.515 49.2 205.615 43.65 207.565 38.1C208.165 36.6 208.915 34.95 208.765 33.45C208.615 31.8 208.165 29.85 206.065 29.1C205.015 28.8 204.115 28.2 203.215 27.75C201.265 26.7 200.065 27.3 199.915 29.55C199.915 30.15 199.765 30.75 199.615 31.35C198.715 33.9 197.965 36.6 196.915 39.15C196.165 40.95 196.915 43.35 194.815 44.7C194.665 44.85 194.515 45.45 194.665 45.6C195.715 47.25 194.215 48.45 193.915 49.8C193.165 52.65 191.965 55.35 190.915 58.05C190.615 58.8 190.165 59.7 189.565 60.15C188.815 60.6 187.765 60.6 186.865 60.75C185.815 60.9 184.765 60.9 183.715 60.9C183.715 60.9 183.715 60.6 183.715 60.45C182.665 61.05 181.615 61.95 180.565 62.1C179.515 62.25 178.315 61.65 176.965 61.35C177.265 63.3 176.215 63.9 173.515 63.3C174.565 63 175.465 62.7 176.515 62.4C175.015 61.65 170.815 62.4 169.615 63.3C169.165 63.6 168.415 63.6 167.815 63.75C167.515 63.9 167.215 64.05 166.615 64.2C167.365 64.35 167.665 64.5 167.965 64.65C167.965 64.8 167.965 64.95 167.965 65.1C167.215 65.1 166.465 65.1 165.565 64.95C165.415 65.1 165.115 65.4 164.965 65.55C163.615 65.4 162.565 65.25 161.515 65.1C161.215 65.25 160.765 65.85 160.315 65.85C158.215 65.85 156.565 67.05 154.315 67.05C151.915 67.05 149.515 68.25 147.265 69.15C145.015 70.05 142.915 71.25 140.815 72.3C139.165 73.05 137.365 73.65 135.715 74.55C135.265 74.85 134.665 75.75 134.815 76.2C135.115 77.55 135.715 78.9 136.315 80.25C136.765 81.15 137.365 81.3 138.265 80.7C140.365 79.35 142.465 78 144.565 76.95C146.515 76.05 148.615 75.45 150.565 74.7C154.315 73.2 158.065 71.7 161.965 70.5C164.665 69.6 167.665 69.3 170.515 68.7C172.015 68.4 173.515 67.8 175.015 67.65C176.215 67.65 176.815 67.35 176.965 66.75C180.715 66.45 184.315 66.15 188.215 65.85C187.615 66.45 187.165 66.6 187.165 66.9C187.015 67.95 187.165 69.15 186.865 70.2C185.065 75.3 183.115 80.4 181.465 85.5C179.365 91.65 177.415 97.8 175.465 103.95C173.665 109.35 171.865 114.9 170.365 120.45C169.165 124.65 168.115 128.85 167.215 133.05C166.615 135.9 166.165 138.75 165.715 141.6C165.415 143.7 165.415 145.8 165.265 147.9C164.665 152.7 165.265 157.2 169.015 160.8C169.765 161.55 170.665 162.3 171.565 163.05C172.915 164.1 174.115 165.45 175.615 166.05C178.015 166.95 180.715 167.4 183.115 165.45C184.615 164.1 186.715 163.35 187.015 160.95C187.015 160.8 187.315 160.65 187.465 160.5C188.365 159.3 189.415 158.1 190.165 156.75C191.665 154.2 193.015 151.65 194.515 149.1C194.665 148.95 194.665 148.65 194.665 148.35C194.815 147 194.665 145.5 195.115 144.3C195.865 142.5 196.915 140.85 197.965 139.2C199.165 137.4 200.365 135.6 201.565 133.8C201.415 133.65 201.265 133.5 201.115 133.35C200.665 133.95 200.215 134.55 199.765 135.15C198.715 136.5 197.665 138 196.615 139.35C194.815 141.6 193.015 144 191.215 146.25C189.715 148.05 188.665 150.45 185.515 151.35C186.265 149.85 186.865 148.65 187.465 147.45C187.315 147.45 187.165 147.45 187.015 147.45C185.815 148.95 184.615 150.45 183.115 152.25C184.015 152.1 184.315 152.1 185.065 151.95C183.415 153.9 182.065 155.55 180.715 157.2C180.565 157.05 180.415 156.9 180.265 156.75C181.165 155.7 182.065 154.65 182.965 153.6C182.815 153.45 182.665 153.3 182.515 153.15C180.565 155.25 178.615 157.35 176.665 159.45C175.915 160.35 173.965 160.2 173.815 159.15C173.365 156.75 172.765 154.35 172.765 151.95C172.915 148.8 173.365 145.65 173.965 142.65C174.865 137.7 175.915 132.75 176.965 127.8C177.265 126.3 177.715 124.95 178.165 123.6C178.465 122.55 178.765 121.5 179.065 120.6C179.365 119.55 179.965 118.65 180.265 117.6C180.415 117 179.965 116.25 180.265 115.8C181.465 113.55 181.915 111.15 182.665 108.75C183.565 105.6 184.615 102.6 185.665 99.6C185.815 99 186.265 98.55 186.415 97.95C187.165 95.4 187.915 92.85 188.815 90.3C189.565 87.9 190.615 85.65 191.215 83.25C191.815 80.55 193.615 78.15 193.465 75.15C194.815 74.1 194.665 72.45 195.115 71.1C195.415 70.35 196.015 69.75 196.315 69C196.765 67.8 197.065 66.45 197.515 65.25C197.665 64.95 197.965 64.65 198.265 64.5C200.065 63.45 202.315 65.1 204.115 63.6C204.115 63.6 204.265 63.9 204.415 63.9C205.915 64.35 207.115 63.9 207.265 62.55C204.415 62.55 201.565 62.55 198.715 62.55C198.715 62.4 198.715 62.25 198.715 62.1C200.215 61.95 201.415 60.6 203.215 61.2C204.115 61.5 205.165 61.35 206.065 61.2C207.115 60.9 208.015 60.3 209.065 61.2C209.215 61.35 209.665 61.2 209.965 61.2C211.915 61.2 213.865 61.05 215.815 61.05C216.565 61.05 217.315 61.2 218.065 61.2C220.015 61.2 221.965 61.2 223.915 61.35C224.215 61.35 224.515 61.95 224.965 62.4C218.965 62.4 213.265 62.4 207.565 62.4C207.865 63 208.315 63.45 208.765 63.45C212.815 63.6 216.865 63.6 220.915 63.75C223.915 63.9 226.915 64.2 229.915 64.65C232.465 64.95 235.015 66 237.565 66C240.265 66 242.215 67.65 244.615 68.25C245.815 66.9 245.815 65.4 244.615 63.9L245.215 61.95ZM164.965 67.95C165.265 67.05 167.665 66.15 168.865 66C170.365 65.85 171.865 65.25 173.665 64.8C172.765 66.15 168.115 67.5 164.815 67.65L164.965 67.95ZM176.215 65.1C175.615 65.1 175.015 64.95 174.415 64.8C174.415 64.65 174.415 64.5 174.415 64.35C174.865 64.35 175.315 64.5 175.765 64.35C176.215 64.2 176.515 63.75 177.265 63.15C177.565 63.9 177.715 64.35 177.865 64.8C177.415 64.95 176.965 65.1 176.515 65.1H176.215ZM184.315 63.9C182.965 64.2 181.615 64.5 180.265 64.65C179.815 64.65 179.365 64.35 178.915 64.2C178.915 63.9 178.915 63.6 178.915 63.3C181.465 63 184.015 62.85 186.565 62.4C187.165 62.25 187.615 61.65 188.215 61.2C188.365 61.35 188.515 61.5 188.665 61.65C188.365 62.1 188.215 62.85 187.765 63C186.715 63.45 185.515 63.6 184.315 63.75V63.9ZM174.865 105.45C175.615 103.65 175.765 101.85 176.365 100.05C178.465 94.35 180.265 88.5 182.215 82.8C183.715 78.75 185.365 74.7 186.865 70.65C187.465 69.15 187.915 67.65 188.515 66.15C188.815 65.55 189.265 64.95 189.565 64.35C189.715 64.35 189.865 64.35 190.015 64.35C189.565 66.15 189.115 67.95 188.515 69.75C188.215 70.95 187.465 72 187.165 73.2C186.115 76.35 185.665 79.65 184.165 82.5C182.815 85.05 182.665 87.9 181.615 90.6C180.265 94.05 179.365 97.65 178.165 101.1C178.015 101.55 177.415 102 177.415 102.3C177.565 103.05 176.665 104.25 178.165 104.55C178.165 104.55 178.165 105.15 178.165 105.45C177.565 105.15 176.965 104.85 176.665 104.7C176.365 105.75 176.215 106.65 175.915 107.55C175.465 109.5 174.265 111.6 174.565 113.4C174.865 114.9 174.565 115.95 174.265 117.15C174.265 117.3 174.115 117.45 173.815 117.75C173.815 116.25 173.815 115.05 173.815 113.85C173.665 113.85 173.515 113.85 173.365 113.85C173.365 114.15 173.365 114.45 173.215 115.05C172.915 115.05 172.465 115.05 172.015 115.05C173.065 111.75 173.965 108.45 175.315 105.3L174.865 105.45ZM168.715 129.45C169.615 125.85 170.515 122.25 171.415 118.65C171.715 117.45 171.865 116.25 172.015 115.05C173.215 115.8 172.915 117.15 172.765 118.05C172.465 120 171.715 121.8 171.265 123.75C171.115 124.5 171.265 125.25 171.265 126.15C171.265 126.15 170.965 126.15 170.665 126.15C170.365 127.65 170.065 129.15 169.765 130.65C169.615 130.65 169.465 130.65 169.315 130.65C169.015 130.2 168.565 129.6 168.715 129.15V129.45ZM167.215 142.95C166.915 144.75 166.615 146.55 166.015 148.35C166.315 145.2 166.615 142.05 166.915 138.9C167.965 140.1 167.665 141.45 167.515 142.8L167.215 142.95ZM169.615 132.45C168.865 133.95 168.715 135.75 168.265 137.4C168.115 137.85 167.515 138.15 167.065 138.6C167.515 135.9 167.965 133.2 168.415 130.35C169.765 130.65 170.365 130.8 169.765 132.15L169.615 132.45ZM174.265 133.65C174.115 133.65 173.965 133.65 173.815 133.65C174.115 132.45 174.415 131.25 174.715 130.05C174.865 130.05 175.015 130.05 175.165 130.05C174.865 131.25 174.565 132.45 174.265 133.65ZM179.515 114C178.615 116.55 178.015 119.25 177.265 121.8C176.815 123.15 176.365 124.5 175.765 125.7C176.365 120.75 178.015 116.1 179.665 111.45C180.115 112.35 179.815 113.1 179.515 114ZM182.365 101.1C182.815 100.5 183.415 99.9 183.715 99.15C185.065 95.1 186.415 90.9 187.765 86.7C188.815 83.55 189.865 80.4 190.915 77.25C191.065 76.95 191.365 76.65 191.815 76.5C191.515 77.55 191.365 78.6 191.065 79.65C190.315 81.75 189.565 83.85 188.815 85.95C187.915 88.5 187.015 91.05 186.115 93.6C185.065 96.6 184.015 99.6 182.965 102.6C182.215 105.15 181.465 107.7 180.565 110.25C180.415 110.7 179.965 111 179.665 111.3C179.815 110.4 180.115 109.5 180.415 108.3C179.065 109.2 176.665 116.55 175.915 120C175.015 124.05 173.665 127.95 172.765 132C171.865 136.05 171.115 140.1 170.365 144.15C170.215 144.15 170.065 144.15 169.915 144.15C170.065 142.95 170.065 141.75 170.365 140.55C171.415 135.3 172.465 129.9 173.815 124.65C174.865 120.15 176.365 115.8 177.715 111.45C179.515 105.3 181.315 99.15 183.265 93C184.315 89.7 185.665 86.55 186.865 83.4C187.915 80.4 188.815 77.25 189.865 74.25C190.615 72 191.515 69.9 192.565 67.8C191.365 73.5 188.965 78.9 187.165 84.45C185.365 90.15 183.415 95.7 181.465 101.4C181.615 101.4 181.765 101.55 181.915 101.7L182.365 101.1ZM192.715 58.35C192.565 58.35 192.415 58.35 192.265 58.35C192.865 56.4 193.465 54.45 194.065 52.5C194.065 54.75 194.065 57 192.565 58.8L192.715 58.35ZM194.365 69.15C194.215 69.15 194.065 69.15 193.915 69.15C194.365 67.95 194.815 66.75 195.265 65.55C195.415 65.7 195.565 65.85 195.715 66C195.265 67.2 194.815 68.4 194.365 69.6V69.15ZM221.515 60C221.515 59.85 221.515 59.7 221.515 59.55C222.865 59.55 224.215 59.55 225.565 59.55C225.565 59.7 225.565 59.85 225.565 60C224.215 60 222.865 60 221.515 60ZM230.815 63.15C229.465 63 228.115 63 226.765 62.85C226.465 62.85 226.165 62.55 225.715 62.4C227.365 61.5 230.815 61.95 232.165 63.3C231.715 63.3 231.415 63.3 231.115 63.3L230.815 63.15ZM179.365 109.2C179.515 109.2 179.665 109.2 179.815 109.2C180.415 107.25 182.065 105.6 181.615 103.35C181.465 103.35 181.315 103.35 181.165 103.35C180.565 105.3 179.965 107.25 179.365 109.2ZM263.821 117.3C262.771 118.5 261.871 119.4 260.971 120.3C260.371 120.9 259.621 121.35 259.021 121.8C255.421 124.5 251.971 127.35 248.371 129.9C246.121 131.55 243.721 132.9 241.321 134.1C239.071 135.3 236.971 136.8 234.271 136.8C232.771 136.8 231.871 136.2 232.021 135C232.321 133.05 232.621 131.1 232.921 129.15C233.821 123.45 236.071 118.2 237.871 112.8C238.171 111.9 238.921 111 238.921 110.1C238.921 108.15 240.121 107.4 241.471 106.5C241.921 106.2 242.521 105.15 242.371 104.85C241.471 103.35 240.421 102 239.221 100.8C238.471 100.05 237.421 99.6 236.521 98.85C235.321 97.8 234.421 97.65 233.821 98.7C232.471 101.4 231.271 104.25 229.921 106.95C229.471 107.85 228.871 108.75 228.121 109.5C225.571 112.2 222.721 114.75 220.171 117.45C216.271 121.65 212.521 126 208.621 130.2C207.571 131.4 206.221 132.3 205.021 133.35C204.871 132.3 205.021 131.55 205.171 130.8C205.471 129.6 205.621 128.25 205.921 127.05C206.521 124.95 207.271 122.85 208.021 120.9C209.221 117.9 210.121 114.75 211.771 112.05C213.571 108.9 213.571 105.6 213.421 102.3C213.271 100.2 211.621 98.85 209.971 97.65C208.621 96.6 208.321 96.75 207.421 98.1C205.021 102.3 203.371 106.8 201.871 111.45C200.221 116.4 198.571 121.35 197.071 126.45C195.271 132.75 196.921 138.45 200.521 143.55C201.271 144.75 202.471 145.8 203.671 146.4C205.921 147.45 210.271 144.6 211.321 141.75C211.621 140.85 212.221 139.95 212.821 139.2C213.871 138 215.371 137.1 215.221 135.15C215.221 134.85 215.521 134.55 215.671 134.25C216.121 133.35 216.571 132.45 217.171 131.55C217.621 130.95 218.221 130.35 218.821 129.75C219.271 129.3 219.871 128.85 220.171 128.25C221.221 126.6 222.271 124.8 223.321 123C223.471 123 223.621 123 223.771 123C223.771 124.05 223.771 125.1 223.771 126.15C223.771 127.35 223.621 128.7 223.921 129.9C224.971 133.2 225.721 136.65 227.821 139.5C229.471 141.75 230.971 143.85 233.671 145.2C236.221 146.4 238.471 146.4 240.871 145.35C241.771 144.9 242.971 144.75 243.721 144.15C244.621 143.4 244.921 142.05 245.671 141.15C246.721 140.1 247.921 139.35 248.671 137.85C249.421 136.35 251.221 135.45 252.421 134.25C252.871 133.8 253.021 133.05 253.471 132.45C253.921 131.85 254.371 131.25 254.971 130.8C256.621 129.6 257.971 128.25 257.971 126C257.971 125.7 258.421 125.4 258.721 125.1C259.021 124.65 259.471 124.35 259.771 123.9C260.671 121.95 261.571 120 262.471 118.05C262.621 117.75 262.471 117.3 262.471 116.7L263.821 117.3ZM213.121 128.7C212.971 128.55 212.821 128.4 212.671 128.25C213.121 127.65 213.571 127.05 214.021 126.45C214.321 126.15 214.771 125.85 214.771 125.55C214.621 123.75 215.821 124.05 217.021 124.2C215.671 125.55 215.371 127.8 213.271 128.55L213.121 128.7ZM220.921 121.05C220.471 121.65 219.871 122.25 219.271 122.85C218.971 123.15 218.671 123.45 218.371 123.75C218.071 123.3 217.771 122.85 217.471 122.4C217.171 122.55 216.871 122.7 216.571 122.85C216.421 122.7 216.271 122.55 216.121 122.4C216.721 121.8 217.471 120.6 217.921 120.75C219.421 121.05 220.171 120 221.071 119.4C221.221 119.55 221.371 119.7 221.521 119.85C221.371 120.3 221.221 120.75 220.921 121.05ZM247.171 133.95C246.271 134.55 245.371 135.3 244.471 135.9C244.021 136.2 243.571 136.2 243.121 136.35C243.271 135.9 243.271 135.15 243.571 134.85C244.471 134.1 245.521 133.2 246.571 133.05C247.771 132.9 248.071 132.3 248.371 131.4C248.371 131.25 248.521 131.1 248.821 130.8C249.271 132.45 248.521 133.35 247.321 134.1L247.171 133.95ZM250.621 130.2C250.771 130.65 250.921 131.1 251.071 131.55C250.921 131.7 250.771 131.85 250.621 132C250.321 131.7 249.871 131.4 249.721 131.1C249.571 130.8 249.721 130.05 250.021 129.75C252.121 128.1 254.371 126.45 256.621 124.8C256.621 124.8 256.771 124.8 257.371 124.95C254.971 126.9 252.871 128.7 250.621 130.5V130.2ZM297.71 104.4C297.11 100.95 297.11 97.5 297.41 94.05C297.56 90.6 296.06 87.6 293.81 85.35C292.16 83.7 289.61 82.95 287.36 82.2C286.61 81.9 285.11 82.2 284.66 82.8C283.31 84.3 282.41 86.1 281.36 87.9C280.76 88.95 280.16 90 279.56 91.05C278.36 92.85 277.01 94.65 275.81 96.6C274.91 98.1 274.16 99.75 273.41 101.4C273.26 101.25 273.11 101.1 272.96 100.95C273.41 99.3 273.71 97.65 274.31 96.15C274.91 94.2 275.66 92.25 276.41 90.3C276.71 89.7 277.16 89.1 277.16 88.35C277.31 85.8 276.71 83.7 274.31 82.35C272.66 81.45 271.31 79.8 269.36 79.2C268.61 79.05 267.71 79.05 266.96 79.2C266.81 79.2 266.81 80.4 266.81 81C266.81 81.45 266.96 82.05 266.81 82.5C266.36 84.45 265.76 86.4 265.16 88.35C263.96 92.85 262.76 97.35 261.56 101.85C261.41 102.45 260.96 103.05 260.81 103.65C260.66 104.55 260.81 105.6 260.51 106.5C259.61 109.35 258.26 112.05 257.66 114.9C256.31 120.45 255.41 126 254.36 131.55C254.06 133.2 253.76 134.85 253.91 136.5C254.06 138.6 254.66 140.7 254.96 142.8C255.11 143.4 255.26 144 255.11 144.45C254.36 146.1 255.26 147.15 256.46 148.05C257.36 148.8 258.71 149.1 259.31 150C260.36 151.35 261.11 150.6 262.01 150C262.31 149.7 262.46 149.25 262.76 148.95C264.56 147.75 265.01 146.7 264.56 144.75C264.41 144.15 264.41 143.55 264.56 142.95C264.86 141.6 265.16 140.25 265.61 139.05C266.36 136.95 267.11 135 267.86 133.05C268.91 130.35 269.81 127.65 271.01 124.95C271.91 122.7 273.11 120.6 274.16 118.35C275.51 115.5 276.86 112.65 278.21 109.8C279.11 107.85 279.86 105.75 281.06 103.95C282.11 102.45 282.26 99.9 284.81 99.75C284.96 99.75 285.26 99.15 285.41 98.85C285.56 98.25 285.56 97.65 285.71 97.05C286.31 95.4 286.91 93.75 289.01 93C289.16 93.9 289.31 94.65 289.46 95.4C289.61 96.75 289.76 98.1 290.06 99.45C290.51 102 291.86 104.1 293.81 105.75C294.41 106.35 295.76 106.8 296.36 106.5C297.11 106.05 297.86 104.7 297.71 103.95V104.4ZM272.96 107.1C272.66 105.15 278.06 96.15 280.01 95.25C277.61 99.3 275.36 103.05 272.96 107.1ZM346.386 118.95C345.786 119.4 345.186 120 344.586 120.45C343.386 121.35 342.186 122.25 340.986 123.15C339.936 123.9 338.736 124.5 337.686 125.1C337.536 124.95 337.386 124.8 337.236 124.65C338.436 123.75 339.636 122.85 341.136 121.8C340.536 121.8 340.236 121.65 340.086 121.8C338.586 122.7 337.086 123.6 335.586 124.5C333.036 126.15 330.486 127.8 327.936 129.6C326.736 130.5 325.686 131.55 324.336 132.3C323.436 132.75 321.786 132.15 321.936 134.1C321.936 134.1 321.636 134.25 321.486 134.4C319.986 135.15 318.486 135.75 317.136 136.5C314.136 138.3 310.986 139.8 307.536 140.1C306.336 140.25 304.836 140.7 304.086 139.05C302.586 135.75 303.186 132.45 304.086 129.15C304.536 127.2 304.986 125.25 305.586 123.3C305.736 122.55 306.036 121.8 306.336 121.05C306.936 121.65 307.686 122.1 308.286 122.7C309.636 124.35 312.336 124.8 313.836 123.45C317.286 120.3 320.886 117.15 324.036 113.7C325.836 111.75 328.236 109.95 328.536 106.8C328.536 106.65 328.686 106.5 328.836 106.35C330.936 105.3 330.936 102.9 331.536 101.25C332.286 99.45 331.836 96.9 331.386 94.8C330.636 91.35 327.786 89.25 325.236 87.15C323.736 85.95 321.936 85.65 320.286 86.55C317.736 87.75 315.186 88.95 312.936 90.6C310.986 91.95 309.186 93.6 307.686 95.55C305.736 97.95 304.086 100.65 302.436 103.35C301.536 104.7 300.936 106.2 300.186 107.7C298.836 110.4 297.336 113.1 296.136 115.8C295.386 117.45 295.236 119.4 294.636 121.2C293.286 125.1 293.736 129.15 295.236 132.75C297.036 137.1 298.986 141.75 302.886 144.9C305.586 147.15 308.436 149.4 312.186 149.25C313.686 149.1 315.336 148.8 316.836 148.35C318.186 147.9 319.536 147.15 320.736 146.4C321.336 146.1 321.786 145.5 322.386 145.05C324.936 143.25 327.486 141.6 330.036 139.8C331.236 138.9 332.886 138 333.186 136.8C333.636 135 335.136 134.55 336.036 133.35C336.486 132.75 337.086 132.3 337.536 131.7C339.186 129.6 340.686 127.5 342.186 125.4C342.486 125.1 342.786 124.8 343.086 124.5C344.136 123.45 345.336 122.55 346.386 121.35C347.286 120.45 347.886 119.25 348.636 118.2C348.486 118.05 348.336 117.9 348.186 117.75C347.586 118.05 346.986 118.35 346.386 118.8V118.95ZM308.586 114.15C309.186 112.8 309.936 111.45 310.686 110.1C310.836 109.8 310.986 109.35 311.286 109.05C312.336 108 313.386 106.95 312.636 105.75C313.836 104.7 315.186 104.1 315.486 103.05C316.536 100.35 318.786 98.85 320.886 97.2C322.236 96.15 323.736 95.25 325.236 94.35C326.136 93.75 326.586 94.05 326.586 95.1C326.436 98.25 325.236 100.95 323.136 103.35C322.236 104.4 321.486 105.75 320.586 106.8C319.986 107.4 319.086 107.7 318.336 108.3C316.536 109.8 314.736 111.45 312.936 112.95C311.436 114.15 309.936 115.35 308.436 116.55C308.286 116.4 308.136 116.25 307.986 116.1C308.286 115.35 308.436 114.6 308.736 113.85L308.586 114.15ZM333.036 126.6C333.786 126.45 334.536 126.3 335.286 126.15C335.286 126.3 335.286 126.45 335.286 126.6C334.686 127.5 333.936 127.35 333.036 126.45V126.6ZM347.886 114.3C349.686 114.15 350.586 113.1 350.886 111.6C349.836 112.5 348.786 113.4 347.736 114.3H347.886ZM374.475 115.05C377.925 111.45 383.025 110.7 386.925 108C379.725 110.7 372.825 114.15 365.775 118.05C366.675 118.5 367.125 118.65 367.425 118.8C366.675 119.4 365.925 120 365.175 120.6C364.275 121.35 363.975 121.2 363.675 119.85C365.325 119.7 365.325 119.7 365.325 118.05C362.925 119.55 360.675 121.05 358.425 122.4C357.975 122.7 357.075 123 356.775 122.7C354.225 120.9 351.675 118.95 349.275 116.85C348.525 116.25 348.075 115.2 347.925 114.3C347.175 110.1 349.275 106.8 351.525 103.8C353.775 100.8 356.475 97.95 359.025 95.1C360.525 93.45 362.175 91.95 363.975 90.75C366.375 88.95 368.925 87.3 371.625 85.8C372.825 85.2 374.325 84.9 375.675 84.6C376.275 84.45 377.025 84.9 377.925 85.2C377.925 84.6 378.075 84 377.925 83.55C377.025 80.25 375.225 77.55 372.075 76.2C370.725 75.6 369.075 75.3 367.275 76.05C364.575 77.25 362.775 79.35 360.525 81.15C356.925 84 353.475 87 350.475 90.6C347.025 94.95 343.725 99.15 342.975 105C342.075 112.05 343.725 118.2 348.375 123.6C349.125 124.35 349.725 124.95 348.675 126C350.175 125.25 350.925 126.15 351.675 127.2C351.075 127.8 350.475 128.4 349.875 129C348.675 128.4 348.675 128.4 348.375 129.75C348.225 130.05 347.625 130.35 347.175 130.5C346.725 130.65 346.275 130.5 345.825 130.5C345.825 130.65 345.825 130.8 345.825 130.95C345.225 131.7 344.625 132.45 343.875 133.35C344.625 133.35 345.075 133.35 345.525 133.35C345.525 133.5 345.525 133.65 345.525 133.8C345.075 134.1 344.625 134.4 344.175 134.7C343.575 133.5 342.375 133.95 341.475 133.65C341.475 135 340.425 135.3 339.525 135.75C338.325 136.35 337.125 136.95 336.225 137.85C334.575 139.35 333.075 141.15 331.575 142.8C333.525 138.9 337.275 136.5 339.375 132.6C338.925 132.9 338.325 133.2 337.875 133.65C336.825 134.55 335.925 135.45 335.025 136.35C332.025 139.35 328.875 142.35 330.225 147.3C330.225 147.45 330.225 147.6 330.225 147.75C329.325 150.3 330.375 152.7 330.975 155.1C331.275 156.75 332.025 158.25 332.175 159.9C332.475 162 333.825 163.35 335.175 164.7C338.475 168.15 342.975 168.15 347.325 168C351.825 167.85 355.725 165.6 359.775 163.95C363.225 162.45 366.225 160.2 369.075 157.65C372.225 154.95 373.725 151.95 372.675 147.75C372.525 147.15 372.375 146.4 372.375 145.8C372.675 143.4 371.925 141.15 370.875 139.05C368.325 133.95 364.875 129.6 360.675 125.7C360.375 125.4 360.075 125.1 359.625 124.5C366.375 119.25 374.025 115.95 381.825 111.9C378.675 111.6 376.875 113.7 374.475 114.3V115.05ZM360.825 133.8C363.225 135.9 365.325 138.3 367.425 140.7C368.325 141.75 368.325 143.1 367.275 144.15C365.175 146.25 363.225 148.5 360.825 150.3C359.025 151.65 356.775 152.4 354.825 153.45C352.875 154.35 351.075 155.4 349.125 156.3C347.775 156.9 346.275 157.35 344.775 157.5C342.225 157.8 339.675 157.8 337.425 156.15C334.275 153.9 333.525 151.2 335.625 147.75C336.375 146.4 337.275 145.05 338.325 143.7C339.225 142.5 340.275 141.3 341.325 140.1C340.275 139.95 340.575 139.2 341.325 138.6C344.925 135.6 347.925 131.85 352.275 129.75C352.425 129.75 352.425 129.6 352.575 129.3C352.125 129.3 351.825 129.3 351.525 129.3C351.225 129.3 350.925 129.45 350.475 129.15C351.225 128.7 351.975 128.25 352.575 127.95C355.425 130.05 358.275 131.85 360.825 134.1V133.8Z" fill="#D9D9D9" fill-opacity="0.5"/>
</svg>
