<svg width="49" height="70" viewBox="0 0 49 70" fill="none" xmlns="http://www.w3.org/2000/svg">
<path d="M37.5 41H12L15 54.5H34.5M34.5 54.5L39 36.5H45M34.5 54.5L33 60.5H13.5M16.5 68C16.8978 68 17.2794 67.842 17.5607 67.5607C17.842 67.2794 18 66.8978 18 66.5C18 66.1022 17.842 65.7206 17.5607 65.4393C17.2794 65.158 16.8978 65 16.5 65C16.1022 65 15.7206 65.158 15.4393 65.4393C15.158 65.7206 15 66.1022 15 66.5C15 66.8978 15.158 67.2794 15.4393 67.5607C15.7206 67.842 16.1022 68 16.5 68ZM31.5 68C31.8978 68 32.2794 67.842 32.5607 67.5607C32.842 67.2794 33 66.8978 33 66.5C33 66.1022 32.842 65.7206 32.5607 65.4393C32.2794 65.158 31.8978 65 31.5 65C31.1022 65 30.7206 65.158 30.4393 65.4393C30.158 65.7206 30 66.1022 30 66.5C30 66.8978 30.158 67.2794 30.4393 67.5607C30.7206 67.842 31.1022 68 31.5 68Z" stroke="white" stroke-width="2"/>
<g filter="url(#filter0_d_5_33)">
<rect x="12" y="8.5" width="25" height="25" rx="12.5" fill="#FF4646"/>
<path d="M20.87 18.265C20.93 17.335 21.285 16.61 21.935 16.09C22.595 15.57 23.435 15.31 24.455 15.31C25.155 15.31 25.76 15.435 26.27 15.685C26.78 15.935 27.165 16.275 27.425 16.705C27.685 17.135 27.815 17.62 27.815 18.16C27.815 18.78 27.65 19.31 27.32 19.75C26.99 20.19 26.595 20.485 26.135 20.635V20.695C26.725 20.875 27.185 21.205 27.515 21.685C27.845 22.155 28.01 22.76 28.01 23.5C28.01 24.09 27.875 24.615 27.605 25.075C27.335 25.535 26.935 25.9 26.405 26.17C25.875 26.43 25.24 26.56 24.5 26.56C23.42 26.56 22.53 26.285 21.83 25.735C21.14 25.175 20.77 24.375 20.72 23.335H22.37C22.41 23.865 22.615 24.3 22.985 24.64C23.355 24.97 23.855 25.135 24.485 25.135C25.095 25.135 25.565 24.97 25.895 24.64C26.225 24.3 26.39 23.865 26.39 23.335C26.39 22.635 26.165 22.14 25.715 21.85C25.275 21.55 24.595 21.4 23.675 21.4H23.285V19.99H23.69C24.5 19.98 25.115 19.845 25.535 19.585C25.965 19.325 26.18 18.915 26.18 18.355C26.18 17.875 26.025 17.495 25.715 17.215C25.405 16.925 24.965 16.78 24.395 16.78C23.835 16.78 23.4 16.925 23.09 17.215C22.78 17.495 22.595 17.845 22.535 18.265H20.87Z" fill="white"/>
</g>
<defs>
<filter id="filter0_d_5_33" x="0" y="0.5" width="49" height="49" filterUnits="userSpaceOnUse" color-interpolation-filters="sRGB">
<feFlood flood-opacity="0" result="BackgroundImageFix"/>
<feColorMatrix in="SourceAlpha" type="matrix" values="0 0 0 0 0 0 0 0 0 0 0 0 0 0 0 0 0 0 127 0" result="hardAlpha"/>
<feOffset dy="4"/>
<feGaussianBlur stdDeviation="6"/>
<feComposite in2="hardAlpha" operator="out"/>
<feColorMatrix type="matrix" values="0 0 0 0 1 0 0 0 0 0.195833 0 0 0 0 0.195833 0 0 0 0.5 0"/>
<feBlend mode="normal" in2="BackgroundImageFix" result="effect1_dropShadow_5_33"/>
<feBlend mode="normal" in="SourceGraphic" in2="effect1_dropShadow_5_33" result="shape"/>
</filter>
</defs>
</svg>
