<svg width="50" height="50" viewBox="0 0 50 50" fill="none" xmlns="http://www.w3.org/2000/svg">
<path d="M37.9023 18.2985C37.805 18.0681 37.6402 17.8713 37.4287 17.7328C37.2172 17.5943 36.9686 17.5204 36.7142 17.5204H33.6951C33.1877 16.7549 32.495 16.1243 31.6787 15.6846C30.8624 15.245 29.9479 15.01 29.0165 15.0005C28.2898 14.9909 27.5686 15.1239 26.8951 15.3917C26.2217 15.6595 25.6098 16.0566 25.0954 16.5597C24.5663 17.0682 24.1464 17.6752 23.8603 18.3451C23.5742 19.015 23.4277 19.7342 23.4294 20.4604V20.5423C19.4836 19.3274 16.3177 16.2479 16.2835 16.2132C16.111 16.0428 15.8924 15.9243 15.6535 15.8715C15.4146 15.8188 15.1652 15.834 14.9348 15.9154C14.7045 15.9968 14.5026 16.141 14.353 16.331C14.2034 16.5211 14.1123 16.749 14.0904 16.9881C13.4144 24.3558 16.7313 28.3058 18.5965 29.9154C17.0441 31.4673 14.8586 32.2915 14.8371 32.2999C14.6554 32.3662 14.4913 32.4719 14.3572 32.6091C14.2231 32.7464 14.1224 32.9115 14.0626 33.0923C14.0028 33.2731 13.9856 33.4648 14.0121 33.653C14.0386 33.8413 14.1082 34.0212 14.2157 34.1793C14.43 34.4828 15.6556 36 19.5725 36C27.3131 36 33.7894 30.1978 34.5286 22.7042L37.6227 19.6718C37.8027 19.4957 37.9254 19.2712 37.9751 19.0267C38.0249 18.7823 37.9996 18.5288 37.9023 18.2985ZM32.3774 21.2499C32.1557 21.4662 32.0227 21.7546 32.0035 22.0605C31.5867 28.4643 26.1271 33.4801 19.5725 33.4801C19.1251 33.4826 18.678 33.4549 18.2344 33.3971C19.3582 32.6978 20.6139 31.7024 21.501 30.3994C21.598 30.2568 21.6643 30.0962 21.6958 29.9276C21.7274 29.759 21.7235 29.5858 21.6844 29.4187C21.6452 29.2516 21.5717 29.0941 21.4684 28.9558C21.365 28.8176 21.2339 28.7014 21.0831 28.6145C21.0703 28.6071 19.7621 27.828 18.5729 26.0504C17.3837 24.2728 16.7238 22.1655 16.5952 19.7737C18.4337 21.1323 21.2867 22.8533 24.5007 23.3835C24.6852 23.414 24.8742 23.4048 25.0546 23.3564C25.235 23.308 25.4024 23.2216 25.5452 23.1032C25.688 22.9848 25.8028 22.8373 25.8814 22.671C25.9601 22.5047 26.0008 22.3236 26.0006 22.1403V20.4604C25.9997 20.0679 26.079 19.6793 26.2337 19.3174C26.3885 18.9555 26.6156 18.6276 26.9017 18.3531C27.1749 18.0852 27.4999 17.8736 27.8578 17.7306C28.2156 17.5876 28.599 17.5161 28.9854 17.5204C29.5697 17.5281 30.1397 17.698 30.6293 18.0104C31.119 18.3228 31.5081 18.7649 31.7517 19.2854C31.8519 19.51 32.0168 19.701 32.2261 19.8351C32.4354 19.9691 32.6801 20.0405 32.9302 20.0404H33.6073L32.3774 21.2499Z" fill="white"/>
<circle cx="25" cy="25" r="24.5" stroke="white"/>
</svg>
