<svg width="50" height="50" viewBox="0 0 50 50" fill="none" xmlns="http://www.w3.org/2000/svg">
<path d="M20.38 14H29.62C33.14 14 36 16.86 36 20.38V29.62C36 31.3121 35.3278 32.9349 34.1313 34.1313C32.9349 35.3278 31.3121 36 29.62 36H20.38C16.86 36 14 33.14 14 29.62V20.38C14 18.6879 14.6722 17.0651 15.8687 15.8687C17.0651 14.6722 18.6879 14 20.38 14ZM20.16 16.2C19.1097 16.2 18.1025 16.6172 17.3599 17.3599C16.6172 18.1025 16.2 19.1097 16.2 20.16V29.84C16.2 32.029 17.971 33.8 20.16 33.8H29.84C30.8903 33.8 31.8975 33.3828 32.6401 32.6401C33.3828 31.8975 33.8 30.8903 33.8 29.84V20.16C33.8 17.971 32.029 16.2 29.84 16.2H20.16ZM30.775 17.85C31.1397 17.85 31.4894 17.9949 31.7473 18.2527C32.0051 18.5106 32.15 18.8603 32.15 19.225C32.15 19.5897 32.0051 19.9394 31.7473 20.1973C31.4894 20.4551 31.1397 20.6 30.775 20.6C30.4103 20.6 30.0606 20.4551 29.8027 20.1973C29.5449 19.9394 29.4 19.5897 29.4 19.225C29.4 18.8603 29.5449 18.5106 29.8027 18.2527C30.0606 17.9949 30.4103 17.85 30.775 17.85ZM25 19.5C26.4587 19.5 27.8576 20.0795 28.8891 21.1109C29.9205 22.1424 30.5 23.5413 30.5 25C30.5 26.4587 29.9205 27.8576 28.8891 28.8891C27.8576 29.9205 26.4587 30.5 25 30.5C23.5413 30.5 22.1424 29.9205 21.1109 28.8891C20.0795 27.8576 19.5 26.4587 19.5 25C19.5 23.5413 20.0795 22.1424 21.1109 21.1109C22.1424 20.0795 23.5413 19.5 25 19.5ZM25 21.7C24.1248 21.7 23.2854 22.0477 22.6665 22.6665C22.0477 23.2854 21.7 24.1248 21.7 25C21.7 25.8752 22.0477 26.7146 22.6665 27.3335C23.2854 27.9523 24.1248 28.3 25 28.3C25.8752 28.3 26.7146 27.9523 27.3335 27.3335C27.9523 26.7146 28.3 25.8752 28.3 25C28.3 24.1248 27.9523 23.2854 27.3335 22.6665C26.7146 22.0477 25.8752 21.7 25 21.7Z" fill="white"/>
<circle cx="25" cy="25" r="24.5" stroke="white"/>
</svg>
