<svg width="270" height="192" viewBox="0 0 270 192" fill="none" xmlns="http://www.w3.org/2000/svg">
<path d="M122.974 18.75C122.824 14.55 121.474 10.65 118.774 7.49999C116.974 5.39999 114.274 4.19999 112.024 2.69999C111.574 2.39999 111.124 2.24999 110.674 1.94999C108.874 0.299984 107.224 0.299984 105.574 2.1C104.974 2.69999 104.674 3.6 104.074 4.19999C100.774 7.79999 98.3738 12 96.1238 16.2C94.6238 18.75 92.9738 21.3 91.4738 23.85C89.3738 27.15 87.2738 30.45 85.3238 33.9C83.3738 37.35 81.7238 40.95 79.9238 44.4C79.4738 45.3 79.1738 46.2 78.8738 47.1C79.1738 47.25 79.4738 47.4 79.7738 47.55C80.3738 46.35 80.9738 45.15 81.5738 43.95C82.1738 42.75 82.7738 41.55 83.3738 40.35C83.9738 39.15 84.4238 37.8 85.1738 36.75C85.9238 35.7 85.7738 34.05 87.4238 33.6C76.9238 54.45 67.1738 75.6 60.7238 98.1C60.5738 98.1 60.4238 98.1 60.2738 98.1C60.1238 97.65 59.9738 97.2 59.8238 96.75C59.5238 97.2 59.2238 97.5 58.9238 97.95C59.5238 98.25 59.9738 98.55 60.4238 98.85C59.6738 101.1 58.9238 103.35 58.1738 105.6C57.8738 105.45 57.5738 105.3 57.1238 105.15C56.3738 107.25 55.6238 109.35 54.8738 111.45C54.7238 111.45 54.5738 111.45 54.4238 111.45C54.1238 111 53.8238 110.55 53.6738 109.95C52.9238 107.1 52.1738 104.25 51.5738 101.4C51.1238 99.15 50.6738 96.75 50.3738 94.35C50.0738 91.35 49.9238 88.35 49.7738 85.35C49.6238 81.75 48.7238 78.15 49.1738 74.4C49.4738 72.45 49.0238 70.35 48.8738 68.4C48.5738 65.4 48.2738 62.4 47.9738 59.4C47.6738 56.55 47.2238 53.7 46.7738 50.85C46.3238 48 45.8738 45.15 45.4238 42.3C45.2738 41.25 44.5238 40.05 44.8238 39.3C45.1238 38.55 46.6238 38.4 47.6738 37.95C50.0738 37.05 50.0738 37.05 48.8738 34.95C47.8238 33.3 46.6238 31.95 44.5238 31.8C43.9238 31.8 43.3238 31.35 42.7238 31.05C39.1238 29.25 36.8738 27.9 34.1738 30.9C34.0238 30.75 33.8738 30.75 33.8738 30.6C33.4238 29.7 32.6738 29.25 31.7738 29.85C30.7238 30.45 31.6238 31.2 31.9238 31.95C32.2238 32.55 32.6738 33.3 32.5238 33.9C31.7738 37.05 30.7238 40.05 29.8238 43.2C29.3738 45 28.9238 46.8 28.4738 48.6C28.0238 49.2 27.7238 49.8 27.5738 50.4C27.1238 52.05 26.8238 53.7 26.3738 55.35C25.7738 57.45 25.1738 59.55 24.5738 61.65C23.6738 64.65 22.7738 67.65 21.8738 70.65C20.2238 76.05 18.4238 81.45 16.7738 86.85C15.1238 92.7 13.4738 98.55 11.8238 104.4C9.87383 111.6 7.92383 118.8 5.97383 126C5.82383 126.6 5.97383 127.35 5.97383 128.1C6.12383 128.1 6.27383 128.1 6.42383 128.1C7.62383 123.9 8.82383 119.7 10.0238 115.5C10.1738 115.5 10.3238 115.5 10.4738 115.5C10.4738 115.8 10.6238 116.1 10.4738 116.4C9.72383 119.55 8.82383 122.7 8.07383 125.85C6.57383 132.45 5.22383 139.2 3.87383 145.95C3.72383 147 3.42383 147.6 2.07383 146.7C2.07383 147.6 2.07383 148.35 2.07383 149.4C2.67383 148.95 2.97383 148.8 3.27383 148.65C3.42383 150.6 3.42383 150.6 1.62383 150.75C2.67383 151.95 0.273828 153.75 2.67383 154.8C2.37383 155.25 2.07383 155.7 1.77383 156.15C2.97383 157.8 2.82383 159.15 1.32383 160.2C2.82383 160.35 2.52383 161.4 2.37383 162.3C2.22383 162.75 1.77383 163.2 1.77383 163.65C2.37383 167.25 3.12383 170.85 6.27383 173.25C8.52383 175.05 11.3738 175.05 13.0238 173.25C12.2738 173.1 11.5238 172.95 10.7738 172.95C8.37383 172.95 8.22383 172.95 8.67383 170.85C8.07383 170.55 7.47383 170.25 6.87383 169.95C8.97383 169.2 9.57383 168.15 9.12383 166.2C8.97383 165.45 9.12383 164.7 9.12383 163.95C9.12383 163.5 9.42383 162.9 9.27383 162.45C8.67383 160.8 9.12383 159.45 9.87383 158.1C10.3238 157.2 10.4738 156.45 9.57383 156.15C9.57383 155.4 9.57383 154.8 9.57383 154.2C9.57383 153.75 9.57383 153 9.87383 152.85C11.2238 152.25 10.6238 151.35 10.4738 150.45C10.9238 149.4 11.6738 147.9 11.2238 147.15C10.6238 145.95 11.3738 145.2 11.5238 144.3C11.6738 143.7 12.1238 143.1 12.2738 142.5C12.7238 140.55 13.1738 138.6 13.6238 136.65C13.7738 136.2 13.9238 135.75 14.0738 135.3C14.6738 132.45 15.2738 129.6 16.0238 126.75C16.4738 124.95 17.3738 123.3 17.9738 121.5C18.4238 120 18.7238 118.5 19.1738 117C19.9238 114.6 20.6738 112.2 21.4238 109.8C22.1738 107.4 22.7738 105 23.3738 102.6C23.8238 100.8 24.1238 99 24.7238 97.2C26.6738 91.2 28.7738 85.2 30.7238 79.2C32.0738 74.85 33.4238 70.5 34.7738 66.15C35.5238 63.9 36.2738 61.65 37.0238 59.4C37.3238 58.65 37.6238 57.9 37.9238 57.15C38.0738 57.15 38.2238 57.15 38.3738 57.15C38.5238 58.05 38.6738 58.95 38.8238 59.85C39.1238 63.3 39.5738 66.75 39.8738 70.2C40.1738 72.75 40.3238 75.3 40.4738 77.85C40.6238 80.4 40.9238 82.95 41.0738 85.5C41.0738 86.25 40.7738 87 40.9238 87.6C41.3738 90.15 41.9738 92.7 42.4238 95.25C42.8738 97.8 43.3238 100.35 43.7738 102.9C43.9238 103.8 44.5238 104.7 44.5238 105.6C44.5238 107.7 44.9738 109.5 45.8738 111.3C48.8738 116.85 52.4738 121.8 58.4738 124.65C59.8238 125.4 61.4738 126.15 62.8238 125.1C63.7238 124.35 63.8738 122.85 63.1238 121.5C62.9738 121.2 63.2738 120.6 63.4238 120.15C63.4238 119.85 63.7238 119.4 63.5738 119.25C62.5238 117.6 63.7238 116.1 64.0238 114.6C64.3238 112.5 64.9238 110.55 65.5238 108.6C65.8238 107.7 66.1238 106.8 66.5738 106.05C67.4738 104.7 68.3738 103.35 67.7738 101.55C67.4738 100.35 68.5238 98.7 69.4238 98.7C69.5738 98.25 69.5738 97.8 69.7238 97.35C70.1738 96 71.5238 94.8 70.3238 93.3C70.1738 93.15 70.1738 92.85 70.3238 92.7C71.2238 91.65 72.4238 90.6 71.2238 88.95C72.2738 88.05 71.9738 86.7 72.4238 85.65C73.3238 83.7 74.2238 81.75 74.9738 79.8C75.2738 78.9 75.2738 78 75.4238 77.1C74.9738 77.1 74.5238 77.1 74.0738 77.1C73.9238 76.95 73.7738 76.8 73.6238 76.65C74.0738 76.35 74.6738 75.6 74.9738 75.75C76.0238 76.2 76.0238 75.6 76.3238 75C77.2238 72.3 78.1238 69.6 79.1738 66.9C79.4738 66.15 79.7738 65.25 80.3738 64.8C82.0238 63.6 82.1738 62.25 81.2738 60.9C81.7238 60.3 82.1738 60 82.4738 59.55C83.5238 57.75 84.4238 55.95 85.4738 54.15C85.7738 53.55 86.3738 53.1 87.1238 52.35C86.3738 52.2 85.9238 52.05 85.0238 51.9C86.0738 49.95 86.9738 48.3 87.8738 46.65C88.0238 46.8 88.1738 46.95 88.3238 47.1C87.4238 48.45 86.5238 49.8 85.6238 51.15C87.4238 51.45 88.0238 50.4 88.4738 49.05C88.7738 48.3 89.0738 47.55 89.5238 46.8C91.0238 44.1 92.5238 41.4 94.0238 38.7C95.3738 36.45 96.7238 34.2 98.2238 31.95C99.1238 30.45 100.474 29.25 101.374 27.75C102.874 25.35 104.224 22.8 105.724 20.4C107.224 17.85 108.874 15.45 110.524 13.05C110.524 13.05 110.674 13.05 110.824 13.05C110.824 13.65 110.824 14.25 110.824 14.85C111.124 20.1 110.674 25.35 109.924 30.6C109.324 34.2 109.024 37.8 108.424 41.4C107.824 45.15 106.924 48.9 106.174 52.65C105.724 54.6 105.424 56.55 104.974 58.5C104.824 59.4 104.674 60.3 104.524 61.2C104.374 62.25 104.074 63.3 103.924 64.35C103.774 65.4 103.624 66.45 103.474 67.35C103.174 68.25 102.874 69 102.724 69.9C102.574 70.35 102.724 70.8 102.574 71.25C102.124 72.9 101.374 74.55 100.924 76.2C100.024 79.95 99.2738 83.7 98.3738 87.45C97.6238 90.6 96.7238 93.75 95.8238 96.9C95.0738 99.9 94.3238 102.9 93.5738 105.9C93.4238 106.35 93.2738 106.95 93.2738 107.4C93.2738 107.7 93.7238 108 94.0238 108.3C94.1738 108 94.4738 107.85 94.4738 107.55C94.6238 106.65 94.7738 105.75 94.9238 104.85C95.3738 102.9 95.9738 100.95 96.5738 99C96.8738 99 97.1738 99 97.4738 99C95.2238 107.25 92.9738 115.5 90.7238 124.2C90.5738 123.6 90.5738 123.45 90.5738 123.3C90.4238 122.85 90.2738 122.4 90.1238 121.95L89.6738 122.1C89.6738 122.55 89.8238 123 89.8238 123.45C89.9738 124.5 90.4238 125.55 90.2738 126.45C89.8238 128.7 89.2238 130.95 88.6238 133.2C88.3238 134.1 87.8738 135 87.4238 135.9C86.5238 139.8 85.6238 143.7 84.7238 147.6C81.5738 148.2 83.0738 150.3 83.5238 152.1C82.9238 151.95 82.4738 151.8 82.1738 151.65C82.0238 152.7 81.8738 153.6 81.7238 154.5C81.8738 154.5 82.0238 154.5 82.1738 154.5C82.4738 153.9 82.7738 153.3 83.0738 152.7C83.8238 153.75 83.6738 153.6 81.8738 156C81.1238 156.9 81.1238 158.4 80.6738 160.05C81.2738 159.75 81.5738 159.6 81.8738 159.45C81.4238 160.35 82.1738 161.85 80.5238 162.15L80.3738 162.45C81.4238 163.65 80.3738 164.55 80.0738 165.6C79.9238 166.05 79.9238 166.5 79.9238 166.95C80.0738 169.8 80.2238 172.65 80.2238 175.5C80.2238 177 79.6238 178.5 81.2738 179.7C81.4238 179.85 81.2738 180.3 81.2738 180.6C81.4238 181.2 81.4238 181.95 81.7238 182.4C82.9238 184.2 83.9738 186.15 85.4738 187.65C87.2738 189.45 89.0738 191.4 91.9238 191.55C92.8238 191.55 93.7238 191.85 94.4738 192C94.6238 190.95 94.6238 190.2 94.7738 189.3C94.7738 189.3 94.6238 189 94.4738 189C91.9238 189 91.4738 187.05 90.8738 185.25C90.7238 184.65 90.7238 184.05 90.5738 183.45C89.5238 180.45 89.0738 177.3 89.5238 174.15C89.6738 173.4 89.9738 172.8 89.9738 172.05C90.5738 167.25 90.4238 162.3 91.9238 157.5C92.3738 156.15 92.0738 154.5 92.0738 152.7C92.9738 152.25 93.5738 151.35 93.2738 150C93.2738 149.7 93.2738 149.4 93.2738 149.1C93.8738 147 94.4738 144.9 95.0738 142.8C95.5238 141.3 95.8238 139.8 96.2738 138.3C96.7238 136.65 97.1738 135 97.6238 133.35C98.3738 130.65 99.1238 127.95 99.8738 125.25C100.624 122.7 101.374 120.15 102.124 117.6C102.724 115.35 103.474 113.25 104.074 111C104.224 110.4 104.374 109.8 104.524 109.2C104.824 108.15 105.124 107.1 105.424 106.05C105.574 105.75 105.724 105.45 105.874 105.15C106.474 102.6 107.074 100.05 107.674 97.5C107.974 96.45 108.424 95.4 108.724 94.2C109.324 91.8 109.774 89.4 110.224 87C110.824 84.45 111.574 81.9 112.024 79.35C112.174 78.15 112.174 76.95 112.624 75.75C113.374 73.8 113.824 71.55 114.274 69.45C114.724 67.5 115.174 65.55 115.624 63.6C116.074 61.35 116.224 58.95 116.674 56.7C117.424 53.7 118.474 50.7 119.074 47.7C119.674 44.85 119.974 42 120.424 39.15C120.874 36.15 121.474 33.15 121.924 30.15C122.224 27.6 122.374 24.9 122.524 22.2C122.524 20.85 122.224 19.35 122.224 17.85L122.974 18.75ZM7.17383 139.5C6.87383 141 6.57383 142.5 6.12383 143.85C5.97383 144.45 5.37383 145.05 5.07383 145.65C4.92383 145.65 4.77383 145.65 4.62383 145.65C4.92383 143.55 5.22383 141.45 5.67383 139.35C5.67383 139.05 6.12383 138.75 6.42383 138.45C6.57383 138.9 6.72383 139.35 6.72383 139.8L7.17383 139.5ZM8.82383 129.9C8.52383 131.25 8.07383 132.6 7.77383 133.95C7.77383 134.25 7.92383 134.55 8.07383 135.15C7.32383 134.85 7.02383 134.7 6.57383 134.55C7.02383 132.9 7.47383 131.25 7.92383 129.6C8.07383 129.3 8.37383 129 8.67383 128.7C8.82383 129.15 9.12383 129.6 8.97383 129.9H8.82383ZM15.2738 114.15C15.1238 114.15 14.9738 114.15 14.8238 114.15C15.1238 112.8 15.4238 111.45 15.7238 110.1C15.8738 110.1 16.0238 110.1 16.1738 110.1C15.8738 111.45 15.5738 112.8 15.2738 114.15ZM18.5738 96.15C17.6738 99.15 16.6238 102 15.7238 105C14.8238 108.15 14.2238 111.3 13.3238 114.45C12.5738 116.85 11.5238 119.25 10.6238 121.65C10.6238 121.8 10.6238 121.95 10.6238 122.1C10.7738 123.9 10.6238 125.55 8.82383 126.3C9.12383 126.9 9.27383 127.35 9.42383 127.8C8.22383 127.35 8.07383 126.75 8.52383 125.7C9.27383 123.6 9.72383 121.35 10.3238 119.25C10.6238 118.05 10.9238 117 11.2238 115.8C11.8238 113.85 12.4238 111.9 13.0238 109.95C13.3238 109.2 13.6238 108.45 13.7738 107.7C13.9238 107.1 13.9238 106.35 13.9238 105.75C14.9738 102.15 16.0238 98.55 17.2238 94.8C18.1238 94.5 18.5738 94.8 18.2738 96L18.5738 96.15ZM18.7238 93.9C17.9738 93.15 18.8738 89.85 20.3738 88.05C19.7738 90.15 19.3238 91.95 18.8738 93.9H18.7238ZM22.1738 70.95C21.2738 74.1 20.3738 77.25 19.4738 80.4C18.2738 84.6 17.2238 88.8 16.0238 93C15.2738 95.25 14.2238 97.35 13.4738 99.6C12.8738 101.7 12.4238 103.95 11.8238 106.2C11.2238 108.45 10.4738 110.7 9.87383 112.95C9.72383 112.95 9.57383 112.95 9.42383 112.95C12.8738 98.4 17.9738 84.3 22.3238 69.9C22.3238 70.2 22.3238 70.5 22.1738 70.8V70.95ZM73.1738 78.6C72.5738 79.65 71.9738 80.7 71.3738 81.75C71.2238 81.75 71.0738 81.75 70.9238 81.75C71.3738 80.55 71.8238 79.35 72.2738 78.15C72.5738 78.3 72.8738 78.45 73.1738 78.6ZM77.6738 65.85C77.5238 65.7 77.3738 65.55 77.2238 65.4C77.6738 64.2 78.1238 63 78.5738 61.8C78.7238 61.95 78.8738 62.1 79.0238 62.25C78.5738 63.45 78.1238 64.65 77.6738 65.85ZM79.4738 51.15C80.2238 49.35 80.9738 47.55 81.8738 45.6C82.4738 46.65 81.1238 49.8 79.3238 51.3L79.4738 51.15ZM83.2238 45.15C83.0738 45 82.9238 44.85 82.7738 44.7C83.3738 43.35 83.9738 42 84.5738 40.65C84.7238 40.8 84.8738 40.95 85.0238 41.1C84.4238 42.45 83.8238 43.8 83.2238 45.15ZM86.9738 32.55C86.8238 32.4 86.6738 32.25 86.5238 32.1C87.8738 30 89.2238 27.9 90.5738 25.8C90.7238 25.95 90.8738 26.1 91.0238 26.25C89.8238 28.5 88.6238 30.75 87.4238 33L86.9738 32.55ZM89.6738 42.9C89.5238 42.75 89.3738 42.6 89.2238 42.45C90.1238 40.95 91.0238 39.45 91.9238 37.95C92.0738 38.1 92.2238 38.25 92.3738 38.4C91.4738 39.9 90.5738 41.4 89.6738 42.9ZM84.5738 164.4C84.5738 164.55 84.1238 164.55 83.9738 164.55C83.9738 163.8 83.9738 163.05 83.9738 162.3C84.2738 162.3 84.5738 162.3 84.8738 162.3C84.8738 162.9 84.8738 163.5 84.7238 164.1L84.5738 164.4ZM85.4738 160.8C85.3238 161.1 84.4238 161.25 83.9738 161.55C83.8238 161.4 83.6738 161.25 83.5238 161.1C83.9738 159.45 84.4238 157.8 84.8738 156.15C85.0238 156.15 85.1738 156.15 85.3238 156.15C85.4738 156.6 85.7738 157.05 85.7738 157.5C85.6238 158.7 85.4738 159.9 85.1738 161.1L85.4738 160.8ZM91.3238 142.05C91.1738 142.8 90.7238 143.55 90.4238 144.3C90.2738 144.3 90.1238 144.3 89.9738 144.3C90.5738 141.9 91.1738 139.5 91.9238 136.8C92.3738 137.85 92.8238 138.6 93.2738 139.5C91.4738 139.5 91.4738 140.7 91.3238 141.9V142.05ZM94.1738 136.2C93.8738 136.5 92.9738 136.5 92.5238 136.35C92.2238 136.2 92.2238 135.45 92.0738 135C92.2238 135 92.3738 135 92.5238 135C92.8238 135.3 93.1238 135.6 93.5738 136.05C93.7238 135.45 93.8738 135 94.0238 134.55C94.1738 134.55 94.3238 134.55 94.4738 134.55C94.3238 135.15 94.3238 135.9 94.0238 136.35L94.1738 136.2ZM93.7238 130.2C93.5738 131.4 93.4238 132.6 93.2738 133.8C93.1238 133.8 92.9738 133.8 92.8238 133.8C92.5238 132.6 92.6738 131.4 93.7238 130.35V130.2ZM93.7238 130.2C93.7238 128.25 94.0238 126.3 95.3738 124.65C95.2238 126.6 94.7738 128.4 93.7238 130.05V130.2ZM100.174 113.55C99.7238 113.55 99.2738 113.55 98.6738 113.4C97.7738 116.85 96.8738 120.3 95.9738 123.75C95.6738 123.75 95.3738 123.75 95.0738 123.75C95.9738 120.15 96.8738 116.55 97.7738 112.65C98.6738 112.8 99.4238 112.95 100.174 113.1C100.174 113.1 100.024 113.55 100.024 113.85L100.174 113.55ZM99.2738 109.95C99.1238 109.95 98.9738 109.95 98.8238 109.95C99.1238 109.05 99.4238 108.15 99.7238 107.25C100.024 107.4 100.324 107.55 100.624 107.7C100.324 108.6 100.024 109.5 99.7238 110.4L99.2738 109.95ZM100.474 106.5C100.774 105.3 101.074 104.1 101.374 102.9C101.524 102.9 101.674 102.9 101.824 102.9C101.524 104.1 101.224 105.3 100.924 106.5C100.774 106.5 100.624 106.5 100.474 106.5ZM101.824 110.25C101.674 110.25 101.524 110.25 101.374 110.25C101.524 109.5 101.674 108.75 101.824 108C102.124 108.15 102.424 108.3 102.724 108.45C102.424 109.2 102.124 109.95 101.824 110.7V110.25ZM102.424 94.65C101.374 98.4 100.474 102.15 99.2738 105.75C98.3738 108.45 97.7738 111.15 97.3238 113.85C97.3238 114.15 97.3238 114.45 97.1738 114.75C95.9738 116.4 96.1238 118.35 95.6738 120.15C95.2238 121.8 94.7738 123.45 94.3238 125.1C93.2738 129 92.3738 132.9 91.3238 136.65C90.5738 139.5 89.6738 142.35 88.7738 145.2C88.6238 145.65 88.6238 146.1 88.4738 146.55C88.0238 147.75 87.5738 148.95 87.1238 150.3C87.7238 151.35 87.1238 154.65 85.4738 156.45C85.3238 155.55 85.0238 154.8 85.1738 154.2C85.6238 152.25 86.2238 150.45 86.6738 148.65C86.9738 147.15 87.2738 145.65 87.5738 144.15C88.3238 140.85 89.0738 137.55 89.9738 134.25C90.7238 131.55 91.4738 129 92.2238 126.45C92.9738 123.9 93.5738 121.35 94.3238 118.8C94.9238 116.7 95.6738 114.6 96.2738 112.5C96.5738 111.6 96.4238 110.55 96.7238 109.65C97.3238 107.55 98.2238 105.6 98.8238 103.5C99.2738 102 99.4238 100.35 99.8738 98.85C100.324 97.2 101.074 95.7 101.674 94.05C101.974 93.3 102.124 92.55 102.274 91.8C102.574 91.8 102.874 91.8 103.174 91.8C103.024 92.7 102.874 93.6 102.574 94.5L102.424 94.65ZM103.924 88.05C103.774 88.05 103.624 88.05 103.474 88.05C103.474 86.85 103.474 85.65 103.624 84.45C103.624 83.85 103.924 83.25 104.074 82.65C104.224 81.75 104.374 80.85 104.824 79.95C106.174 82.8 104.374 85.2 103.924 87.9V88.05ZM110.824 55.2C110.674 55.95 110.374 56.55 110.074 57.15C109.924 57.3 109.774 57.45 109.774 57.6C110.374 60.75 109.174 63.75 108.574 66.75C107.824 70.95 106.924 75 106.024 79.05C105.874 79.05 105.724 79.05 105.574 79.05C105.574 78.3 105.574 77.55 105.724 76.8C106.024 74.85 106.324 72.9 106.774 70.95C107.074 69.75 107.524 68.55 107.824 67.35C108.124 66.15 108.274 64.95 108.574 63.75C108.724 62.7 109.024 61.65 109.174 60.6C109.774 57.9 110.224 55.2 110.824 52.5C110.974 52.05 111.574 51.75 112.174 51.6C111.874 52.8 111.724 54 111.424 55.2H110.824ZM76.7738 53.4C76.6238 53.25 76.4738 53.1 76.3238 52.95C75.5738 54.3 74.6738 55.65 73.9238 57C73.1738 58.5 72.5738 60 71.9738 61.5C71.5238 62.4 71.0738 63.3 70.6238 64.2C69.8738 65.85 69.1238 67.65 68.3738 69.3C68.0738 70.05 67.4738 70.8 68.3738 71.7C71.0738 65.4 73.7738 59.25 76.4738 53.1L76.7738 53.4ZM5.07383 131.85C4.77383 131.85 4.47383 131.85 4.17383 131.85C3.72383 135.45 2.22383 138.9 2.07383 142.5C2.37383 142.5 2.67383 142.5 2.97383 142.5C3.72383 138.9 4.47383 135.3 5.22383 131.7L5.07383 131.85ZM67.3238 75.6C67.7738 74.85 68.0738 74.1 68.3738 73.35C68.5238 73.05 68.3738 72.6 68.3738 72.3C68.0738 72.45 67.4738 72.6 67.3238 72.9C67.0238 73.95 66.8738 75.15 66.5738 76.35C66.8738 76.2 67.3238 76.05 67.4738 75.75L67.3238 75.6ZM87.8738 135.6C85.7738 137.55 85.7738 137.85 86.9738 138.75C87.2738 138 87.7238 137.25 88.1738 136.5C88.1738 136.2 88.1738 135.9 88.0238 135.45L87.8738 135.6ZM65.3738 79.65C66.4238 78.75 67.7738 78 66.8738 76.35C66.2738 77.4 65.6738 78.45 65.0738 79.5C65.2238 79.5 65.3738 79.5 65.5238 79.5L65.3738 79.65ZM79.4738 48.45C79.3238 48.3 79.1738 48.15 79.0238 48C78.5738 48.9 78.1238 49.8 77.6738 50.7C77.8238 50.85 77.9738 51 78.1238 51.15C78.5738 50.25 79.0238 49.35 79.4738 48.45ZM90.1238 128.55C90.2738 127.65 90.4238 126.9 90.5738 126C89.0738 127.05 88.9238 127.95 90.1238 128.7V128.55ZM156.209 130.95C155.609 131.4 155.009 132 154.409 132.45C153.209 133.35 152.009 134.25 150.809 135.15C149.759 135.9 148.559 136.5 147.509 137.1C147.359 136.95 147.209 136.8 147.059 136.65C148.259 135.75 149.459 134.85 150.959 133.8C150.359 133.8 150.059 133.65 149.909 133.8C148.409 134.7 146.909 135.6 145.409 136.5C142.859 138.15 140.309 139.8 137.759 141.6C136.559 142.5 135.509 143.55 134.159 144.3C133.259 144.75 131.609 144.15 131.759 146.1C131.759 146.1 131.459 146.25 131.309 146.4C129.809 147.15 128.309 147.75 126.959 148.5C123.959 150.3 120.809 151.8 117.359 152.1C116.159 152.25 114.659 152.7 113.909 151.05C112.409 147.75 113.009 144.45 113.909 141.15C114.359 139.2 114.809 137.25 115.409 135.3C115.559 134.55 115.859 133.8 116.159 133.05C116.759 133.65 117.509 134.1 118.109 134.7C119.459 136.35 122.159 136.8 123.659 135.45C127.109 132.3 130.709 129.15 133.859 125.7C135.659 123.75 138.059 121.95 138.359 118.8C138.359 118.65 138.509 118.5 138.659 118.35C140.759 117.3 140.759 114.9 141.359 113.25C142.109 111.45 141.659 108.9 141.209 106.8C140.459 103.35 137.609 101.25 135.059 99.15C133.559 97.95 131.759 97.65 130.109 98.55C127.559 99.75 125.009 100.95 122.759 102.6C120.809 103.95 119.009 105.6 117.509 107.55C115.559 109.95 113.909 112.65 112.259 115.35C111.359 116.7 110.759 118.2 110.009 119.7C108.659 122.4 107.159 125.1 105.959 127.8C105.209 129.45 105.059 131.4 104.459 133.2C103.109 137.1 103.559 141.15 105.059 144.75C106.859 149.1 108.809 153.75 112.709 156.9C115.409 159.15 118.259 161.4 122.009 161.25C123.509 161.1 125.159 160.8 126.659 160.35C128.009 159.9 129.359 159.15 130.559 158.4C131.159 158.1 131.609 157.5 132.209 157.05C134.759 155.25 137.309 153.6 139.859 151.8C141.059 150.9 142.709 150 143.009 148.8C143.459 147 144.959 146.55 145.859 145.35C146.309 144.75 146.909 144.3 147.359 143.7C149.009 141.6 150.509 139.5 152.009 137.4C152.309 137.1 152.609 136.8 152.909 136.5C153.959 135.45 155.159 134.55 156.209 133.35C157.109 132.45 157.709 131.25 158.459 130.2C158.309 130.05 158.159 129.9 158.009 129.75C157.409 130.05 156.809 130.35 156.209 130.8V130.95ZM118.409 126.15C119.009 124.8 119.759 123.45 120.509 122.1C120.659 121.8 120.809 121.35 121.109 121.05C122.159 120 123.209 118.95 122.459 117.75C123.659 116.7 125.009 116.1 125.309 115.05C126.359 112.35 128.609 110.85 130.709 109.2C132.059 108.15 133.559 107.25 135.059 106.35C135.959 105.75 136.409 106.05 136.409 107.1C136.259 110.25 135.059 112.95 132.959 115.35C132.059 116.4 131.309 117.75 130.409 118.8C129.809 119.4 128.909 119.7 128.159 120.3C126.359 121.8 124.559 123.45 122.759 124.95C121.259 126.15 119.759 127.35 118.259 128.55C118.109 128.4 117.959 128.25 117.809 128.1C118.109 127.35 118.259 126.6 118.559 125.85L118.409 126.15ZM142.859 138.6C143.609 138.45 144.359 138.3 145.109 138.15C145.109 138.3 145.109 138.45 145.109 138.6C144.509 139.5 143.759 139.35 142.859 138.45V138.6ZM157.709 126.3C159.509 126.15 160.409 125.1 160.709 123.6C159.659 124.5 158.609 125.4 157.559 126.3H157.709ZM197.636 145.35C196.436 145.8 195.236 145.2 195.236 144.15C195.386 142.95 195.236 141.75 195.386 140.55C195.536 139.65 196.136 138.9 196.286 138C196.436 136.5 196.286 135 196.586 133.65C197.036 131.4 197.636 129.15 198.386 127.05C198.836 125.7 199.586 124.5 198.986 123C198.836 122.7 199.136 122.1 199.286 121.65C199.586 120.6 200.036 119.55 200.036 118.5C200.036 117.45 199.586 116.25 199.736 115.2C200.486 111.3 200.186 107.85 197.036 105C196.736 104.7 196.886 103.95 196.736 103.35C196.586 102.9 196.436 102.3 196.136 102.15C195.086 101.55 193.886 101.1 192.686 100.65C192.386 100.5 191.786 100.35 191.636 100.05C191.036 98.25 189.386 98.4 188.036 98.25C184.586 97.65 182.936 100.5 180.686 102.3C180.386 102.45 180.386 102.9 180.236 103.35C181.886 102.9 182.336 100.8 184.586 101.25C181.586 104.1 178.886 106.65 176.186 109.2C176.336 109.2 176.486 109.2 176.636 109.2C176.486 109.8 176.486 110.55 176.186 111C175.586 112.05 174.686 112.95 173.936 113.85C173.636 114.15 173.336 114.45 173.036 114.75H172.886C173.186 114 173.486 113.25 173.786 112.5C173.636 112.5 173.486 112.5 173.336 112.5C173.336 113.7 171.236 114.15 172.286 115.95C168.236 118.5 166.136 122.85 163.436 126.75C163.286 126.75 163.136 126.75 162.986 126.75C163.136 126.3 163.286 125.85 163.436 125.4C164.036 123.6 164.786 121.8 165.386 120C166.886 114.9 168.536 109.8 169.736 104.55C170.186 102.75 169.436 100.8 169.136 98.85C169.136 98.7 168.986 98.55 168.836 98.55C168.086 97.8 167.336 97.05 166.436 96.3C165.086 95.25 164.036 95.4 163.286 96.9C162.386 98.7 161.636 100.5 160.886 102.45C160.136 104.7 159.386 106.95 158.636 109.2C157.586 112.5 156.536 115.8 155.486 119.1C153.686 124.65 152.036 130.35 150.086 135.9C148.436 140.7 146.786 145.5 146.636 150.6C146.636 151.2 146.336 151.95 146.486 152.4C147.686 154.5 148.286 157.05 150.236 158.7C150.986 159.45 152.036 159.9 153.086 160.35C154.586 161.1 155.186 160.05 155.786 158.85C155.936 158.4 156.536 158.1 156.836 157.65C157.286 157.05 157.586 156.3 157.886 155.55C159.386 152.55 160.436 149.25 162.386 146.7C164.036 144.6 165.386 142.35 166.736 140.1C168.686 136.65 170.336 133.05 172.436 129.75C174.686 126.3 177.236 123 179.636 119.7C180.686 118.35 182.186 117.3 183.086 115.8C184.736 112.95 187.436 111.45 189.836 109.65C190.286 109.35 190.736 109.2 191.186 109.05C191.186 109.5 191.186 109.95 191.186 110.4C191.186 111.45 191.186 112.5 191.186 113.55C191.186 114.15 191.336 114.9 191.186 115.5C190.586 118.35 189.836 121.2 189.236 124.05C188.936 125.1 189.086 126.15 188.786 127.2C187.586 131.7 186.686 136.2 187.136 140.85C187.586 144.9 189.536 148.05 192.236 150.9C193.736 152.4 195.086 152.25 196.586 150.9C197.336 150.15 198.086 149.55 198.836 148.95C198.986 148.8 199.436 148.65 199.436 148.5C198.986 146.4 200.936 145.8 201.686 144.45C201.986 144 202.286 143.7 202.586 143.25C200.786 143.7 199.286 144.3 197.786 144.9L197.636 145.35ZM176.186 117.15C172.436 122.1 169.136 127.35 165.536 132.45C165.386 132.3 165.236 132.15 165.086 132C166.436 130.05 167.786 128.1 168.986 126.15C170.186 124.2 171.386 122.1 172.736 120.15C173.186 119.4 173.936 118.8 174.536 118.2C174.836 117.75 175.136 117.3 175.286 116.85C175.886 115.5 176.486 114.15 177.086 112.8C177.236 112.5 177.536 112.05 177.836 111.9C179.636 111.15 180.836 109.8 181.736 108C181.886 107.85 182.336 107.85 182.636 107.7C183.086 107.4 183.686 107.25 183.836 106.8C184.586 104.55 186.986 104.25 188.636 102.9C184.586 107.55 180.236 112.05 176.486 117L176.186 117.15ZM269.64 129.3C268.59 130.5 267.69 131.4 266.79 132.3C266.19 132.9 265.44 133.35 264.84 133.8C261.24 136.5 257.79 139.35 254.19 141.9C251.94 143.55 249.54 144.9 247.14 146.1C244.89 147.3 242.79 148.8 240.09 148.8C238.59 148.8 237.69 148.2 237.84 147C238.14 145.05 238.44 143.1 238.74 141.15C239.64 135.45 241.89 130.2 243.69 124.8C243.99 123.9 244.74 123 244.74 122.1C244.74 120.15 245.94 119.4 247.29 118.5C247.74 118.2 248.34 117.15 248.19 116.85C247.29 115.35 246.24 114 245.04 112.8C244.29 112.05 243.24 111.6 242.34 110.85C241.14 109.8 240.24 109.65 239.64 110.7C238.29 113.4 237.09 116.25 235.74 118.95C235.29 119.85 234.69 120.75 233.94 121.5C231.39 124.2 228.54 126.75 225.99 129.45C222.09 133.65 218.34 138 214.44 142.2C213.39 143.4 212.04 144.3 210.84 145.35C210.69 144.3 210.84 143.55 210.99 142.8C211.29 141.6 211.44 140.25 211.74 139.05C212.34 136.95 213.09 134.85 213.84 132.9C215.04 129.9 215.94 126.75 217.59 124.05C219.39 120.9 219.39 117.6 219.24 114.3C219.09 112.2 217.44 110.85 215.79 109.65C214.44 108.6 214.14 108.75 213.24 110.1C210.84 114.3 209.19 118.8 207.69 123.45C206.04 128.4 204.39 133.35 202.89 138.45C201.09 144.75 202.74 150.45 206.34 155.55C207.09 156.75 208.29 157.8 209.49 158.4C211.74 159.45 216.09 156.6 217.14 153.75C217.44 152.85 218.04 151.95 218.64 151.2C219.69 150 221.19 149.1 221.04 147.15C221.04 146.85 221.34 146.55 221.49 146.25C221.94 145.35 222.39 144.45 222.99 143.55C223.44 142.95 224.04 142.35 224.64 141.75C225.09 141.3 225.69 140.85 225.99 140.25C227.04 138.6 228.09 136.8 229.14 135C229.29 135 229.44 135 229.59 135C229.59 136.05 229.59 137.1 229.59 138.15C229.59 139.35 229.44 140.7 229.74 141.9C230.79 145.2 231.54 148.65 233.64 151.5C235.29 153.75 236.79 155.85 239.49 157.2C242.04 158.4 244.29 158.4 246.69 157.35C247.59 156.9 248.79 156.75 249.54 156.15C250.44 155.4 250.74 154.05 251.49 153.15C252.54 152.1 253.74 151.35 254.49 149.85C255.24 148.35 257.04 147.45 258.24 146.25C258.69 145.8 258.84 145.05 259.29 144.45C259.74 143.85 260.19 143.25 260.79 142.8C262.44 141.6 263.79 140.25 263.79 138C263.79 137.7 264.24 137.4 264.54 137.1C264.84 136.65 265.29 136.35 265.59 135.9C266.49 133.95 267.39 132 268.29 130.05C268.44 129.75 268.29 129.3 268.29 128.7L269.64 129.3ZM218.94 140.7C218.79 140.55 218.64 140.4 218.49 140.25C218.94 139.65 219.39 139.05 219.84 138.45C220.14 138.15 220.59 137.85 220.59 137.55C220.44 135.75 221.64 136.05 222.84 136.2C221.49 137.55 221.19 139.8 219.09 140.55L218.94 140.7ZM226.74 133.05C226.29 133.65 225.69 134.25 225.09 134.85C224.79 135.15 224.49 135.45 224.19 135.75C223.89 135.3 223.59 134.85 223.29 134.4C222.99 134.55 222.69 134.7 222.39 134.85C222.24 134.7 222.09 134.55 221.94 134.4C222.54 133.8 223.29 132.6 223.74 132.75C225.24 133.05 225.99 132 226.89 131.4C227.04 131.55 227.19 131.7 227.34 131.85C227.19 132.3 227.04 132.75 226.74 133.05ZM252.99 145.95C252.09 146.55 251.19 147.3 250.29 147.9C249.84 148.2 249.39 148.2 248.94 148.35C249.09 147.9 249.09 147.15 249.39 146.85C250.29 146.1 251.34 145.2 252.39 145.05C253.59 144.9 253.89 144.3 254.19 143.4C254.19 143.25 254.34 143.1 254.64 142.8C255.09 144.45 254.34 145.35 253.14 146.1L252.99 145.95ZM256.44 142.2C256.59 142.65 256.74 143.1 256.89 143.55C256.74 143.7 256.59 143.85 256.44 144C256.14 143.7 255.69 143.4 255.54 143.1C255.39 142.8 255.54 142.05 255.84 141.75C257.94 140.1 260.19 138.45 262.44 136.8C262.44 136.8 262.59 136.8 263.19 136.95C260.79 138.9 258.69 140.7 256.44 142.5V142.2Z" fill="#D9D9D9" fill-opacity="0.5"/>
</svg>
