<svg width="43" height="39" viewBox="0 0 43 39" fill="none" xmlns="http://www.w3.org/2000/svg">
<path d="M19.3859 35.0796L19.3837 35.0776C13.8177 30.0883 9.31941 26.0474 6.19507 22.2688C3.08666 18.5095 1.5 15.1968 1.5 11.6894C1.5 5.96854 6.01327 1.5 11.825 1.5C15.1189 1.5 18.3004 3.02351 20.3673 5.40411L21.5 6.70868L22.6327 5.40411C24.6996 3.02351 27.8811 1.5 31.175 1.5C36.9867 1.5 41.5 5.96854 41.5 11.6894C41.5 15.1968 39.9133 18.5095 36.8049 22.2688C33.6806 26.0474 29.1823 30.0883 23.6163 35.0776L23.6141 35.0796L21.5 36.9821L19.3859 35.0796Z" stroke="#FF4646" stroke-width="3"/>
</svg>
