<svg width="36" height="45" viewBox="0 0 36 45" fill="none" xmlns="http://www.w3.org/2000/svg">
<path d="M4.5 45C3.2625 45 2.2035 44.5597 1.323 43.6792C0.441 42.7972 0 41.7375 0 40.5V13.5C0 12.2625 0.441 11.2035 1.323 10.323C2.2035 9.441 3.2625 9 4.5 9H9C9 6.525 9.88125 4.40625 11.6438 2.64375C13.4063 0.88125 15.525 0 18 0C20.475 0 22.5938 0.88125 24.3562 2.64375C26.1187 4.40625 27 6.525 27 9H31.5C32.7375 9 33.7972 9.441 34.6792 10.323C35.5597 11.2035 36 12.2625 36 13.5V40.5C36 41.7375 35.5597 42.7972 34.6792 43.6792C33.7972 44.5597 32.7375 45 31.5 45H4.5ZM4.5 40.5H31.5V13.5H27V18C27 18.6375 26.7847 19.1715 26.3542 19.602C25.9223 20.034 25.3875 20.25 24.75 20.25C24.1125 20.25 23.5785 20.034 23.148 19.602C22.716 19.1715 22.5 18.6375 22.5 18V13.5H13.5V18C13.5 18.6375 13.2848 19.1715 12.8543 19.602C12.4223 20.034 11.8875 20.25 11.25 20.25C10.6125 20.25 10.0785 20.034 9.648 19.602C9.216 19.1715 9 18.6375 9 18V13.5H4.5V40.5ZM13.5 9H22.5C22.5 7.7625 22.0597 6.7035 21.1793 5.823C20.2973 4.941 19.2375 4.5 18 4.5C16.7625 4.5 15.7035 4.941 14.823 5.823C13.941 6.7035 13.5 7.7625 13.5 9Z" fill="#CFCFCF"/>
</svg>
