<svg width="389" height="173" viewBox="0 0 389 173" fill="none" xmlns="http://www.w3.org/2000/svg">
<path d="M118.824 40.45C118.824 38.95 118.524 37.45 118.374 35.95C118.224 34.9 118.074 33.85 117.924 32.8C118.224 31.9 118.374 30.85 118.224 29.95C118.074 28.3 117.174 26.5 117.474 25C118.074 22.15 116.574 20.05 115.824 17.8C114.624 14.5 112.974 11.35 110.574 8.65C108.774 6.69999 107.124 4.6 104.574 3.55C103.374 3.1 102.174 2.64999 100.974 2.19999C99.6244 1.6 98.4244 0.999988 96.9244 0.399996C96.4744 3.24999 96.1744 5.64999 95.8744 8.05C97.2244 8.05 97.5244 8.79999 97.0744 10C96.9244 10.3 96.9244 10.75 96.7744 11.05C96.1744 12.4 96.3244 13.45 98.1244 14.35C98.8744 13.45 99.7744 12.4 100.674 11.35C100.974 11.05 101.124 10.6 101.424 10.3C102.024 9.69999 102.474 8.79999 103.224 8.65C103.824 8.49999 105.024 8.34999 105.174 9.69999C105.174 10.45 105.624 11.2 105.924 11.95C106.524 13.45 107.274 14.95 107.724 16.45C108.324 18.55 109.074 20.65 109.224 22.75C109.524 25.15 110.874 27.25 110.124 29.8C109.824 31 110.274 32.5 109.524 33.7C109.374 34.15 109.374 34.9 109.674 35.35C110.424 36.7 109.974 38.05 109.824 39.4C109.674 40 109.674 40.6 109.674 41.5C109.374 42.7 108.924 44.2 108.474 45.7C111.324 45.55 110.274 46.75 109.374 47.8C109.824 48.1 110.274 48.25 111.024 48.55C109.074 49.45 110.574 52.3 107.574 52.45C109.224 53.35 108.774 54.25 108.174 55.3C108.024 55.6 108.324 56.2 108.324 56.65C108.324 57.1 108.324 57.55 108.474 57.85C108.774 59.2 106.224 60.7 108.774 61.9C108.324 63.1 108.024 64.3 107.274 65.2C106.524 66.1 106.524 66.7 107.124 67.6C108.024 68.8 107.724 69.7 106.674 70.45C106.224 70.75 106.074 71.2 105.924 71.35C106.674 71.65 107.274 71.95 107.874 71.95C108.324 71.95 108.924 71.8 109.224 71.5C109.524 71.35 109.524 70.75 109.524 70.45C109.524 69.85 109.224 69.25 109.224 68.65C109.374 66.55 109.674 64.45 109.824 62.35C110.124 59.2 110.424 56.05 110.724 52.9C110.874 52 111.174 51.25 111.174 50.35C111.324 48.7 111.324 47.05 111.474 45.4C111.624 43.6 111.774 41.8 111.924 40C111.924 39.4 111.624 38.8 111.624 38.2C111.774 35.8 112.524 33.4 111.774 31C111.624 30.55 111.774 29.95 111.924 29.5C111.924 29.35 112.374 29.2 112.674 29.05C112.824 29.35 113.124 29.65 113.124 29.95C113.274 31.45 113.274 32.95 113.274 34.45C113.574 34.45 113.724 34.45 113.874 34.45C114.174 34.3 114.474 34.15 114.774 34.15L114.924 34.6C114.624 34.9 114.324 35.05 114.024 35.2C113.724 35.35 113.424 35.5 112.974 35.8C114.174 36.25 115.224 36.7 114.774 38.35C114.324 37.75 114.024 37.3 113.724 36.85C112.974 37.75 112.524 38.35 113.874 38.8C114.174 38.95 114.324 39.4 114.624 39.7C114.324 39.7 114.024 39.7 113.724 39.85C113.424 40 113.124 40.3 112.524 40.6C113.274 40.9 113.574 41.05 113.574 41.05C113.274 42.1 113.124 43 112.974 43.9C113.124 43.9 113.274 43.9 113.424 43.9C113.724 43.45 114.024 43 114.324 42.55C114.474 42.55 114.624 42.55 114.774 42.55C114.774 43.6 114.774 44.65 114.774 45.25C113.874 45.4 113.124 45.25 112.974 45.55C112.674 46.15 112.524 46.9 112.524 47.65C112.524 47.95 112.824 48.25 112.974 48.55C113.274 48.4 113.574 48.25 113.724 47.95C114.024 47.65 114.174 47.2 114.474 46.75C114.624 46.9 114.774 47.05 114.924 47.2C114.474 48.1 114.324 49.45 113.574 49.75C111.924 50.65 112.374 51.25 113.424 52.15C114.474 53.05 114.324 54.1 112.974 54.55C111.324 55 112.524 56.5 111.924 57.4C112.374 57.7 112.824 58 113.424 58.45C113.274 60.7 112.974 63.25 112.674 65.8C112.524 65.8 112.374 65.8 112.224 65.8C112.074 65.2 111.924 64.6 111.774 64C111.624 64 111.474 64 111.324 64C111.024 66.4 110.724 68.8 110.424 71.2C110.574 71.2 110.724 71.2 110.874 71.2C111.024 70.9 111.174 70.6 111.474 70C111.924 70.6 112.524 71.05 112.524 71.35C112.374 72.4 112.074 73.45 111.774 74.5C111.624 74.95 111.174 75.4 110.874 75.85C110.424 76.3 109.974 76.75 109.524 77.2C109.674 77.35 109.824 77.5 109.974 77.65C110.424 77.5 110.874 77.35 111.624 77.05C111.324 78.25 111.174 79.15 111.024 80.2C110.574 79.75 110.274 79.45 109.824 79C109.224 80.35 108.774 81.7 108.324 83.05C108.474 83.2 108.624 83.35 108.774 83.5C109.224 82.6 109.674 81.7 110.124 80.8C110.424 81.25 110.424 81.55 110.424 81.85C110.274 83.05 111.024 84.85 108.624 84.85C108.474 84.85 108.324 85.3 108.324 85.6C107.874 87.25 107.574 88.9 107.274 90.4C107.874 90.1 108.474 89.8 109.224 89.5C109.524 91.75 108.624 93.4 107.124 93.1C106.824 94 106.524 94.9 106.074 95.95C106.974 95.95 107.574 95.8 108.024 95.95C108.174 96.1 108.324 97 108.174 97.15C107.874 97.6 107.274 97.9 106.824 98.05C106.374 98.2 105.924 98.2 105.174 98.35C107.124 99.7 107.724 100.6 107.274 101.8C106.974 102.55 106.224 103.15 105.774 103.75C106.674 103.9 107.124 104.5 106.674 105.7C105.924 107.65 105.174 109.6 104.424 111.55C104.274 111.85 104.274 112.15 104.424 112.3C105.324 113.8 104.274 114.1 103.224 114.4C102.924 114.4 102.624 114.55 102.324 114.7C105.324 114.85 105.474 115 105.324 116.2C104.124 116.35 102.924 116.5 101.724 116.65C101.424 117.85 101.124 119.05 100.824 120.25C100.974 120.25 101.124 120.25 101.274 120.25C101.724 119.35 102.174 118.45 102.624 117.55C102.924 117.7 103.224 117.85 103.524 118C103.224 119.35 103.224 120.85 102.624 122.05C102.024 123.4 100.974 124.45 100.524 125.2C100.674 125.5 100.974 125.95 100.974 126.25C100.824 127.45 100.674 128.5 100.374 129.55C100.224 130.3 99.9244 131.05 99.6244 131.8C99.3244 132.7 98.2744 133.9 98.5744 134.65C99.1744 136.3 98.1244 136.15 97.0744 136.3C98.5744 138.55 95.4244 138.25 95.1244 139.75C95.7244 139.75 96.1744 139.75 97.0744 139.6C96.3244 141.55 95.7244 143.2 94.9744 145C94.5244 144.7 94.0744 144.4 93.7744 144.25C93.3244 145 93.0244 145.6 92.7244 146.2C92.5744 146.2 92.4244 146.2 92.2744 146.2C92.4244 145.75 92.2744 145.15 92.5744 144.85C93.4744 144.1 92.8744 143.8 92.4244 143.35C92.1244 143.2 91.8244 143.05 91.2244 142.6C91.9744 142.45 92.4244 142.45 92.7244 142.3C93.3244 142 94.0744 141.55 94.2244 140.95C94.6744 139.3 94.9744 137.5 95.2744 135.85C95.2744 135.7 95.2744 135.55 95.4244 135.4C96.0244 134.05 96.6244 132.7 97.2244 131.35C97.2244 131.2 97.2244 131.05 97.2244 130.75C95.5744 131.2 94.3744 133.15 94.8244 134.5C93.7744 134.8 92.8744 136.6 93.4744 137.35C94.5244 138.55 93.9244 139.45 93.0244 140.35C92.2744 141.1 91.2244 141.7 90.7744 142.6C89.5744 145 88.5244 147.55 87.4744 150.1C86.5744 152.5 85.3744 154.75 83.5744 156.7C82.9744 157.3 82.0744 157.75 81.7744 158.5C81.0244 160.6 79.8244 162.4 78.0244 163.75C76.5244 164.8 74.8744 165.85 73.2244 166.75C72.7744 167.05 71.5744 166.75 71.1244 166.3C70.0744 165.1 69.1744 163.75 68.5744 162.4C67.0744 158.95 65.8744 155.35 64.3744 151.9C62.2744 146.8 61.0744 141.55 60.7744 136C60.6244 134.5 60.0244 133 59.5744 131.05C59.5744 130.9 59.8744 130.3 59.8744 129.85C59.7244 127.75 59.2744 125.65 59.1244 123.55C58.9744 120.7 59.1244 117.85 59.1244 115C59.1244 114.55 59.1244 114.1 59.1244 113.65C58.9744 112 58.3744 110.2 58.8244 108.7C59.8744 105.55 58.8244 102.55 58.8244 99.4C58.8244 98.05 58.8244 96.7 58.8244 95.35C58.9744 92.65 59.1244 89.95 59.2744 87.25C59.4244 85.6 59.4244 83.95 59.5744 82.3C59.7244 80.95 60.3244 79.6 60.3244 78.25C60.4744 75.7 59.7244 73.3 60.4744 70.75C61.0744 68.5 60.7744 66.1 60.7744 63.7C60.7744 60.4 60.0244 57.1 58.9744 53.95C58.2244 51.55 56.5744 49.6 54.4744 48.4C53.4244 48.7 52.3744 49 51.3244 48.4C50.4244 47.8 49.6744 46.9 48.7744 46.3C48.0244 45.85 47.4244 46.15 47.5744 47.2C47.7244 47.95 47.8744 48.7 48.1744 49.45C49.8244 53.65 49.5244 57.85 48.6244 62.05C48.4744 62.35 48.7744 62.8 48.7744 63.25C48.6244 64.6 49.2244 66.1 48.1744 67.3C48.3244 67.9 48.3244 68.5 48.1744 69.1C47.8744 70.6 47.5744 72.1 47.2744 73.6C47.2744 73.75 47.4244 74.05 47.5744 74.2C48.1744 74.95 48.1744 76.9 47.5744 77.65C46.9744 78.55 46.3744 79.45 45.6244 80.35C46.3744 80.65 46.8244 80.8 47.1244 80.95C46.8244 81.85 46.5244 82.6 46.2244 83.35C45.9244 83.05 45.7744 82.75 45.3244 82.15C45.4744 83.35 45.6244 84.1 45.7744 84.85C45.6244 84.7 45.4744 84.55 45.3244 84.4C44.8744 85 44.4244 85.6 43.9744 86.35C44.5744 86.65 45.0244 86.8 45.4744 87.1C45.0244 88.45 44.5744 89.8 44.1244 91.15C43.9744 91.15 43.8244 91.15 43.6744 91.15C43.6744 90.25 43.6744 89.35 43.6744 88.45C43.5244 88.45 43.3744 88.45 43.2244 88.45C42.7744 90.25 42.3244 92.05 41.8744 93.85C42.3244 94 42.7744 94.15 43.3744 94.45C41.8744 95.2 43.2244 97.6 40.8244 97.6C41.5744 98.35 41.2744 100.45 40.5244 101.35C40.0744 101.8 39.7744 102.4 39.4744 103C39.1744 103.75 38.8744 104.5 38.5744 105.25C38.8744 105.4 39.3244 105.55 39.9244 105.85C37.9744 106.6 36.4744 109.45 36.6244 110.35C35.8744 112 35.2744 113.05 34.9744 114.25C34.6744 115.3 34.8244 116.5 34.5244 117.55C34.0744 119.05 33.3244 120.4 32.7244 121.75C31.5244 124.6 30.3244 127.45 29.1244 130.3C28.9744 130.6 28.8244 130.9 28.6744 131.2C28.2244 132.7 27.9244 134.2 27.3244 135.55C26.2744 138.1 25.0744 140.65 23.8744 143.2C22.5244 146.35 21.3244 149.5 19.8244 152.5C18.7744 154.45 17.2744 156.1 15.9244 157.9C15.3244 158.65 14.8744 159.4 14.4244 160.15C14.2744 160.15 14.1244 160.15 13.9744 160.15C13.5244 158.8 12.9244 157.6 12.6244 156.25C11.8744 152.8 10.9744 149.35 10.5244 145.9C10.2244 142.9 10.3744 139.75 10.5244 136.75C10.6744 133.6 10.8244 130.45 11.1244 127.45C11.4244 125.2 12.0244 122.95 12.4744 120.7C12.4744 120.4 12.4744 120.1 12.4744 119.8C12.4744 118 12.4744 116.2 12.6244 114.4C12.7744 112.15 12.7744 109.9 13.0744 107.65C13.6744 103.6 14.4244 99.55 15.1744 95.5C15.3244 94.75 15.1744 94 15.3244 93.25C16.0744 89.5 16.9744 85.9 17.5744 82.15C17.7244 81.1 17.8744 80.65 18.7744 80.2C20.5744 79.3 20.8744 77.5 19.5244 76C19.2244 76.9 18.9244 77.8 18.6244 78.7C18.4744 78.7 18.3244 78.7 18.1744 78.7C18.4744 76.9 18.7744 75.1 19.2244 73.15C19.3744 74.05 19.5244 74.8 19.6744 75.55C20.4244 75.4 21.1744 75.25 21.9244 75.1C21.9244 74.95 21.9244 74.8 21.9244 74.65C20.1244 74.65 19.8244 74.05 20.7244 72.7C20.8744 72.55 21.0244 72.25 21.0244 71.95C21.0244 70.45 21.7744 69.85 23.2744 70.15C23.4244 68.5 23.5744 67 23.5744 65.35C23.5744 63.7 23.1244 62.05 23.4244 60.55C23.7244 58.75 23.2744 56.95 22.9744 55.15C22.5244 52.15 21.9244 49.3 21.3244 46.45C21.1744 45.7 20.8744 44.8 20.2744 44.2C19.3744 43.3 18.1744 42.85 17.4244 41.95C15.9244 40.15 13.8244 40.45 11.8744 39.7C12.0244 41.95 12.4744 44.05 12.3244 46C11.7244 52.15 10.9744 58.3 10.3744 64.45C10.2244 66.1 9.47441 67.6 9.47441 69.4C9.47441 71.2 8.87441 73 8.57441 74.8C8.57441 75.1 8.72441 75.4 8.87441 75.55C8.87441 75.55 9.32441 75.4 9.47441 75.25C9.77441 74.8 10.0744 74.35 10.3744 73.9C10.5244 73.9 10.6744 73.9 10.8244 73.9C10.8244 74.65 10.8244 75.4 10.8244 76.45C10.3744 76.3 10.0744 76.15 9.77441 76C8.87441 75.55 8.42441 76 8.27441 76.9C8.12441 78.4 8.12441 79.9 7.82441 81.4C6.92441 86.65 6.02441 91.9 5.12441 97.15C4.67441 99.85 4.37441 102.7 3.92441 105.4C3.77441 106.45 3.47441 107.5 3.32441 108.55C2.87441 112.75 2.42441 116.95 1.97441 121.15C1.67441 124.75 1.22441 128.35 1.07441 131.95C0.924414 135.1 1.22441 138.25 1.22441 141.4C1.22441 145.45 1.67441 149.5 3.32441 153.25C4.37441 155.5 5.42441 157.75 6.47441 160C8.57441 164.35 12.9244 166 16.5244 168.4C16.8244 168.55 17.2744 168.7 17.5744 168.55C19.6744 167.35 22.2244 166.9 23.4244 164.35C25.0744 160.6 26.8744 156.85 28.5244 153.1C28.6744 152.8 28.8244 152.5 28.8244 152.2C28.9744 151 28.8244 149.65 29.2744 148.6C30.4744 145.75 31.8244 143.05 33.1744 140.2C33.0244 140.2 32.8744 140.2 32.7244 140.2C32.5744 139.6 32.4244 139 32.2744 138.4C33.9244 138.4 33.9244 137.05 34.3744 136C35.7244 133.45 35.5744 130.6 35.7244 127.75C35.7244 127.6 35.4244 127.45 35.2744 127.15C34.9744 127.45 34.6744 127.6 34.5244 127.9C33.9244 129.7 33.4744 131.5 32.8744 133.3C32.7244 133.75 32.5744 134.2 32.4244 134.5C31.8244 136 31.2244 137.5 30.6244 139C30.4744 139.3 30.3244 139.6 30.1744 139.9C29.8744 139.6 29.5744 139.3 29.2744 139C30.0244 137.95 30.6244 137.05 31.0744 136.45C30.9244 135.7 30.4744 135.1 30.6244 134.65C31.3744 132.25 32.2744 129.85 33.1744 127.45C34.2244 124.6 35.4244 121.75 36.4744 118.9C37.6744 115.6 38.7244 112.3 39.7744 109C40.8244 105.85 41.8744 102.7 42.9244 99.55C43.5244 97.9 44.2744 96.4 44.8744 95.05C45.9244 95.05 46.5244 95.05 47.1244 95.05C46.6744 94.6 46.0744 94.6 45.7744 94.3C45.3244 94 44.8744 93.4 44.8744 92.95C45.0244 91.75 45.4744 90.7 45.9244 89.65C46.3744 88.3 46.8244 87.1 47.2744 85.9C47.4244 85.45 47.5744 85 47.7244 84.55C47.7244 85.15 47.7244 85.75 47.8744 86.35C47.8744 86.65 48.3244 87.25 48.4744 87.25C49.6744 87.1 49.6744 87.85 49.6744 88.6C49.6744 93.55 49.6744 98.5 49.6744 103.45C49.6744 104.8 49.9744 106.15 49.9744 107.35C49.9744 109.15 49.6744 110.95 49.6744 112.75C49.6744 114.85 49.8244 116.95 49.9744 119.05C50.1244 121 50.8744 122.8 50.4244 124.9C50.1244 125.8 50.8744 127 51.1744 128.05C51.3244 128.05 51.4744 128.05 51.6244 128.05C51.4744 125.05 51.3244 122.05 51.1744 119.05C51.0244 115.75 50.7244 112.45 50.7244 109.15C50.7244 103.75 50.8744 98.35 50.8744 92.95C50.8744 91.45 50.5744 89.95 50.7244 88.45C50.8744 86.8 51.1744 85.15 51.3244 83.8C51.6244 83.8 52.3744 83.8 52.3744 83.65C52.6744 82.45 52.8244 81.25 52.9744 80.05C52.9744 79.6 52.9744 79 53.2744 78.85C53.8744 78.55 54.6244 78.55 55.3744 78.4C54.6244 79.9 54.0244 80.95 53.2744 82.3C54.0244 82 54.3244 81.85 55.2244 81.4C54.9244 82.45 54.9244 83.2 54.6244 83.8C53.7244 85.3 53.8744 87.85 55.3744 89.2C54.4744 89.5 53.7244 89.8 52.8244 90.25C54.1744 90.55 54.0244 91.15 53.2744 91.6C53.5744 92.2 54.1744 92.8 54.0244 93.25C53.5744 95.8 54.6244 98.5 53.2744 100.9C53.1244 101.05 53.2744 101.35 53.4244 101.5C54.3244 102.85 54.0244 103.9 52.5244 104.65C54.6244 105.85 51.4744 106.3 52.5244 107.05C53.1244 107.35 53.7244 107.65 53.7244 108.1C53.8744 109.3 53.8744 110.65 53.8744 112C53.8744 112.45 53.7244 112.9 53.5744 113.35C53.2744 113.95 52.9744 114.4 52.5244 115.15C52.3744 115.15 51.9244 115.15 51.3244 115C52.2244 116.8 52.5244 116.95 54.1744 116.35C54.0244 117.25 53.8744 118 53.7244 118.75C53.5744 118.75 53.4244 118.75 53.2744 118.75C53.1244 118.3 52.9744 117.85 52.8244 117.4C52.5244 118.6 52.3744 119.95 52.6744 121.15C52.9744 122.65 53.4244 124 51.6244 125.2C52.3744 125.35 52.8244 125.5 52.8244 125.35C53.2744 124.75 53.5744 124.15 53.8744 123.55C54.0244 123.55 54.1744 123.55 54.3244 123.55C54.1744 124.15 54.0244 124.75 53.8744 125.35C53.5744 126.4 52.2244 127.45 54.0244 128.35C54.0244 128.35 53.7244 129.4 53.4244 129.4C52.6744 129.55 51.7744 129.4 50.8744 129.4C51.1744 131.8 51.4744 134.2 51.9244 136.6C52.0744 137.05 52.6744 137.5 52.9744 137.95C52.6744 135.55 52.3744 133.15 52.0744 130.75C52.2244 130.6 52.3744 130.45 52.5244 130.3C52.8244 130.75 53.2744 131.05 53.4244 131.5C53.8744 132.7 54.1744 134.05 54.3244 135.4C54.4744 136.45 54.3244 137.5 54.4744 138.55C54.9244 141.25 55.5244 143.95 56.1244 147.1C55.6744 146.8 55.2244 146.65 55.2244 146.35C54.7744 144.7 54.4744 142.9 54.0244 141.25C53.7244 140.2 53.2744 139.15 52.8244 138.1C52.8244 138.25 52.6744 138.4 52.6744 138.55C53.1244 142.6 54.1744 146.5 55.6744 150.25C57.7744 155.65 60.4744 160.75 64.6744 164.8C66.3244 166.45 68.1244 168.1 70.0744 169.6C71.8744 170.95 73.9744 171.85 76.3744 172.3C79.0744 172.75 81.3244 171.85 83.7244 171.1C86.7244 170.2 88.9744 168.55 89.4244 165.1C89.4244 164.5 89.7244 164.05 90.0244 163.6C90.9244 161.95 92.1244 160.45 92.8744 158.8C94.0744 156.25 94.9744 153.55 96.0244 151C97.5244 147.4 99.1744 143.8 100.524 140.2C101.574 137.2 102.324 134.05 103.224 131.05C103.674 129.7 103.974 128.35 104.274 127C105.024 124 105.774 121 106.524 118C107.274 115.45 108.024 112.9 108.624 110.35C109.224 108.1 109.824 105.85 110.274 103.6C110.274 103.45 110.124 103.3 110.124 103.15C110.124 102.55 110.124 101.95 110.124 101.5C109.824 100.6 109.524 99.85 109.074 98.65C109.974 98.95 110.424 99.1 110.724 99.25C111.174 97.15 111.774 95.2 112.074 93.1C112.524 90.85 112.674 88.6 112.974 86.35C113.124 86.2 113.874 85.75 113.874 85.45C113.724 84.7 113.274 84.1 113.124 83.8C113.274 82.75 113.124 81.7 113.574 80.95C114.174 80.05 114.624 79.3 113.424 78.55C115.224 77.5 115.374 76.15 113.874 74.35C115.674 74.35 115.824 73 115.674 72.1C115.224 69.4 115.674 66.85 116.124 64.3C116.274 63.4 115.974 62.35 116.124 61.45C116.274 60.4 117.024 59.35 117.024 58.3C116.874 54.85 117.474 51.55 118.074 48.25C118.374 46.75 118.074 45.25 118.074 43.3C118.224 42.7 118.674 41.5 118.674 40.3L118.824 40.45ZM111.624 28.9C111.774 26.95 111.924 25.3 112.074 23.65C112.224 23.65 112.374 23.65 112.524 23.65C112.674 25.15 112.824 26.65 112.824 28.15C112.824 28.45 112.074 28.75 111.474 29.2L111.624 28.9ZM9.92441 70.45C10.0744 69.55 10.5244 68.8 10.8244 68.05C10.9744 68.05 11.1244 68.05 11.2744 68.05C11.1244 69.7 10.9744 71.35 10.8244 73C10.6744 73 10.5244 73 10.3744 73C10.3744 72.1 10.2244 71.2 10.3744 70.3L9.92441 70.45ZM7.67441 95.2C7.37441 97.45 6.77441 99.7 6.47441 101.95C6.17441 103.9 6.02441 105.85 5.87441 107.8C5.72441 109.3 5.57441 110.8 5.42441 112.3C5.12441 114.7 4.67441 117.1 4.37441 119.5C4.07441 122.35 3.62441 125.2 3.77441 128.05C3.92441 130.3 3.17441 132.4 3.62441 134.8C4.07441 137.2 3.47441 139.75 3.47441 142.3C3.47441 143.95 3.77441 145.6 3.92441 147.25C4.22441 149.2 4.52441 151.15 4.82441 153.1C4.82441 153.4 4.52441 153.7 4.37441 154C4.22441 154 4.07441 154 3.92441 154C3.47441 151.9 2.87441 149.8 2.72441 147.7C2.42441 143.5 2.12441 139.3 2.12441 135.1C2.12441 131.35 2.57441 127.6 2.87441 123.85C2.87441 123.7 2.87441 123.55 2.87441 123.4C3.17441 119.8 3.47441 116.2 3.92441 112.6C4.37441 109.15 4.82441 105.7 5.42441 102.25C5.72441 100.15 6.32441 98.05 6.62441 95.95C7.07441 93.4 7.22441 90.85 7.67441 88.3C8.12441 85.45 8.72441 82.6 9.62441 79.6C9.77441 79.9 10.2244 80.35 10.2244 80.65C9.62441 83.95 9.02441 87.25 8.42441 90.55C8.12441 92.65 7.97441 94.75 7.67441 96.85V95.2ZM48.6244 85.75C48.6244 85.9 48.0244 86.05 47.5744 86.2C47.7244 84.4 47.8744 82.6 48.0244 80.8C48.1744 80.8 48.3244 80.8 48.4744 80.8C48.4744 82.3 48.4744 83.8 48.3244 85.3L48.6244 85.75ZM48.4744 77.2C48.9244 75.55 49.2244 74.35 49.6744 72.85C50.4244 73.9 49.9744 75.7 48.4744 77.2ZM54.3244 77.95C52.8244 77.65 52.8244 76.75 54.4744 74.5C54.4744 75.85 54.4744 76.9 54.4744 77.95H54.3244ZM56.1244 149.05C56.5744 150.85 57.4744 152.35 57.6244 154.15C55.6744 150.85 55.3744 149.95 56.1244 149.05ZM91.3744 149.35C91.0744 149.35 90.9244 148.45 90.6244 147.7C91.8244 148 92.5744 148.15 93.4744 148.3C93.1744 149.5 92.2744 149.65 91.3744 149.5V149.35ZM102.624 98.8C103.074 98.2 102.924 97.3 103.224 96.85C103.674 96.4 104.574 96.4 105.324 96.25C105.024 95.95 104.874 95.95 104.574 95.95C104.424 95.95 104.274 95.95 103.974 95.95C104.274 95.35 104.724 94.6 104.574 94.45C103.674 93.7 104.574 93.4 105.024 92.95C105.474 92.35 105.924 91.75 106.224 91.15C106.974 89.95 106.824 89.2 105.774 88.6C105.624 89.2 105.474 89.65 105.324 90.25C104.274 89.05 105.174 86.35 106.974 85.45C106.824 85.3 106.674 85.15 106.524 85C106.224 84.7 105.924 84.4 105.624 84.1C105.924 83.95 106.374 83.95 106.524 83.65C106.824 83.35 107.124 82.75 106.974 82.45C106.674 82 106.074 81.7 105.624 81.25C105.174 81.85 104.574 82.45 104.424 83.2C103.974 84.85 103.524 86.5 103.374 88.15C103.224 89.05 101.574 90.4 103.674 91C103.224 93.85 100.974 96.25 102.024 99.25L102.624 98.8ZM97.8244 117.55C97.5244 118.45 97.3744 119.5 97.2244 120.55C97.0744 121.3 96.9244 122.05 96.7744 122.8C96.6244 123.7 96.6244 124.6 96.4744 125.5C96.3244 125.5 96.1744 125.5 96.0244 125.5C96.3244 126.1 96.6244 126.7 96.9244 127.3C97.0744 127.15 97.2244 127.15 97.2244 127C97.9744 124.45 98.7244 121.9 99.4744 119.35C99.6244 118.75 99.7744 118.15 99.6244 117.55C99.6244 117.25 99.1744 116.65 99.0244 116.65C98.5744 116.65 97.9744 116.95 97.8244 117.25V117.55ZM34.9744 129.1C38.4244 125.5 38.4244 125.5 36.6244 123.1C35.2744 123.55 34.0744 127.75 34.9744 128.95V129.1ZM45.3244 99.1C45.4744 98.95 45.4744 98.5 45.3244 98.35C45.1744 98.2 44.7244 98.2 44.7244 98.35C44.2744 98.95 43.3744 99.7 43.3744 100.3C43.5244 102.1 42.7744 103.3 41.7244 104.5C41.4244 104.8 41.4244 105.25 41.4244 105.7L42.0244 106C42.3244 105.7 42.4744 105.4 42.6244 105.1C42.6244 104.95 42.6244 104.65 42.6244 104.65C44.5744 104.8 43.3744 103.45 43.5244 102.4C44.1244 102.4 44.7244 102.4 45.3244 102.4C45.4744 101.95 45.7744 101.35 46.0744 100.9C45.3244 100.9 44.8744 100.9 44.4244 100.9C44.7244 100.15 45.1744 99.85 45.4744 99.55L45.3244 99.1ZM101.124 100C101.574 101.8 102.024 103.6 102.474 105.4C102.774 105.4 103.074 105.4 103.374 105.4C103.374 104.8 103.524 104.05 103.224 103.6C102.474 102.55 102.924 101.95 103.674 101.2C104.274 100.6 104.424 99.7 104.724 98.95C104.574 98.95 104.424 98.95 104.274 98.95C103.674 99.7 103.074 100.45 102.474 101.2C102.174 100.9 101.874 100.6 101.574 100.3C101.424 100.3 101.274 100.3 101.124 100.3V100ZM98.8744 115.3C98.8744 115.6 99.3244 116.05 99.6244 116.2C99.7744 116.2 100.224 115.9 100.374 115.6C100.674 114.7 100.974 113.8 101.124 112.9C101.274 112.45 101.124 112 101.124 111.7C100.524 112.45 99.9244 113.05 99.4744 113.8C99.1744 114.25 98.8744 114.7 98.8744 115.15V115.3ZM100.974 108.25C100.974 106.9 100.974 105.55 100.974 103.9C99.0244 104.95 100.674 106.75 99.6244 107.65C100.224 107.95 100.674 108.25 100.824 108.4L100.974 108.25ZM107.874 76.75C106.524 76.45 105.474 77.05 105.024 78.55C105.474 78.7 105.924 78.85 106.224 79C106.974 78.1 107.424 77.5 108.024 76.75H107.874ZM45.6244 93.7C46.2244 93.7 46.8244 93.85 46.8244 93.7C47.2744 92.8 47.5744 91.9 47.8744 91C47.5744 90.85 47.2744 90.7 46.9744 90.55C46.5244 91.45 46.0744 92.35 45.4744 93.55L45.6244 93.7ZM105.924 101.65C105.624 102.25 105.324 102.85 104.874 103.6C106.524 103.45 106.524 103.45 105.924 101.65ZM159.619 131.95C159.019 132.4 158.419 133 157.819 133.45C156.619 134.35 155.419 135.25 154.219 136.15C153.169 136.9 151.969 137.5 150.919 138.1C150.769 137.95 150.619 137.8 150.469 137.65C151.669 136.75 152.869 135.85 154.369 134.8C153.769 134.8 153.469 134.65 153.319 134.8C151.819 135.7 150.319 136.6 148.819 137.5C146.269 139.15 143.719 140.8 141.169 142.6C139.969 143.5 138.919 144.55 137.569 145.3C136.669 145.75 135.019 145.15 135.169 147.1C135.169 147.1 134.869 147.25 134.719 147.4C133.219 148.15 131.719 148.75 130.369 149.5C127.369 151.3 124.219 152.8 120.769 153.1C119.569 153.25 118.069 153.7 117.319 152.05C115.819 148.75 116.419 145.45 117.319 142.15C117.769 140.2 118.219 138.25 118.819 136.3C118.969 135.55 119.269 134.8 119.569 134.05C120.169 134.65 120.919 135.1 121.519 135.7C122.869 137.35 125.569 137.8 127.069 136.45C130.519 133.3 134.119 130.15 137.269 126.7C139.069 124.75 141.469 122.95 141.769 119.8C141.769 119.65 141.919 119.5 142.069 119.35C144.169 118.3 144.169 115.9 144.769 114.25C145.519 112.45 145.069 109.9 144.619 107.8C143.869 104.35 141.019 102.25 138.469 100.15C136.969 98.95 135.169 98.65 133.519 99.55C130.969 100.75 128.419 101.95 126.169 103.6C124.219 104.95 122.419 106.6 120.919 108.55C118.969 110.95 117.319 113.65 115.669 116.35C114.769 117.7 114.169 119.2 113.419 120.7C112.069 123.4 110.569 126.1 109.369 128.8C108.619 130.45 108.469 132.4 107.869 134.2C106.519 138.1 106.969 142.15 108.469 145.75C110.269 150.1 112.219 154.75 116.119 157.9C118.819 160.15 121.669 162.4 125.419 162.25C126.919 162.1 128.569 161.8 130.069 161.35C131.419 160.9 132.769 160.15 133.969 159.4C134.569 159.1 135.019 158.5 135.619 158.05C138.169 156.25 140.719 154.6 143.269 152.8C144.469 151.9 146.119 151 146.419 149.8C146.869 148 148.369 147.55 149.269 146.35C149.719 145.75 150.319 145.3 150.769 144.7C152.419 142.6 153.919 140.5 155.419 138.4C155.719 138.1 156.019 137.8 156.319 137.5C157.369 136.45 158.569 135.55 159.619 134.35C160.519 133.45 161.119 132.25 161.869 131.2C161.719 131.05 161.569 130.9 161.419 130.75C160.819 131.05 160.219 131.35 159.619 131.8V131.95ZM121.819 127.15C122.419 125.8 123.169 124.45 123.919 123.1C124.069 122.8 124.219 122.35 124.519 122.05C125.569 121 126.619 119.95 125.869 118.75C127.069 117.7 128.419 117.1 128.719 116.05C129.769 113.35 132.019 111.85 134.119 110.2C135.469 109.15 136.969 108.25 138.469 107.35C139.369 106.75 139.819 107.05 139.819 108.1C139.669 111.25 138.469 113.95 136.369 116.35C135.469 117.4 134.719 118.75 133.819 119.8C133.219 120.4 132.319 120.7 131.569 121.3C129.769 122.8 127.969 124.45 126.169 125.95C124.669 127.15 123.169 128.35 121.669 129.55C121.519 129.4 121.369 129.25 121.219 129.1C121.519 128.35 121.669 127.6 121.969 126.85L121.819 127.15ZM146.269 139.6C147.019 139.45 147.769 139.3 148.519 139.15C148.519 139.3 148.519 139.45 148.519 139.6C147.919 140.5 147.169 140.35 146.269 139.45V139.6ZM161.119 127.3C162.919 127.15 163.819 126.1 164.119 124.6C163.069 125.5 162.019 126.4 160.969 127.3H161.119ZM195.16 49.75C195.01 49.15 194.71 48.55 194.86 47.95C195.31 45.1 193.36 40.6 190.96 39.1C189.16 38.05 187.36 37.15 185.71 35.95C184.51 35.05 184.06 35.65 183.76 36.55C182.11 40.45 180.61 44.5 178.96 48.4C178.06 50.65 178.21 53.35 176.11 55C175.96 55.15 175.96 55.3 175.96 55.45C175.81 56.35 175.81 57.25 175.66 58.15C175.51 59.2 175.21 60.25 174.61 61.3C173.56 63.1 173.41 65.35 172.81 67.3C171.31 72.1 169.66 76.9 168.16 81.7C166.66 86.8 165.31 92.05 163.81 97.3C162.76 100.9 161.71 104.5 160.66 108.1C159.46 112.45 158.26 116.95 157.06 121.3C156.46 123.4 155.86 125.5 155.26 127.9C155.11 126.85 154.96 126.25 154.81 125.65C154.66 125.65 154.51 125.65 154.36 125.65C154.36 126.4 154.36 127.15 154.51 127.9C154.66 128.5 155.11 129.1 155.11 129.7C155.11 130.6 154.81 131.35 154.66 132.25C154.21 134.5 153.76 136.75 153.31 139C153.31 139.15 153.16 139.15 153.01 139.3C152.86 139 152.71 138.7 152.26 137.95C152.11 139.15 151.81 139.9 152.11 140.35C152.71 141.25 153.31 142 151.66 142.45C151.51 142.45 151.36 142.75 151.36 142.9C151.36 145.45 151.06 148 151.51 150.55C152.41 155.35 155.11 159.1 158.71 162.55C161.41 165.1 164.11 165.4 167.41 164.2C167.86 164.05 168.31 163.75 168.61 163.45C170.26 161.5 171.76 159.4 173.41 157.45C174.16 156.55 174.46 155.95 173.56 155.2C176.41 151.3 179.26 147.55 182.11 143.8C181.96 143.65 181.81 143.5 181.66 143.35C181.21 143.65 180.76 143.95 180.31 144.4C178.51 146.05 177.31 148.6 174.31 148.15C174.76 147.25 175.21 146.35 175.66 145.45C175.36 145.6 174.91 145.75 174.61 146.05C172.36 148.6 170.26 151.3 167.86 153.7C166.21 155.35 164.11 156.7 162.16 158.05C161.11 158.8 160.21 158.5 160.06 157.15C159.76 155.35 159.16 153.4 159.31 151.6C159.46 149.5 157.96 147.7 158.71 145.45C158.86 144.85 158.41 143.65 159.01 142.9C159.91 141.7 159.91 140.65 158.56 139.75C159.01 139.15 160.21 139 159.31 137.95C161.11 136.75 159.91 134.95 160.21 133.45C160.36 132.85 160.81 132.25 160.66 131.65C160.51 130.45 160.96 130.15 161.86 129.85C162.61 129.7 163.36 129.4 163.96 128.95C165.31 128.05 165.61 126.55 166.21 125.2C167.86 121.3 169.81 117.55 171.61 113.8C173.26 110.65 174.91 107.5 176.56 104.35C176.86 103.75 177.01 103 177.31 102.4C179.11 99.25 181.06 96.1 182.86 92.8C183.46 91.6 183.76 90.25 184.21 89.05C184.81 87.4 185.71 85.75 186.01 84.1C186.46 82 188.11 80.65 188.26 78.4C188.26 76.9 189.31 75.4 189.91 73.9C190.21 73.15 190.36 72.4 190.66 71.65C190.96 70.75 191.26 69.85 191.56 68.95C191.86 67.75 191.26 66.1 193.21 65.8C193.36 65.8 193.51 65.5 193.51 65.35C193.51 64.3 193.51 63.25 193.51 62.05C194.56 61.9 194.71 60.7 194.86 59.8C195.16 57.25 195.31 54.7 195.46 52.15C195.46 51.85 195.16 51.55 195.01 51.25L195.16 49.75ZM157.06 136C156.76 136 156.46 136 156.16 136C156.31 134.8 156.46 133.6 156.61 132.4C156.76 132.4 156.91 132.4 157.06 132.4C156.91 133.6 156.76 134.8 156.61 136H157.06ZM159.01 123.55C158.86 123.4 158.71 123.25 158.56 123.1C159.16 121.9 159.76 120.7 160.36 119.5C160.51 119.5 160.66 119.5 160.81 119.5C160.36 120.85 159.91 122.2 159.46 123.55H159.01ZM161.26 117.1C161.11 117.1 160.96 117.1 160.81 117.1C160.96 115.9 161.11 114.7 161.26 113.5C161.56 113.5 161.86 113.5 162.16 113.5C161.86 114.7 161.56 115.9 161.26 117.1ZM168.16 91.3C168.46 92.05 168.61 92.65 168.76 93.1C168.31 93.85 167.86 94.6 167.41 95.35C167.26 95.35 167.11 95.35 166.96 95.35C167.26 94.15 167.56 92.95 168.01 91.45L168.16 91.3ZM170.86 104.95C172.06 102.85 173.26 100.75 174.46 98.65C174.31 99.4 174.31 100.3 174.01 100.9C173.26 102.4 172.21 103.75 171.01 104.95H170.86ZM190.66 62.95C190.96 64.45 189.16 65.65 190.21 67.3C190.36 67.45 189.91 68.05 189.76 68.5C189.16 70 188.41 71.35 187.81 72.85C187.66 73.3 187.96 74.05 188.11 74.65C187.21 74.95 186.76 75.1 186.91 76.6C187.06 78.1 186.01 79.75 185.41 81.25C185.41 81.4 184.66 81.25 184.06 81.25C184.96 82.6 184.36 83.65 183.76 84.7C183.61 84.85 183.46 85.15 183.31 85.15C180.61 85.75 180.76 88.45 179.71 90.25C179.41 90.7 179.71 91.6 179.71 92.35C179.71 92.65 179.56 92.95 179.41 93.4C178.36 92.65 178.06 93.1 177.46 94C176.56 95.65 175.21 97 174.01 98.5C172.21 99.1 171.91 100.9 171.01 102.25C169.36 104.8 167.86 107.5 166.36 110.2C166.21 110.35 166.06 110.5 166.06 110.5C165.76 109.6 165.16 108.7 165.31 107.95C165.46 107.05 166.21 106.3 166.81 105.25C166.81 105.25 166.66 104.8 166.36 104.2C166.81 104.05 167.26 103.9 167.71 103.75C167.86 103.6 168.01 103.45 168.16 103.3C167.71 103.15 167.26 103 166.81 102.85C167.86 101.8 168.76 100.9 169.66 100C169.81 99.85 169.96 99.7 169.96 99.55C169.51 95.95 171.16 92.95 172.21 89.8C172.36 89.5 172.06 89.05 172.21 88.9C172.51 87.7 172.81 86.5 173.26 85.3C173.41 84.7 173.56 83.95 174.01 83.65C175.21 82.75 175.81 82 175.06 80.5C174.91 80.05 175.81 79.15 176.41 78.55C176.41 78.1 176.41 77.5 176.56 77.05C177.61 74.65 178.81 72.25 179.86 69.85C180.91 67.45 181.81 64.9 182.71 62.5C183.76 59.8 184.81 57.1 185.71 54.4C186.01 53.35 186.01 52.15 186.46 51.1C187.06 49.45 187.96 47.95 188.86 46C190.81 52.3 189.31 58.15 188.41 64C188.71 64 189.01 64 189.31 64C189.61 62.5 189.91 61 190.21 59.5C190.36 59.5 190.51 59.5 190.66 59.5C190.66 60.4 190.51 61.3 190.66 62.2V62.95ZM180.16 141.25C180.01 141.1 179.86 140.95 179.71 140.8C178.51 142.6 177.31 144.4 176.11 146.2C178.06 145 179.26 143.2 180.46 141.4L180.16 141.25ZM158.26 114.85C158.56 113.65 158.86 112.45 159.16 111.25C159.01 111.25 158.86 111.25 158.71 111.25C158.41 112.3 158.11 113.35 157.81 114.4C157.81 114.55 157.96 114.7 157.96 114.85C158.11 114.85 158.26 114.85 158.41 114.85H158.26ZM157.06 120.85C157.21 119.8 157.36 118.75 157.51 117.7C156.01 119.2 155.86 120.1 156.76 120.7L157.06 120.85ZM163.66 95.35C163.51 95.35 163.36 95.35 163.21 95.35C162.91 96.4 162.61 97.45 162.31 98.5C162.46 98.5 162.61 98.5 162.76 98.5C163.21 97.45 163.66 96.4 164.11 95.35H163.66ZM183.91 79.3C184.06 79.3 184.21 79.3 184.36 79.3C185.11 77.65 185.86 76 186.61 74.35C186.46 74.35 186.31 74.35 186.16 74.35C185.56 76 184.96 77.65 184.36 79.3H183.91ZM226.684 131.8C225.334 132.4 224.284 133.3 223.234 134.2C222.934 134.35 222.484 134.65 222.484 134.65C221.284 133.75 220.384 134.8 219.484 135.25C218.284 135.7 217.084 136 216.034 136.6C213.634 137.95 211.384 139.6 208.984 140.95C206.734 142.15 204.334 143.05 202.084 144.25C198.784 145.9 195.634 147.85 192.034 149.05C189.334 149.95 186.634 150.7 183.934 151.45C182.884 151.75 182.134 151 182.284 149.95C182.584 146.95 183.784 144.25 185.134 141.7C185.734 140.5 186.634 139.45 186.934 138.25C187.834 134.8 190.084 132.25 192.034 129.4C193.084 127.9 194.284 126.7 195.034 125.2C196.234 122.95 197.134 120.7 199.084 119.05C199.984 118.3 200.734 117.4 201.484 116.5C201.784 117.85 201.634 119.05 201.634 120.25C201.484 122.2 201.784 124 203.284 125.35C203.884 125.8 204.484 126.25 204.934 125.2C205.684 123.4 206.284 121.45 207.034 119.35C208.234 119.65 208.984 119.5 208.684 117.85C208.534 117.55 208.834 117.1 208.984 116.65C209.434 114.55 209.734 112.45 207.934 110.65C205.984 108.7 204.184 106.6 202.234 104.65C199.984 102.55 197.584 102.55 195.934 104.65C193.234 107.8 190.684 111.1 188.284 114.55C186.784 116.65 185.734 119.05 184.384 121.3C182.734 124.15 180.784 126.85 179.284 129.85C177.784 132.85 176.884 136.15 175.684 139.3C174.034 143.65 175.234 147.55 177.784 151.15C179.584 153.7 181.534 156.4 184.534 157.9C185.734 158.5 186.934 159.25 188.134 159.25C190.084 159.25 192.034 158.95 193.834 158.35C196.084 157.6 198.184 156.4 200.284 155.35C201.334 154.9 202.384 154.45 203.284 153.85C203.884 153.55 204.184 152.8 204.784 152.5C206.434 151.3 208.084 150.25 209.734 149.2C210.034 149.05 210.484 149.05 210.934 148.9C210.934 148.45 210.934 147.85 211.084 147.1C211.534 147.7 211.684 148.15 211.984 148.45C211.984 148.45 212.584 148.15 212.584 148C212.734 146.65 213.934 146.5 214.834 146.05C215.284 145.75 216.034 145.3 216.034 145C216.034 143.5 217.384 143.2 218.134 142.3C218.884 141.25 219.334 140.05 219.784 139.15C220.534 139 221.134 138.85 221.734 138.7V138.25C221.284 138.25 220.834 138.25 220.084 138.25C221.734 135.7 223.684 133.75 225.934 131.95L226.684 131.8ZM263.109 126.25C261.309 128.05 258.759 126.55 256.959 128.2C256.509 128.2 255.909 128.05 255.459 128.2C254.109 128.65 252.759 129.25 251.409 129.85C250.959 130 250.509 130.15 250.209 130.3C251.109 125.65 252.009 121.15 252.759 116.65C253.059 114.55 252.459 112.3 253.659 110.2C253.809 110.05 253.659 109.75 253.509 109.6C252.459 107.5 251.709 105.1 250.209 103.45C247.959 100.9 245.259 98.8 242.559 96.7C241.359 95.8 239.709 95.35 238.209 94.75C236.109 97.9 234.159 100.6 232.509 103.45C230.409 106.9 228.459 110.35 226.509 113.8C222.759 120.55 221.259 128.2 218.709 135.4C217.659 138.25 216.909 141.25 215.709 144.1C214.509 146.95 214.059 149.95 214.359 153.1C214.509 154.6 214.809 156.25 215.709 157.3C217.809 159.7 220.059 162.1 222.609 164.05C225.609 166.45 227.859 166 230.559 163.3C231.609 162.1 232.659 160.9 233.559 159.55C235.959 155.95 238.659 152.5 241.209 148.9C241.959 147.85 243.159 146.95 242.709 145.3C242.709 145.15 243.159 144.7 243.459 144.4C243.609 144.25 243.909 144.1 243.909 143.95C243.909 141.85 245.409 140.65 246.909 139.6C249.759 137.5 253.209 136.15 255.759 133.45C255.909 133.3 256.059 133.15 256.209 133.15C257.559 133.6 258.159 132.7 259.059 131.95C260.709 130.3 262.509 128.8 264.309 127.3C264.159 127 264.009 126.7 263.859 126.4L263.109 126.25ZM235.959 102.55C236.109 102.55 236.259 102.55 236.409 102.55C233.409 107.95 230.409 113.35 227.409 118.75C227.259 118.6 227.109 118.45 226.959 118.3C229.809 112.75 232.359 107.05 236.109 102.1L235.959 102.55ZM222.009 157.3C221.409 149.95 224.859 143.95 226.509 137.5C229.359 139.15 232.059 140.65 234.909 142.3C231.009 147.4 227.559 153.1 222.159 157.6L222.009 157.3ZM243.909 125.65C243.009 127.75 242.409 130 241.359 131.95C240.909 132.7 239.859 133.45 238.959 133.75C236.559 134.35 234.159 134.65 231.759 135.1C230.559 135.25 229.959 134.8 230.109 133.6C230.259 132.4 230.259 131.05 230.709 129.85C232.059 126.25 234.009 122.8 234.759 119.05C235.209 116.95 236.709 115.45 236.859 113.35C237.009 112.6 237.909 111.85 238.359 111.1C239.859 108.85 241.209 106.6 242.709 104.35C243.309 103.45 244.209 102.7 245.259 101.65C247.509 106.45 247.059 111.1 246.909 116.05C247.209 115.75 247.359 115.6 247.359 115.45C247.359 115.3 247.359 115.15 247.359 115C247.509 115 247.659 115 247.809 115C247.809 115.9 247.959 116.8 247.809 117.7C247.659 118.75 247.509 119.8 247.059 120.55C246.609 121.3 245.709 121.75 244.959 122.35C245.109 122.5 245.259 122.65 245.409 122.8C245.709 122.8 246.009 122.8 246.459 122.8C246.309 123.25 246.159 123.7 246.009 123.7C244.359 123.7 244.359 125.2 243.909 126.1V125.65ZM250.209 122.65C249.009 123.55 249.909 124.75 249.609 125.8C249.009 127.75 248.409 129.7 247.509 131.5C247.209 132.1 246.009 132.25 245.259 132.55C245.109 132.4 244.959 132.25 244.809 132.1C245.559 130.15 246.459 128.2 247.209 126.1C247.509 125.35 247.509 124.6 247.809 123.85C248.109 123.25 248.559 122.65 248.859 122.05C249.009 121.75 249.159 121.45 249.159 121.15C249.009 120.55 248.709 119.95 248.709 119.35C249.009 115.6 249.309 111.85 249.609 107.95C250.809 110.05 251.259 112 249.459 114.25C250.359 114.1 250.659 114.1 251.259 114.1C250.809 116.95 250.359 119.65 249.909 122.35C249.909 122.5 249.909 122.8 249.759 122.8L250.209 122.65ZM246.459 117.7C246.159 117.7 245.859 117.7 245.559 117.7C245.259 118.75 244.959 119.8 244.659 120.85C244.809 120.85 244.959 120.85 245.109 120.85C245.409 119.8 245.709 118.75 246.009 117.7H246.459ZM343.077 120.4C341.877 120.4 340.827 120.4 340.377 121C338.577 123.25 336.927 125.65 335.277 128.05C334.527 129.1 333.927 130.3 333.027 131.35C332.427 131.95 331.977 132.85 330.627 132.7C330.027 132.7 329.127 133.6 328.527 134.2C327.327 135.55 326.427 137.05 325.227 138.4C323.727 140.2 322.227 142 320.577 143.65C319.827 144.4 318.927 144.85 318.027 145.45C317.877 144.85 317.727 144.7 317.727 144.55C318.327 138.4 318.927 132.25 319.677 126.1C319.977 123.25 321.777 120.4 319.527 117.7C319.527 117.7 319.527 117.55 319.527 117.4C318.627 115.9 317.877 114.4 316.977 113.05C316.527 112.45 315.777 112 315.027 111.85C314.427 111.7 313.377 111.7 312.927 112.15C310.527 114.7 308.277 117.4 305.877 119.95C304.977 120.85 304.077 121.6 305.277 123.1C303.477 122.95 303.477 124.15 303.327 125.35C302.877 124.75 302.577 124.45 302.277 124C301.227 125.35 300.177 126.55 299.127 127.75C299.427 128.05 299.727 128.35 299.727 128.35C298.977 129.1 297.777 130.15 297.927 130.45C298.827 132.1 297.327 131.95 296.577 132.55C295.227 133.6 293.877 134.8 292.827 136.15C291.927 137.35 291.327 138.7 290.427 139.9C290.277 140.2 289.827 140.35 289.227 140.65C289.977 139.3 290.577 138.25 291.177 137.05C290.427 136.75 289.977 136.6 289.227 136.3C289.977 135.85 290.427 135.55 290.877 135.25C291.327 134.95 291.777 134.8 291.927 134.5C292.977 132.25 292.527 129.25 294.927 127.6C294.927 127.6 294.927 127.45 294.927 127.3C296.277 122.95 297.777 118.6 299.127 114.25C299.877 111.85 300.477 109.45 301.077 107.05C301.977 103.45 302.577 99.7 302.127 95.95C301.977 94.75 302.577 93.1 300.477 92.5C299.727 92.35 299.127 91.6 298.677 91C297.927 90.25 297.477 89.2 296.577 88.75C295.527 88.15 294.177 86.65 292.827 88C291.177 89.65 288.627 90.55 288.027 93.25C287.877 93.85 287.127 94.3 286.827 94.9C286.077 96.1 284.577 96.55 284.277 98.05C284.127 98.8 283.377 99.55 282.927 100.3C282.027 101.5 280.677 102.55 281.127 104.2C279.627 105.4 277.977 106.45 276.927 107.95C275.877 109.45 275.427 111.4 274.677 113.05C274.527 113.05 274.377 113.05 274.227 113.05C273.177 110.2 270.477 108.85 268.377 106.9C267.927 106.45 267.477 106.15 267.027 105.85C266.127 105.4 265.677 105.55 265.377 106.75C264.777 109.3 264.177 112 263.277 114.55C261.927 118.15 260.127 121.6 258.627 125.2C257.577 127.6 256.827 130.15 255.777 132.55C253.677 137.8 251.427 143.05 250.527 148.75C250.077 151.9 250.527 154.9 251.427 157.9C251.727 158.8 252.477 159.85 253.227 160.15C254.727 160.75 257.877 158.65 258.177 157C258.777 154.15 259.227 151.3 260.127 148.6C260.727 146.65 261.627 144.55 262.977 143.2C264.177 142 264.777 140.65 265.677 139.45C267.927 136.6 269.877 133.45 271.827 130.45C272.127 130.15 272.427 129.85 272.427 129.4C272.727 127.3 275.127 126.4 275.277 124.3C275.277 123.55 275.727 122.8 276.177 122.2C278.127 119.5 280.227 116.95 282.177 114.25C284.277 111.4 286.227 108.55 288.327 105.7C289.527 104.05 290.727 102.55 291.927 101.05C292.077 101.05 292.227 101.05 292.377 101.05C292.227 101.95 292.077 102.85 291.927 103.6C291.477 105.55 290.877 107.5 290.427 109.45C289.677 112.15 289.077 114.85 288.177 117.4C287.277 120.25 286.227 123.1 285.027 125.95C283.527 129.55 281.727 133 280.377 136.6C279.327 139.6 278.577 142.75 277.827 145.9C277.527 147.25 277.077 148.6 277.227 149.95C277.827 153.4 279.327 156.55 282.477 158.5C283.527 159.25 285.027 159.85 286.227 159.85C287.427 159.85 288.477 157.6 288.327 156.25C289.077 155.65 289.827 155.2 290.277 154.45C290.577 154.15 290.127 153.4 290.427 152.95C291.027 151.75 291.777 150.7 292.527 149.65C293.577 148.3 294.627 146.95 295.527 145.45C296.877 143.35 297.927 141.1 299.427 139.15C301.977 135.55 304.677 132.1 307.377 128.65C308.127 127.6 309.177 126.85 310.077 125.95C310.077 127.9 309.927 129.7 309.477 131.5C308.427 135.1 308.877 138.85 309.627 142.3C310.677 147.4 313.677 151.45 318.327 154.15C320.877 155.65 321.627 155.5 323.727 153.55C325.977 151.45 327.027 148.6 328.977 146.35C329.727 145.45 330.627 144.55 331.227 143.5C332.577 141.1 333.777 138.55 335.127 136.15C335.577 135.25 336.327 134.5 336.777 133.6C337.377 132.25 337.677 130.75 338.427 129.55C339.027 128.65 339.177 128.05 338.727 127.45C339.927 125.2 341.127 122.95 342.327 120.7L343.077 120.4ZM383.74 131.95C383.14 132.4 382.54 133 381.94 133.45C380.74 134.35 379.54 135.25 378.34 136.15C377.29 136.9 376.09 137.5 375.04 138.1C374.89 137.95 374.74 137.8 374.59 137.65C375.79 136.75 376.99 135.85 378.49 134.8C377.89 134.8 377.59 134.65 377.44 134.8C375.94 135.7 374.44 136.6 372.94 137.5C370.39 139.15 367.84 140.8 365.29 142.6C364.09 143.5 363.04 144.55 361.69 145.3C360.79 145.75 359.14 145.15 359.29 147.1C359.29 147.1 358.99 147.25 358.84 147.4C357.34 148.15 355.84 148.75 354.49 149.5C351.49 151.3 348.34 152.8 344.89 153.1C343.69 153.25 342.19 153.7 341.44 152.05C339.94 148.75 340.54 145.45 341.44 142.15C341.89 140.2 342.34 138.25 342.94 136.3C343.09 135.55 343.39 134.8 343.69 134.05C344.29 134.65 345.04 135.1 345.64 135.7C346.99 137.35 349.69 137.8 351.19 136.45C354.64 133.3 358.24 130.15 361.39 126.7C363.19 124.75 365.59 122.95 365.89 119.8C365.89 119.65 366.04 119.5 366.19 119.35C368.29 118.3 368.29 115.9 368.89 114.25C369.64 112.45 369.19 109.9 368.74 107.8C367.99 104.35 365.14 102.25 362.59 100.15C361.09 98.95 359.29 98.65 357.64 99.55C355.09 100.75 352.54 101.95 350.29 103.6C348.34 104.95 346.54 106.6 345.04 108.55C343.09 110.95 341.44 113.65 339.79 116.35C338.89 117.7 338.29 119.2 337.54 120.7C336.19 123.4 334.69 126.1 333.49 128.8C332.74 130.45 332.59 132.4 331.99 134.2C330.64 138.1 331.09 142.15 332.59 145.75C334.39 150.1 336.34 154.75 340.24 157.9C342.94 160.15 345.79 162.4 349.54 162.25C351.04 162.1 352.69 161.8 354.19 161.35C355.54 160.9 356.89 160.15 358.09 159.4C358.69 159.1 359.14 158.5 359.74 158.05C362.29 156.25 364.84 154.6 367.39 152.8C368.59 151.9 370.24 151 370.54 149.8C370.99 148 372.49 147.55 373.39 146.35C373.84 145.75 374.44 145.3 374.89 144.7C376.54 142.6 378.04 140.5 379.54 138.4C379.84 138.1 380.14 137.8 380.44 137.5C381.49 136.45 382.69 135.55 383.74 134.35C384.64 133.45 385.24 132.25 385.99 131.2C385.84 131.05 385.69 130.9 385.54 130.75C384.94 131.05 384.34 131.35 383.74 131.8V131.95ZM345.94 127.15C346.54 125.8 347.29 124.45 348.04 123.1C348.19 122.8 348.34 122.35 348.64 122.05C349.69 121 350.74 119.95 349.99 118.75C351.19 117.7 352.54 117.1 352.84 116.05C353.89 113.35 356.14 111.85 358.24 110.2C359.59 109.15 361.09 108.25 362.59 107.35C363.49 106.75 363.94 107.05 363.94 108.1C363.79 111.25 362.59 113.95 360.49 116.35C359.59 117.4 358.84 118.75 357.94 119.8C357.34 120.4 356.44 120.7 355.69 121.3C353.89 122.8 352.09 124.45 350.29 125.95C348.79 127.15 347.29 128.35 345.79 129.55C345.64 129.4 345.49 129.25 345.34 129.1C345.64 128.35 345.79 127.6 346.09 126.85L345.94 127.15ZM370.39 139.6C371.14 139.45 371.89 139.3 372.64 139.15C372.64 139.3 372.64 139.45 372.64 139.6C372.04 140.5 371.29 140.35 370.39 139.45V139.6ZM385.24 127.3C387.04 127.15 387.94 126.1 388.24 124.6C387.19 125.5 386.14 126.4 385.09 127.3H385.24Z" fill="#D9D9D9" fill-opacity="0.5"/>
</svg>
